<svg id="my-svg" width="100%" xmlns="http://www.w3.org/2000/svg" xmlns:xlink="http://www.w3.org/1999/xlink" class="flowchart" style="max-width: 2138.12px; background-color: transparent;" viewBox="0 0 2138.125 581" role="graphics-document document" aria-roledescription="flowchart-v2"><style>#my-svg{font-family:"trebuchet ms",verdana,arial,sans-serif;font-size:16px;fill:#333;}@keyframes edge-animation-frame{from{stroke-dashoffset:0;}}@keyframes dash{to{stroke-dashoffset:0;}}#my-svg .edge-animation-slow{stroke-dasharray:9,5!important;stroke-dashoffset:900;animation:dash 50s linear infinite;stroke-linecap:round;}#my-svg .edge-animation-fast{stroke-dasharray:9,5!important;stroke-dashoffset:900;animation:dash 20s linear infinite;stroke-linecap:round;}#my-svg .error-icon{fill:#552222;}#my-svg .error-text{fill:#552222;stroke:#552222;}#my-svg .edge-thickness-normal{stroke-width:1px;}#my-svg .edge-thickness-thick{stroke-width:3.5px;}#my-svg .edge-pattern-solid{stroke-dasharray:0;}#my-svg .edge-thickness-invisible{stroke-width:0;fill:none;}#my-svg .edge-pattern-dashed{stroke-dasharray:3;}#my-svg .edge-pattern-dotted{stroke-dasharray:2;}#my-svg .marker{fill:#333333;stroke:#333333;}#my-svg .marker.cross{stroke:#333333;}#my-svg svg{font-family:"trebuchet ms",verdana,arial,sans-serif;font-size:16px;}#my-svg p{margin:0;}#my-svg .label{font-family:"trebuchet ms",verdana,arial,sans-serif;color:#333;}#my-svg .cluster-label text{fill:#333;}#my-svg .cluster-label span{color:#333;}#my-svg .cluster-label span p{background-color:transparent;}#my-svg .label text,#my-svg span{fill:#333;color:#333;}#my-svg .node rect,#my-svg .node circle,#my-svg .node ellipse,#my-svg .node polygon,#my-svg .node path{fill:#ECECFF;stroke:#9370DB;stroke-width:1px;}#my-svg .rough-node .label text,#my-svg .node .label text,#my-svg .image-shape .label,#my-svg .icon-shape .label{text-anchor:middle;}#my-svg .node .katex path{fill:#000;stroke:#000;stroke-width:1px;}#my-svg .rough-node .label,#my-svg .node .label,#my-svg .image-shape .label,#my-svg .icon-shape .label{text-align:center;}#my-svg .node.clickable{cursor:pointer;}#my-svg .root .anchor path{fill:#333333!important;stroke-width:0;stroke:#333333;}#my-svg .arrowheadPath{fill:#333333;}#my-svg .edgePath .path{stroke:#333333;stroke-width:1px;}#my-svg .flowchart-link{stroke:#333333;fill:none;}#my-svg .edgeLabel{background-color:rgba(232,232,232, 0.8);text-align:center;}#my-svg .edgeLabel p{background-color:rgba(232,232,232, 0.8);}#my-svg .edgeLabel rect{opacity:0.5;background-color:rgba(232,232,232, 0.8);fill:rgba(232,232,232, 0.8);}#my-svg .labelBkg{background-color:rgba(232, 232, 232, 0.5);}#my-svg .cluster rect{fill:#ffffde;stroke:#aaaa33;stroke-width:1px;}#my-svg .cluster text{fill:#333;}#my-svg .cluster span{color:#333;}#my-svg div.mermaidTooltip{position:absolute;text-align:center;max-width:200px;padding:2px;font-family:"trebuchet ms",verdana,arial,sans-serif;font-size:12px;background:hsl(80, 100%, 96.2745098039%);border:1px solid #aaaa33;border-radius:2px;pointer-events:none;z-index:100;}#my-svg .flowchartTitleText{text-anchor:middle;font-size:18px;fill:#333;}#my-svg rect.text{fill:none;stroke-width:0;}#my-svg .icon-shape,#my-svg .image-shape{background-color:rgba(232,232,232, 0.8);text-align:center;}#my-svg .icon-shape p,#my-svg .image-shape p{background-color:rgba(232,232,232, 0.8);padding:2px;}#my-svg .icon-shape .label rect,#my-svg .image-shape .label rect{opacity:0.5;background-color:rgba(232,232,232, 0.8);fill:rgba(232,232,232, 0.8);}#my-svg .label-icon{display:inline-block;height:1em;overflow:visible;vertical-align:-0.125em;}#my-svg .node .label-icon path{fill:currentColor;stroke:revert;stroke-width:revert;}#my-svg .node .neo-node{stroke:#9370DB;}#my-svg [data-look="neo"].node rect,#my-svg [data-look="neo"].cluster rect,#my-svg [data-look="neo"].node polygon{stroke:#9370DB;filter:drop-shadow(1px 2px 2px rgba(185, 185, 185, 1));}#my-svg [data-look="neo"].node path{stroke:#9370DB;stroke-width:1px;}#my-svg [data-look="neo"].node .outer-path{filter:drop-shadow(1px 2px 2px rgba(185, 185, 185, 1));}#my-svg [data-look="neo"].node .neo-line path{stroke:#9370DB;filter:none;}#my-svg [data-look="neo"].node circle{stroke:#9370DB;filter:drop-shadow(1px 2px 2px rgba(185, 185, 185, 1));}#my-svg [data-look="neo"].node circle .state-start{fill:#000000;}#my-svg [data-look="neo"].icon-shape .icon{fill:#9370DB;filter:drop-shadow(1px 2px 2px rgba(185, 185, 185, 1));}#my-svg [data-look="neo"].icon-shape .icon-neo path{stroke:#9370DB;filter:drop-shadow(1px 2px 2px rgba(185, 185, 185, 1));}#my-svg :root{--mermaid-font-family:"trebuchet ms",verdana,arial,sans-serif;}#my-svg .dedicated&gt;*{fill:rgb(30, 27, 75)!important;stroke:rgb(129, 140, 248)!important;stroke-width:2px!important;color:rgb(237, 233, 254)!important;}#my-svg .dedicated span{fill:rgb(30, 27, 75)!important;stroke:rgb(129, 140, 248)!important;stroke-width:2px!important;color:rgb(237, 233, 254)!important;}#my-svg .dedicated tspan{fill:rgb(237, 233, 254)!important;}#my-svg .compat&gt;*{fill:rgb(49, 46, 129)!important;stroke:rgb(165, 180, 252)!important;stroke-width:2px!important;color:rgb(238, 242, 255)!important;}#my-svg .compat span{fill:rgb(49, 46, 129)!important;stroke:rgb(165, 180, 252)!important;stroke-width:2px!important;color:rgb(238, 242, 255)!important;}#my-svg .compat tspan{fill:rgb(238, 242, 255)!important;}#my-svg .presets&gt;*{fill:rgb(67, 56, 202)!important;stroke:rgb(199, 210, 254)!important;stroke-width:1px!important;color:rgb(224, 231, 255)!important;}#my-svg .presets span{fill:rgb(67, 56, 202)!important;stroke:rgb(199, 210, 254)!important;stroke-width:1px!important;color:rgb(224, 231, 255)!important;}#my-svg .presets tspan{fill:rgb(224, 231, 255)!important;}#my-svg .out&gt;*{fill:rgb(19, 78, 74)!important;stroke:rgb(45, 212, 191)!important;stroke-width:2px!important;color:rgb(204, 251, 241)!important;}#my-svg .out span{fill:rgb(19, 78, 74)!important;stroke:rgb(45, 212, 191)!important;stroke-width:2px!important;color:rgb(204, 251, 241)!important;}#my-svg .out tspan{fill:rgb(204, 251, 241)!important;}</style><g><marker id="my-svg_flowchart-v2-pointEnd" class="marker flowchart-v2" viewBox="0 0 10 10" refX="5" refY="5" markerUnits="userSpaceOnUse" markerWidth="8" markerHeight="8" orient="auto"><path d="M 0 0 L 10 5 L 0 10 z" class="arrowMarkerPath" style="stroke-width: 1; stroke-dasharray: 1, 0;"/></marker><marker id="my-svg_flowchart-v2-pointStart" class="marker flowchart-v2" viewBox="0 0 10 10" refX="4.5" refY="5" markerUnits="userSpaceOnUse" markerWidth="8" markerHeight="8" orient="auto"><path d="M 0 5 L 10 10 L 10 0 z" class="arrowMarkerPath" style="stroke-width: 1; stroke-dasharray: 1, 0;"/></marker><marker id="my-svg_flowchart-v2-pointEnd-margin" class="marker flowchart-v2" viewBox="0 0 11.5 14" refX="11.5" refY="7" markerUnits="userSpaceOnUse" markerWidth="10.5" markerHeight="14" orient="auto"><path d="M 0 0 L 11.5 7 L 0 14 z" class="arrowMarkerPath" style="stroke-width: 0; stroke-dasharray: 1, 0;"/></marker><marker id="my-svg_flowchart-v2-pointStart-margin" class="marker flowchart-v2" viewBox="0 0 11.5 14" refX="1" refY="7" markerUnits="userSpaceOnUse" markerWidth="11.5" markerHeight="14" orient="auto"><polygon points="0,7 11.5,14 11.5,0" class="arrowMarkerPath" style="stroke-width: 0; stroke-dasharray: 1, 0;"/></marker><marker id="my-svg_flowchart-v2-circleEnd" class="marker flowchart-v2" viewBox="0 0 10 10" refX="11" refY="5" markerUnits="userSpaceOnUse" markerWidth="11" markerHeight="11" orient="auto"><circle cx="5" cy="5" r="5" class="arrowMarkerPath" style="stroke-width: 1; stroke-dasharray: 1, 0;"/></marker><marker id="my-svg_flowchart-v2-circleStart" class="marker flowchart-v2" viewBox="0 0 10 10" refX="-1" refY="5" markerUnits="userSpaceOnUse" markerWidth="11" markerHeight="11" orient="auto"><circle cx="5" cy="5" r="5" class="arrowMarkerPath" style="stroke-width: 1; stroke-dasharray: 1, 0;"/></marker><marker id="my-svg_flowchart-v2-circleEnd-margin" class="marker flowchart-v2" viewBox="0 0 10 10" refY="5" refX="12.25" markerUnits="userSpaceOnUse" markerWidth="14" markerHeight="14" orient="auto"><circle cx="5" cy="5" r="5" class="arrowMarkerPath" style="stroke-width: 0; stroke-dasharray: 1, 0;"/></marker><marker id="my-svg_flowchart-v2-circleStart-margin" class="marker flowchart-v2" viewBox="0 0 10 10" refX="-2" refY="5" markerUnits="userSpaceOnUse" markerWidth="14" markerHeight="14" orient="auto"><circle cx="5" cy="5" r="5" class="arrowMarkerPath" style="stroke-width: 0; stroke-dasharray: 1, 0;"/></marker><marker id="my-svg_flowchart-v2-crossEnd" class="marker cross flowchart-v2" viewBox="0 0 11 11" refX="12" refY="5.2" markerUnits="userSpaceOnUse" markerWidth="11" markerHeight="11" orient="auto"><path d="M 1,1 l 9,9 M 10,1 l -9,9" class="arrowMarkerPath" style="stroke-width: 2; stroke-dasharray: 1, 0;"/></marker><marker id="my-svg_flowchart-v2-crossStart" class="marker cross flowchart-v2" viewBox="0 0 11 11" refX="-1" refY="5.2" markerUnits="userSpaceOnUse" markerWidth="11" markerHeight="11" orient="auto"><path d="M 1,1 l 9,9 M 10,1 l -9,9" class="arrowMarkerPath" style="stroke-width: 2; stroke-dasharray: 1, 0;"/></marker><marker id="my-svg_flowchart-v2-crossEnd-margin" class="marker cross flowchart-v2" viewBox="0 0 15 15" refX="17.7" refY="7.5" markerUnits="userSpaceOnUse" markerWidth="12" markerHeight="12" orient="auto"><path d="M 1,1 L 14,14 M 1,14 L 14,1" class="arrowMarkerPath" style="stroke-width: 2.5;"/></marker><marker id="my-svg_flowchart-v2-crossStart-margin" class="marker cross flowchart-v2" viewBox="0 0 15 15" refX="-3.5" refY="7.5" markerUnits="userSpaceOnUse" markerWidth="12" markerHeight="12" orient="auto"><path d="M 1,1 L 14,14 M 1,14 L 14,1" class="arrowMarkerPath" style="stroke-width: 2.5; stroke-dasharray: 1, 0;"/></marker><g class="root"><g class="clusters"><g class="cluster" id="my-svg-BUILTIN" data-look="classic"><rect style="" x="8" y="8" width="2122.125" height="428"/><g class="cluster-label" transform="translate(958.7265625, 8)"><foreignObject width="220.671875" height="24"><div xmlns="http://www.w3.org/1999/xhtml" style="display: table-cell; white-space: nowrap; line-height: 1.5;"><span class="nodeLabel"><p>Built-in adapters · stable 1.9.0</p></span></div></foreignObject></g></g></g><g class="edgePaths"><path d="M879.063,310.5L879.063,331.417C879.063,352.333,879.063,394.167,879.063,419.25C879.063,444.333,879.063,452.667,946.265,465.593C1013.467,478.519,1147.871,496.038,1215.073,504.797L1282.275,513.556" id="my-svg-L_DEDICATED_UNIFIED_0" class="edge-thickness-normal edge-pattern-solid edge-thickness-normal edge-pattern-solid flowchart-link" style=";" data-edge="true" data-et="edge" data-id="L_DEDICATED_UNIFIED_0" data-points="W3sieCI6ODc5LjA2MjUsInkiOjMxMC41fSx7IngiOjg3OS4wNjI1LCJ5Ijo0MzZ9LHsieCI6ODc5LjA2MjUsInkiOjQ2MX0seyJ4IjoxMjg2LjI0MTA5NjQ5NjU4MiwieSI6NTE0LjA3MzQwNjg4MTE2MjN9XQ==" data-look="classic" marker-end="url(#my-svg_flowchart-v2-pointEnd)"/><path d="M1930.125,411L1930.125,415.167C1930.125,419.333,1930.125,427.667,1930.125,436C1930.125,444.333,1930.125,452.667,1862.923,465.593C1795.721,478.519,1661.317,496.038,1594.115,504.797L1526.913,513.556" id="my-svg-L_COMPAT_UNIFIED_0" class="edge-thickness-normal edge-pattern-solid edge-thickness-normal edge-pattern-solid flowchart-link" style=";" data-edge="true" data-et="edge" data-id="L_COMPAT_UNIFIED_0" data-points="W3sieCI6MTkzMC4xMjUsInkiOjQxMX0seyJ4IjoxOTMwLjEyNSwieSI6NDM2fSx7IngiOjE5MzAuMTI1LCJ5Ijo0NjF9LHsieCI6MTUyMi45NDY0MDM1MDM0MTgsInkiOjUxNC4wNzM0MDY4ODExNjIzfV0=" data-look="classic" marker-end="url(#my-svg_flowchart-v2-pointEnd)"/></g><g class="edgeLabels"><g class="edgeLabel"><g class="label" data-id="L_DEDICATED_UNIFIED_0" transform="translate(0, 0)"><foreignObject width="0" height="0"><div xmlns="http://www.w3.org/1999/xhtml" class="labelBkg" style="display: table-cell; white-space: nowrap; line-height: 1.5; max-width: 200px; text-align: center;"><span class="edgeLabel"></span></div></foreignObject></g></g><g class="edgeLabel"><g class="label" data-id="L_COMPAT_UNIFIED_0" transform="translate(0, 0)"><foreignObject width="0" height="0"><div xmlns="http://www.w3.org/1999/xhtml" class="labelBkg" style="display: table-cell; white-space: nowrap; line-height: 1.5; max-width: 200px; text-align: center;"><span class="edgeLabel"></span></div></foreignObject></g></g></g><g class="nodes"><g class="root" transform="translate(1757.125, 25)"><g class="clusters"><g class="cluster" id="my-svg-COMPAT" data-look="classic"><rect style="" x="8" y="8" width="330" height="378"/><g class="cluster-label" transform="translate(79.5390625, 8)"><foreignObject width="186.921875" height="24"><div xmlns="http://www.w3.org/1999/xhtml" style="display: table-cell; white-space: nowrap; line-height: 1.5;"><span class="nodeLabel"><p>openaiCompatibleAdapter</p></span></div></foreignObject></g></g></g><g class="edgePaths"><path d="M173,123.5L173,129.75C173,136,173,148.5,173,160.333C173,172.167,173,183.333,173,188.917L173,194.5" id="my-svg-L_AO_PRESETS_0" class="edge-thickness-normal edge-pattern-solid edge-thickness-normal edge-pattern-solid flowchart-link" style=";" data-edge="true" data-et="edge" data-id="L_AO_PRESETS_0" data-points="W3sieCI6MTczLCJ5IjoxMjMuNX0seyJ4IjoxNzMsInkiOjE2MX0seyJ4IjoxNzMsInkiOjE5OC41fV0=" data-look="classic" marker-end="url(#my-svg_flowchart-v2-pointEnd)"/></g><g class="edgeLabels"><g class="edgeLabel"><g class="label" data-id="L_AO_PRESETS_0" transform="translate(0, 0)"><foreignObject width="0" height="0"><div xmlns="http://www.w3.org/1999/xhtml" class="labelBkg" style="display: table-cell; white-space: nowrap; line-height: 1.5; max-width: 200px; text-align: center;"><span class="edgeLabel"></span></div></foreignObject></g></g></g><g class="nodes"><g class="node default compat" id="my-svg-flowchart-AO-6" data-look="classic" transform="translate(173, 84.5)"><rect class="basic label-container" style="fill:#312e81 !important;stroke:#a5b4fc !important;stroke-width:2px !important" x="-130" y="-39" width="260" height="78"/><g class="label" style="color:#eef2ff !important" transform="translate(-100, -24)"><rect/><foreignObject width="200" height="48"><div style="color: rgb(238, 242, 255) !important; display: table; white-space: break-spaces; line-height: 1.5; max-width: 200px; text-align: center; width: 200px;" xmlns="http://www.w3.org/1999/xhtml"><span style="color:#eef2ff !important" class="nodeLabel"><p>Host preset via provider option</p></span></div></foreignObject></g></g><g class="node default presets" id="my-svg-flowchart-PRESETS-7" data-look="classic" transform="translate(173, 273.5)"><rect class="basic label-container" style="fill:#4338ca !important;stroke:#c7d2fe !important;stroke-width:1px !important" x="-130" y="-75" width="260" height="150"/><g class="label" style="color:#e0e7ff !important" transform="translate(-100, -60)"><rect/><foreignObject width="200" height="120"><div style="color: rgb(224, 231, 255) !important; display: table; white-space: break-spaces; line-height: 1.5; max-width: 200px; text-align: center; width: 200px;" xmlns="http://www.w3.org/1999/xhtml"><span style="color:#e0e7ff !important" class="nodeLabel"><p>generic · groq · deepseek · mistral · ollama · lmstudio<br />together · fireworks · openrouter · perplexity · xai · azure · cloudflare</p></span></div></foreignObject></g></g></g></g><g class="root" transform="translate(35, 125.5)"><g class="clusters"><g class="cluster" id="my-svg-DEDICATED" data-look="classic"><rect style="" x="8" y="8" width="1672.125" height="177"/><g class="cluster-label" transform="translate(779.765625, 8)"><foreignObject width="128.59375" height="24"><div xmlns="http://www.w3.org/1999/xhtml" style="display: table-cell; white-space: nowrap; line-height: 1.5;"><span class="nodeLabel"><p>Dedicated parsers</p></span></div></foreignObject></g></g></g><g class="edgePaths"/><g class="edgeLabels"/><g class="nodes"><g class="node default dedicated" id="my-svg-flowchart-AC-0" data-look="classic" transform="translate(165.0078125, 96.5)"><rect class="basic label-container" style="fill:#1e1b4b !important;stroke:#818cf8 !important;stroke-width:2px !important" x="-122.0078125" y="-39" width="244.015625" height="78"/><g class="label" style="color:#ede9fe !important" transform="translate(-92.0078125, -24)"><rect/><foreignObject width="184.015625" height="48"><div style="color: rgb(237, 233, 254) !important; display: table-cell; white-space: nowrap; line-height: 1.5; max-width: 200px; text-align: center;" xmlns="http://www.w3.org/1999/xhtml"><span style="color:#ede9fe !important" class="nodeLabel"><p>openaiChatAdapter<br /><i>OpenAI Chat Completions</i></p></span></div></foreignObject></g></g><g class="node default dedicated" id="my-svg-flowchart-AA-1" data-look="classic" transform="translate(437.3359375, 96.5)"><rect class="basic label-container" style="fill:#1e1b4b !important;stroke:#818cf8 !important;stroke-width:2px !important" x="-100.3203125" y="-39" width="200.640625" height="78"/><g class="label" style="color:#ede9fe !important" transform="translate(-70.3203125, -24)"><rect/><foreignObject width="140.640625" height="48"><div style="color: rgb(237, 233, 254) !important; display: table-cell; white-space: nowrap; line-height: 1.5; max-width: 200px; text-align: center;" xmlns="http://www.w3.org/1999/xhtml"><span style="color:#ede9fe !important" class="nodeLabel"><p>anthropicAdapter<br /><i>Anthropic Messages</i></p></span></div></foreignObject></g></g><g class="node default dedicated" id="my-svg-flowchart-AR-2" data-look="classic" transform="translate(706, 96.5)"><rect class="basic label-container" style="fill:#1e1b4b !important;stroke:#818cf8 !important;stroke-width:2px !important" x="-118.34375" y="-39" width="236.6875" height="78"/><g class="label" style="color:#ede9fe !important" transform="translate(-88.34375, -24)"><rect/><foreignObject width="176.6875" height="48"><div style="color: rgb(237, 233, 254) !important; display: table-cell; white-space: nowrap; line-height: 1.5; max-width: 200px; text-align: center;" xmlns="http://www.w3.org/1999/xhtml"><span style="color:#ede9fe !important" class="nodeLabel"><p>openaiResponsesAdapter<br /><i>OpenAI Responses API</i></p></span></div></foreignObject></g></g><g class="node default dedicated" id="my-svg-flowchart-AG-3" data-look="classic" transform="translate(980.140625, 96.5)"><rect class="basic label-container" style="fill:#1e1b4b !important;stroke:#818cf8 !important;stroke-width:2px !important" x="-105.796875" y="-39" width="211.59375" height="78"/><g class="label" style="color:#ede9fe !important" transform="translate(-75.796875, -24)"><rect/><foreignObject width="151.59375" height="48"><div style="color: rgb(237, 233, 254) !important; display: table-cell; white-space: nowrap; line-height: 1.5; max-width: 200px; text-align: center;" xmlns="http://www.w3.org/1999/xhtml"><span style="color:#ede9fe !important" class="nodeLabel"><p>geminiAdapter<br /><i>Google AI + Vertex AI</i></p></span></div></foreignObject></g></g><g class="node default dedicated" id="my-svg-flowchart-AB-4" data-look="classic" transform="translate(1265.9375, 96.5)"><rect class="basic label-container" style="fill:#1e1b4b !important;stroke:#818cf8 !important;stroke-width:2px !important" x="-130" y="-51" width="260" height="102"/><g class="label" style="color:#ede9fe !important" transform="translate(-100, -36)"><rect/><foreignObject width="200" height="72"><div style="color: rgb(237, 233, 254) !important; display: table; white-space: break-spaces; line-height: 1.5; max-width: 200px; text-align: center; width: 200px;" xmlns="http://www.w3.org/1999/xhtml"><span style="color:#ede9fe !important" class="nodeLabel"><p>bedrockAdapter<br /><i>AWS Bedrock ConverseStream</i></p></span></div></foreignObject></g></g><g class="node default dedicated" id="my-svg-flowchart-ACO-5" data-look="classic" transform="translate(1545.53125, 96.5)"><rect class="basic label-container" style="fill:#1e1b4b !important;stroke:#818cf8 !important;stroke-width:2px !important" x="-99.59375" y="-39" width="199.1875" height="78"/><g class="label" style="color:#ede9fe !important" transform="translate(-69.59375, -24)"><rect/><foreignObject width="139.1875" height="48"><div style="color: rgb(237, 233, 254) !important; display: table-cell; white-space: nowrap; line-height: 1.5; max-width: 200px; text-align: center;" xmlns="http://www.w3.org/1999/xhtml"><span style="color:#ede9fe !important" class="nodeLabel"><p>cohereAdapter<br /><i>Cohere Chat v2 SSE</i></p></span></div></foreignObject></g></g></g></g><g class="node default out" id="my-svg-flowchart-UNIFIED-10" data-look="classic" transform="translate(1404.59375, 529.5)"><g class="basic label-container outer-path"><path d="M-74.875 -43.5 C-24.273216420241397 -43.5, 26.328567159517206 -43.5, 74.875 -43.5 C74.875 -43.5, 74.875 -43.5, 74.875 -43.5 C75.51434840312041 -43.4794973411281, 76.15369680624083 -43.4589946822562, 77.66205456916101 -43.41062458463963 C78.40409871257621 -43.339040478563014, 79.14614285599141 -43.2674563724864, 80.43765653327601 -43.14286560131121 C81.33009129316582 -42.99858367026715, 82.22252605305562 -42.8543017392231, 83.19040034850968 -42.697823329111344 C83.8172873430772 -42.554740463421254, 84.44417433764471 -42.411657597731164, 85.90897440006356 -42.07732654219778 C86.5561137469502 -41.88525898094558, 87.20325309383684 -41.69319141969337, 88.58220748402749 -41.28392499496409 C89.17601451023475 -41.06539852022784, 89.76982153644201 -40.84687204549159, 91.19911471225277 -40.32087894455194 C91.7209509468122 -40.08987752323439, 92.24278718137161 -39.858876101916835, 93.74894265161377 -39.192145753755234 C94.52037901617338 -38.789687896493064, 95.29181538073297 -38.38723003923089, 96.22121351217129 -37.90236362936744 C97.08071678577575 -37.381327693906535, 97.94022005938021 -36.86029175844562, 98.60576820265887 -36.45683256279507 C99.40271215712714 -35.90091895930577, 100.1996561115954 -35.34500535581646, 100.8928080763679 -34.86149255125611 C101.65262226310067 -34.25556095684141, 102.41243644983344 -33.649629362426694, 103.07293519588879 -33.12289918905735 C103.50239737435233 -32.73287300152334, 103.93185955281587 -32.34284681398932, 105.13719095125165 -31.248196729251152 C105.7471929258261 -30.61831960840953, 106.35719490040054 -29.98844248756791, 107.07709287277622 -29.24508872636729 C107.73289103323236 -28.474750891123065, 108.38868919368849 -27.704413055878845, 108.8846694873593 -27.12180638085491 C109.24927748703146 -26.633264877766308, 109.61388548670362 -26.144723374677707, 110.55249307496757 -24.88707471531439 C111.12491913807364 -24.007674564463006, 111.69734520117969 -23.12827441361162, 112.07371019073256 -22.550076721507846 C112.45414143189888 -21.874582529976614, 112.83457267306518 -21.19908833844538, 113.44206982722551 -20.120415625476333 C113.92204073704801 -19.123745761497606, 114.40201164687052 -18.127075897518882, 114.65194910118784 -17.60807542582414 C114.8810759077384 -17.04212778377878, 115.11020271428899 -16.476180141733426, 115.69837635916457 -15.023379867326902 C115.95303857466185 -14.256377849162972, 116.20770079015912 -13.489375830999041, 116.57705160709475 -12.376950018449923 C116.73362289834199 -11.779875826497268, 116.89019418958924 -11.182801634544612, 117.28436417990932 -9.67966062709968 C117.4426733325096 -8.866776587148545, 117.60098248510987 -8.053892547197407, 117.81740757852859 -6.942595433952013 C117.95640035272973 -5.86459492447571, 118.09539312693087 -4.786594414999406, 118.17399141329012 -4.177001626984165 C118.22236829903396 -3.423492582404615, 118.2707451847778 -2.6699835378250656, 118.35265040472993 -1.3942436243669998 C118.35265040472993 -0.7601722444224804, 118.35265040472993 -0.1261008644779611, 118.35265040472993 1.3942436243669891 C118.31181373723376 2.030307683384456, 118.2709770697376 2.666371742401923, 118.17399141329012 4.177001626984135 C118.09654483468401 4.777661997096374, 118.01909825607791 5.378322367208612, 117.81740757852859 6.942595433951983 C117.68221478507438 7.636781855332337, 117.54702199162016 8.330968276712692, 117.28436417990932 9.679660627099672 C117.0035826281772 10.750402375348573, 116.72280107644508 11.821144123597474, 116.57705160709475 12.376950018449895 C116.32234780547208 13.144077287397646, 116.06764400384941 13.911204556345396, 115.69837635916457 15.023379867326874 C115.38823980131721 15.789423161292307, 115.07810324346985 16.55546645525774, 114.65194910118785 17.60807542582413 C114.26178486146124 18.41825981779383, 113.8716206217346 19.22844420976353, 113.44206982722551 20.120415625476323 C113.16122190476017 20.61908955074949, 112.88037398229484 21.117763476022656, 112.07371019073256 22.550076721507835 C111.53015472995644 23.385123874338213, 110.98659926918033 24.220171027168593, 110.5524930749676 24.887074715314366 C110.01775763506502 25.603571489383064, 109.48302219516245 26.320068263451766, 108.8846694873593 27.121806380854903 C108.46792549431018 27.61133758849538, 108.05118150126104 28.100868796135863, 107.07709287277623 29.245088726367264 C106.39743402148733 29.946892291352512, 105.71777517019842 30.64869585633776, 105.13719095125167 31.24819672925114 C104.35589327426551 31.957750607486222, 103.57459559727936 32.6673044857213, 103.07293519588882 33.12289918905732 C102.31192719073319 33.729782821895434, 101.55091918557754 34.33666645473354, 100.89280807636791 34.861492551256106 C100.24449332679174 35.31372885546726, 99.59617857721557 35.76596515967842, 98.60576820265888 36.45683256279506 C97.78387747164952 36.955067553898985, 96.96198674064017 37.45330254500291, 96.22121351217129 37.90236362936744 C95.40040123184508 38.33058087025827, 94.57958895151889 38.75879811114909, 93.74894265161379 39.19214575375523 C92.89024064144284 39.572267661167814, 92.0315386312719 39.9523895685804, 91.1991147122528 40.32087894455194 C90.31377136937674 40.64669347875448, 89.42842802650068 40.97250801295701, 88.58220748402752 41.283924994964075 C87.97996919913237 41.46266615670769, 87.37773091423722 41.641407318451314, 85.90897440006361 42.077326542197774 C84.86934069613115 42.314616150876425, 83.82970699219868 42.55190575955507, 83.19040034850971 42.697823329111344 C82.32624225936499 42.83753370731819, 81.46208417022028 42.97724408552504, 80.43765653327604 43.1428656013112 C79.5376084605678 43.22969215641919, 78.63756038785955 43.31651871152717, 77.66205456916101 43.41062458463963 C76.74371353118171 43.440073994285235, 75.82537249320241 43.469523403930836, 74.87500000000001 43.5 C74.87500000000001 43.5, 74.875 43.5, 74.875 43.5 C16.691071440752644 43.5, -41.49285711849471 43.5, -74.87499999999999 43.5 C-75.55323390457058 43.47825035878263, -76.23146780914117 43.45650071756526, -77.66205456916099 43.41062458463963 C-78.32937331808064 43.34624914749956, -78.99669206700031 43.2818737103595, -80.43765653327603 43.1428656013112 C-81.43960965851063 42.98087759028581, -82.44156278374524 42.818889579260414, -83.1904003485097 42.697823329111344 C-83.8537571767202 42.54641646188015, -84.51711400493069 42.395009594648954, -85.90897440006356 42.07732654219778 C-86.8177905115521 41.807594690781094, -87.72660662304067 41.537862839364415, -88.58220748402748 41.283924994964096 C-89.27937309101644 41.02736160706393, -89.9765386980054 40.77079821916377, -91.19911471225278 40.32087894455194 C-91.95161906572663 39.9877675895176, -92.70412341920049 39.65465623448326, -93.74894265161377 39.192145753755234 C-94.65318989052756 38.72040054841191, -95.55743712944135 38.248655343068585, -96.22121351217127 37.90236362936745 C-96.86522400430219 37.511960684411946, -97.50923449643312 37.12155773945644, -98.60576820265884 36.456832562795086 C-99.47420481950697 35.85104877289706, -100.34264143635511 35.24526498299904, -100.89280807636788 34.86149255125612 C-101.47812683238143 34.39471641932156, -102.06344558839498 33.92794028738701, -103.07293519588879 33.12289918905736 C-103.80451540178838 32.45849740261089, -104.53609560768798 31.794095616164416, -105.13719095125164 31.24819672925117 C-105.54977520266883 30.82216961586592, -105.96235945408601 30.396142502480668, -107.07709287277623 29.245088726367282 C-107.4673392286324 28.786683151131918, -107.85758558448858 28.328277575896553, -108.88466948735929 27.121806380854917 C-109.54865792546524 26.232122364384068, -110.21264636357118 25.34243834791322, -110.55249307496757 24.887074715314395 C-110.95655980154166 24.266319716188082, -111.36062652811574 23.64556471706177, -112.07371019073254 22.550076721507864 C-112.48085218940882 21.827154875260202, -112.8879941880851 21.104233029012537, -113.44206982722551 20.120415625476337 C-113.73839528063793 19.50508948111643, -114.03472073405037 18.889763336756523, -114.65194910118784 17.608075425824147 C-114.95906354153254 16.84949682051897, -115.26617798187723 16.09091821521379, -115.69837635916457 15.023379867326907 C-115.87966991291513 14.47735256863531, -116.0609634666657 13.931325269943711, -116.57705160709475 12.37695001844991 C-116.75945352429511 11.681372454673934, -116.94185544149546 10.985794890897958, -117.28436417990932 9.679660627099686 C-117.47737901631434 8.688570235860054, -117.67039385271936 7.69747984462042, -117.81740757852859 6.942595433952017 C-117.90529302229692 6.26097328702869, -117.99317846606525 5.579351140105362, -118.17399141329011 4.17700162698419 C-118.22402996508531 3.3976107923819985, -118.2740685168805 2.6182199577798073, -118.35265040472993 1.394243624367005 C-118.35265040472993 0.8204222731554741, -118.35265040472993 0.24660092194394312, -118.35265040472993 -1.394243624366984 C-118.31363951476594 -2.001869724579743, -118.27462862480195 -2.6094958247925018, -118.17399141329012 -4.177001626984129 C-118.08236375000051 -4.887647689529739, -117.9907360867109 -5.5982937520753495, -117.81740757852859 -6.942595433951997 C-117.64351512461671 -7.835496432606313, -117.46962267070484 -8.728397431260628, -117.28436417990932 -9.679660627099667 C-117.12178395751302 -10.299649477810911, -116.9592037351167 -10.919638328522154, -116.57705160709475 -12.37695001844989 C-116.23753591393015 -13.399517191782142, -115.89802022076555 -14.422084365114396, -115.6983763591646 -15.023379867326852 C-115.45119354826734 -15.633926189197625, -115.20401073737008 -16.2444725110684, -114.65194910118785 -17.608075425824126 C-114.31359766963251 -18.31066941300965, -113.97524623807719 -19.01326340019517, -113.44206982722551 -20.12041562547632 C-113.14864987001194 -20.641412471501546, -112.85522991279836 -21.162409317526773, -112.07371019073256 -22.55007672150785 C-111.58084341362583 -23.30725244440463, -111.0879766365191 -24.064428167301408, -110.55249307496757 -24.88707471531438 C-110.15331403121382 -25.421938267985393, -109.75413498746009 -25.956801820656406, -108.8846694873593 -27.121806380854903 C-108.43706849503076 -27.647583975661988, -107.98946750270221 -28.173361570469076, -107.07709287277623 -29.245088726367264 C-106.38402873726358 -29.96073434790784, -105.6909646017509 -30.67637996944842, -105.13719095125168 -31.248196729251127 C-104.63580880303417 -31.70353873041758, -104.13442665481665 -32.158880731584034, -103.07293519588883 -33.12289918905732 C-102.32739291372889 -33.71744931936654, -101.58185063156894 -34.31199944967575, -100.89280807636791 -34.861492551256106 C-100.18179143349224 -35.357466981911784, -99.47077479061656 -35.853441412567456, -98.6057682026589 -36.45683256279505 C-97.93367643869196 -36.864258539761416, -97.26158467472504 -37.271684516727774, -96.2212135121713 -37.902363629367436 C-95.51081804717353 -38.272976488426764, -94.80042258217576 -38.643589347486085, -93.74894265161379 -39.19214575375523 C-93.18351113425278 -39.442445513560926, -92.61807961689178 -39.69274527336662, -91.1991147122528 -40.320878944551936 C-90.66827333532494 -40.51623347830528, -90.13743195839709 -40.71158801205863, -88.58220748402753 -41.283924994964075 C-88.0006869608691 -41.45651723377398, -87.41916643771067 -41.62910947258389, -85.90897440006361 -42.07732654219777 C-85.15798463469334 -42.24873505547732, -84.40699486932307 -42.42014356875688, -83.19040034850971 -42.69782332911134 C-82.61681039955509 -42.79055690380183, -82.04322045060046 -42.88329047849233, -80.43765653327604 -43.1428656013112 C-79.87347070752742 -43.19729192938844, -79.3092848817788 -43.25171825746568, -77.66205456916101 -43.41062458463963 C-76.71001800964291 -43.441154544076625, -75.7579814501248 -43.47168450351363, -74.87500000000001 -43.5 C-74.87500000000001 -43.5, -74.875 -43.5, -74.875 -43.5" stroke="none" stroke-width="0" fill="#134e4a" style="fill:#134e4a !important;stroke:#2dd4bf !important;stroke-width:2px !important"/><path d="M-74.875 -43.5 C-32.851877874063675 -43.5, 9.17124425187265 -43.5, 74.875 -43.5 M-74.875 -43.5 C-42.17064339898028 -43.5, -9.466286797960564 -43.5, 74.875 -43.5 M74.875 -43.5 C74.875 -43.5, 74.875 -43.5, 74.875 -43.5 M74.875 -43.5 C74.875 -43.5, 74.875 -43.5, 74.875 -43.5 M74.875 -43.5 C75.45106477845258 -43.481526723797096, 76.02712955690515 -43.46305344759419, 77.66205456916101 -43.41062458463963 M74.875 -43.5 C75.4749933409063 -43.480759381373325, 76.0749866818126 -43.46151876274665, 77.66205456916101 -43.41062458463963 M77.66205456916101 -43.41062458463963 C78.28503420635005 -43.35052648828263, 78.90801384353908 -43.29042839192564, 80.43765653327601 -43.14286560131121 M77.66205456916101 -43.41062458463963 C78.71742262876515 -43.308814497195414, 79.77279068836927 -43.20700440975119, 80.43765653327601 -43.14286560131121 M80.43765653327601 -43.14286560131121 C81.32411396789553 -42.999550037862, 82.21057140251504 -42.856234474412794, 83.19040034850968 -42.697823329111344 M80.43765653327601 -43.14286560131121 C81.5175909828267 -42.96827017452459, 82.59752543237738 -42.793674747737974, 83.19040034850968 -42.697823329111344 M83.19040034850968 -42.697823329111344 C83.97035900252855 -42.519802856037415, 84.75031765654741 -42.34178238296348, 85.90897440006356 -42.07732654219778 M83.19040034850968 -42.697823329111344 C83.7570652502728 -42.56848576311798, 84.3237301520359 -42.43914819712461, 85.90897440006356 -42.07732654219778 M85.90897440006356 -42.07732654219778 C86.64252218559422 -41.859613409923185, 87.37606997112486 -41.64190027764859, 88.58220748402749 -41.28392499496409 M85.90897440006356 -42.07732654219778 C86.63090147824728 -41.863062374865414, 87.352828556431 -41.64879820753305, 88.58220748402749 -41.28392499496409 M88.58220748402749 -41.28392499496409 C89.4616709748686 -40.960274300663166, 90.34113446570971 -40.63662360636224, 91.19911471225277 -40.32087894455194 M88.58220748402749 -41.28392499496409 C89.28599273775518 -41.02492551587273, 89.98977799148285 -40.76592603678137, 91.19911471225277 -40.32087894455194 M91.19911471225277 -40.32087894455194 C91.86371065879119 -40.026682033557684, 92.5283066053296 -39.73248512256342, 93.74894265161377 -39.192145753755234 M91.19911471225277 -40.32087894455194 C91.7331812651944 -40.08446352408609, 92.26724781813606 -39.84804810362023, 93.74894265161377 -39.192145753755234 M93.74894265161377 -39.192145753755234 C94.5346865760916 -38.78222365164815, 95.32043050056944 -38.37230154954107, 96.22121351217129 -37.90236362936744 M93.74894265161377 -39.192145753755234 C94.49298493470984 -38.803979371245845, 95.2370272178059 -38.415812988736455, 96.22121351217129 -37.90236362936744 M96.22121351217129 -37.90236362936744 C96.92271678990345 -37.477108219915365, 97.62422006763559 -37.05185281046328, 98.60576820265887 -36.45683256279507 M96.22121351217129 -37.90236362936744 C96.87682500894519 -37.50492808722229, 97.5324365057191 -37.10749254507714, 98.60576820265887 -36.45683256279507 M98.60576820265887 -36.45683256279507 C99.46643611941992 -35.85646788177618, 100.32710403618098 -35.2561032007573, 100.8928080763679 -34.86149255125611 M98.60576820265887 -36.45683256279507 C99.18218401823142 -36.054749842490146, 99.75859983380398 -35.652667122185214, 100.8928080763679 -34.86149255125611 M100.8928080763679 -34.86149255125611 C101.333585318694 -34.509984430076074, 101.77436256102011 -34.158476308896034, 103.07293519588879 -33.12289918905735 M100.8928080763679 -34.86149255125611 C101.40574963102908 -34.452435311361846, 101.91869118569028 -34.04337807146758, 103.07293519588879 -33.12289918905735 M103.07293519588879 -33.12289918905735 C103.67178788969557 -32.57903701731605, 104.27064058350234 -32.035174845574744, 105.13719095125165 -31.248196729251152 M103.07293519588879 -33.12289918905735 C103.6318314385166 -32.61532440908702, 104.1907276811444 -32.1077496291167, 105.13719095125165 -31.248196729251152 M105.13719095125165 -31.248196729251152 C105.68237738132879 -30.68524697955816, 106.22756381140594 -30.12229722986517, 107.07709287277622 -29.24508872636729 M105.13719095125165 -31.248196729251152 C105.714218976708 -30.65236791808553, 106.29124700216435 -30.056539106919914, 107.07709287277622 -29.24508872636729 M107.07709287277622 -29.24508872636729 C107.60500015415111 -28.624978794889074, 108.132907435526 -28.00486886341086, 108.8846694873593 -27.12180638085491 M107.07709287277622 -29.24508872636729 C107.49053348629026 -28.759437856296334, 107.90397409980432 -28.27378698622538, 108.8846694873593 -27.12180638085491 M108.8846694873593 -27.12180638085491 C109.28548815831189 -26.58474587711055, 109.6863068292645 -26.047685373366186, 110.55249307496757 -24.88707471531439 M108.8846694873593 -27.12180638085491 C109.42121001312647 -26.402890956174364, 109.95775053889362 -25.683975531493818, 110.55249307496757 -24.88707471531439 M110.55249307496757 -24.88707471531439 C111.10176548860903 -24.043244787666055, 111.6510379022505 -23.199414860017715, 112.07371019073256 -22.550076721507846 M110.55249307496757 -24.88707471531439 C110.89998439278601 -24.353234736661186, 111.24747571060443 -23.819394758007977, 112.07371019073256 -22.550076721507846 M112.07371019073256 -22.550076721507846 C112.55343960437675 -21.69826856971184, 113.03316901802096 -20.846460417915836, 113.44206982722551 -20.120415625476333 M112.07371019073256 -22.550076721507846 C112.59476087729027 -21.624898465421275, 113.115811563848 -20.699720209334703, 113.44206982722551 -20.120415625476333 M113.44206982722551 -20.120415625476333 C113.75403129719527 -19.47262095817796, 114.06599276716503 -18.82482629087959, 114.65194910118784 -17.60807542582414 M113.44206982722551 -20.120415625476333 C113.80159730097003 -19.37384913359023, 114.16112477471455 -18.627282641704127, 114.65194910118784 -17.60807542582414 M114.65194910118784 -17.60807542582414 C114.98615432179307 -16.782582069510838, 115.32035954239831 -15.957088713197537, 115.69837635916457 -15.023379867326902 M114.65194910118784 -17.60807542582414 C115.04349897201956 -16.64093967476803, 115.43504884285127 -15.67380392371192, 115.69837635916457 -15.023379867326902 M115.69837635916457 -15.023379867326902 C115.9486512913619 -14.269591647443745, 116.19892622355923 -13.515803427560588, 116.57705160709475 -12.376950018449923 M115.69837635916457 -15.023379867326902 C115.9846855095689 -14.16106232347724, 116.27099465997324 -13.29874477962758, 116.57705160709475 -12.376950018449923 M116.57705160709475 -12.376950018449923 C116.76510158538066 -11.659833949869562, 116.95315156366658 -10.9427178812892, 117.28436417990932 -9.67966062709968 M116.57705160709475 -12.376950018449923 C116.76240273229716 -11.670125846367256, 116.94775385749959 -10.96330167428459, 117.28436417990932 -9.67966062709968 M117.28436417990932 -9.67966062709968 C117.39680722492974 -9.102289355765794, 117.50925026995017 -8.524918084431908, 117.81740757852859 -6.942595433952013 M117.28436417990932 -9.67966062709968 C117.44475430136173 -8.856091251905779, 117.60514442281413 -8.032521876711877, 117.81740757852859 -6.942595433952013 M117.81740757852859 -6.942595433952013 C117.90881605970915 -6.233649304561776, 118.00022454088973 -5.524703175171538, 118.17399141329012 -4.177001626984165 M117.81740757852859 -6.942595433952013 C117.92727002744398 -6.090523974958621, 118.03713247635936 -5.238452515965228, 118.17399141329012 -4.177001626984165 M118.17399141329012 -4.177001626984165 C118.23507993792717 -3.2254985459926053, 118.29616846256422 -2.273995465001046, 118.35265040472993 -1.3942436243669998 M118.17399141329012 -4.177001626984165 C118.2100892693389 -3.6147483813595804, 118.24618712538766 -3.052495135734996, 118.35265040472993 -1.3942436243669998 M118.35265040472993 -1.3942436243669998 C118.35265040472993 -0.5637869679459029, 118.35265040472993 0.266669688475194, 118.35265040472993 1.3942436243669891 M118.35265040472993 -1.3942436243669998 C118.35265040472993 -0.29552724309913914, 118.35265040472993 0.8031891381687215, 118.35265040472993 1.3942436243669891 M118.35265040472993 1.3942436243669891 C118.2933185627005 2.3183849557761844, 118.23398672067107 3.2425262871853797, 118.17399141329012 4.177001626984135 M118.35265040472993 1.3942436243669891 C118.28676118349712 2.4205214298901625, 118.2208719622643 3.4467992354133354, 118.17399141329012 4.177001626984135 M118.17399141329012 4.177001626984135 C118.0910667718824 4.820148770419871, 118.00814213047467 5.463295913855607, 117.81740757852859 6.942595433951983 M118.17399141329012 4.177001626984135 C118.05842925565005 5.073278901311324, 117.94286709801 5.969556175638515, 117.81740757852859 6.942595433951983 M117.81740757852859 6.942595433951983 C117.60424029774101 8.037164367875373, 117.39107301695346 9.131733301798764, 117.28436417990932 9.679660627099672 M117.81740757852859 6.942595433951983 C117.62923018758691 7.908846565131803, 117.44105279664524 8.875097696311624, 117.28436417990932 9.679660627099672 M117.28436417990932 9.679660627099672 C117.14228189531752 10.221481957099853, 117.00019961072573 10.763303287100035, 116.57705160709475 12.376950018449895 M117.28436417990932 9.679660627099672 C117.11894955311084 10.310458290235031, 116.95353492631236 10.94125595337039, 116.57705160709475 12.376950018449895 M116.57705160709475 12.376950018449895 C116.23526646640478 13.406352406141178, 115.8934813257148 14.435754793832462, 115.69837635916457 15.023379867326874 M116.57705160709475 12.376950018449895 C116.32396205199733 13.139215434058869, 116.0708724968999 13.901480849667841, 115.69837635916457 15.023379867326874 M115.69837635916457 15.023379867326874 C115.36393730981685 15.849450785154895, 115.02949826046914 16.675521702982916, 114.65194910118785 17.60807542582413 M115.69837635916457 15.023379867326874 C115.28649591307615 16.040732532331997, 114.87461546698772 17.058085197337125, 114.65194910118785 17.60807542582413 M114.65194910118785 17.60807542582413 C114.246046916272 18.45093999771736, 113.84014473135615 19.29380456961059, 113.44206982722551 20.120415625476323 M114.65194910118785 17.60807542582413 C114.23112979977736 18.481915709293634, 113.81031049836687 19.35575599276314, 113.44206982722551 20.120415625476323 M113.44206982722551 20.120415625476323 C112.98011829533604 20.94065734801108, 112.51816676344656 21.760899070545833, 112.07371019073256 22.550076721507835 M113.44206982722551 20.120415625476323 C113.0937396621212 20.738911105873036, 112.74540949701688 21.35740658626975, 112.07371019073256 22.550076721507835 M112.07371019073256 22.550076721507835 C111.5466512174685 23.35978083959256, 111.01959224420443 24.16948495767728, 110.5524930749676 24.887074715314366 M112.07371019073256 22.550076721507835 C111.48442356574523 23.45537922310365, 110.89513694075792 24.360681724699468, 110.5524930749676 24.887074715314366 M110.5524930749676 24.887074715314366 C110.11569080417901 25.47234996466557, 109.67888853339042 26.057625214016777, 108.8846694873593 27.121806380854903 M110.5524930749676 24.887074715314366 C109.93557128289098 25.713693713965583, 109.31864949081435 26.5403127126168, 108.8846694873593 27.121806380854903 M108.8846694873593 27.121806380854903 C108.30997179148018 27.7968789956598, 107.73527409560106 28.471951610464696, 107.07709287277623 29.245088726367264 M108.8846694873593 27.121806380854903 C108.41142902675244 27.677701554028765, 107.93818856614558 28.23359672720263, 107.07709287277623 29.245088726367264 M107.07709287277623 29.245088726367264 C106.32200254608576 30.024781482743933, 105.56691221939529 30.8044742391206, 105.13719095125167 31.24819672925114 M107.07709287277623 29.245088726367264 C106.36860307759862 29.97666260798212, 105.660113282421 30.708236489596977, 105.13719095125167 31.24819672925114 M105.13719095125167 31.24819672925114 C104.54413033235126 31.78679869181238, 103.95106971345086 32.32540065437362, 103.07293519588882 33.12289918905732 M105.13719095125167 31.24819672925114 C104.37060227814419 31.94439227934252, 103.60401360503673 32.6405878294339, 103.07293519588882 33.12289918905732 M103.07293519588882 33.12289918905732 C102.57693616583072 33.51844521644014, 102.08093713577261 33.91399124382296, 100.89280807636791 34.861492551256106 M103.07293519588882 33.12289918905732 C102.303849075976 33.73622490344662, 101.53476295606319 34.34955061783591, 100.89280807636791 34.861492551256106 M100.89280807636791 34.861492551256106 C100.17936547589511 35.35915922491352, 99.46592287542232 35.85682589857094, 98.60576820265888 36.45683256279506 M100.89280807636791 34.861492551256106 C100.22884381098413 35.32464528023802, 99.56487954560036 35.78779800921995, 98.60576820265888 36.45683256279506 M98.60576820265888 36.45683256279506 C97.93877393335163 36.86116840854252, 97.27177966404437 37.26550425428998, 96.22121351217129 37.90236362936744 M98.60576820265888 36.45683256279506 C97.7476739620032 36.97701433420202, 96.88957972134754 37.49719610560898, 96.22121351217129 37.90236362936744 M96.22121351217129 37.90236362936744 C95.68646280427262 38.181342731154004, 95.15171209637396 38.460321832940565, 93.74894265161379 39.19214575375523 M96.22121351217129 37.90236362936744 C95.25042532894349 38.40882320273787, 94.2796371457157 38.915282776108306, 93.74894265161379 39.19214575375523 M93.74894265161379 39.19214575375523 C92.7316815506772 39.64245706716145, 91.7144204497406 40.09276838056768, 91.1991147122528 40.32087894455194 M93.74894265161379 39.19214575375523 C92.97426321678307 39.53507335950583, 92.19958378195236 39.87800096525644, 91.1991147122528 40.32087894455194 M91.1991147122528 40.32087894455194 C90.3057069606594 40.649661255709034, 89.41229920906602 40.97844356686612, 88.58220748402752 41.283924994964075 M91.1991147122528 40.32087894455194 C90.4082493680755 40.611924701888285, 89.61738402389823 40.90297045922462, 88.58220748402752 41.283924994964075 M88.58220748402752 41.283924994964075 C87.65169825712192 41.560095249167055, 86.72118903021632 41.83626550337004, 85.90897440006361 42.077326542197774 M88.58220748402752 41.283924994964075 C87.72115298734613 41.53948144981183, 86.86009849066474 41.79503790465959, 85.90897440006361 42.077326542197774 M85.90897440006361 42.077326542197774 C84.87627875184862 42.31303258493396, 83.84358310363362 42.54873862767013, 83.19040034850971 42.697823329111344 M85.90897440006361 42.077326542197774 C84.9325462962812 42.30018988509726, 83.95611819249878 42.52305322799675, 83.19040034850971 42.697823329111344 M83.19040034850971 42.697823329111344 C82.10261981492343 42.873687249917545, 81.01483928133715 43.049551170723745, 80.43765653327604 43.1428656013112 M83.19040034850971 42.697823329111344 C82.37755742189151 42.829237469795935, 81.5647144952733 42.96065161048052, 80.43765653327604 43.1428656013112 M80.43765653327604 43.1428656013112 C79.73693105969522 43.21046374500186, 79.0362055861144 43.27806188869253, 77.66205456916101 43.41062458463963 M80.43765653327604 43.1428656013112 C79.51678188972636 43.23170127066064, 78.59590724617668 43.320536940010086, 77.66205456916101 43.41062458463963 M77.66205456916101 43.41062458463963 C77.00455274456574 43.431709388404734, 76.34705091997048 43.45279419216984, 74.87500000000001 43.5 M77.66205456916101 43.41062458463963 C76.96725746925091 43.43290537529323, 76.2724603693408 43.455186165946834, 74.87500000000001 43.5 M74.87500000000001 43.5 C74.87500000000001 43.5, 74.875 43.5, 74.875 43.5 M74.87500000000001 43.5 C74.87500000000001 43.5, 74.87500000000001 43.5, 74.875 43.5 M74.875 43.5 C26.993330801639075 43.5, -20.88833839672185 43.5, -74.87499999999999 43.5 M74.875 43.5 C22.734805551510277 43.5, -29.405388896979446 43.5, -74.87499999999999 43.5 M-74.87499999999999 43.5 C-75.56304037157874 43.47793588447281, -76.25108074315749 43.45587176894561, -77.66205456916099 43.41062458463963 M-74.87499999999999 43.5 C-75.73273445064747 43.47249412564656, -76.59046890129497 43.444988251293125, -77.66205456916099 43.41062458463963 M-77.66205456916099 43.41062458463963 C-78.54842019951579 43.32511795828993, -79.4347858298706 43.23961133194024, -80.43765653327603 43.1428656013112 M-77.66205456916099 43.41062458463963 C-78.40271497140847 43.33917396640927, -79.14337537365596 43.26772334817892, -80.43765653327603 43.1428656013112 M-80.43765653327603 43.1428656013112 C-81.16877061256676 43.02466474684584, -81.8998846918575 42.90646389238048, -83.1904003485097 42.697823329111344 M-80.43765653327603 43.1428656013112 C-80.99228059270993 43.05319828455575, -81.54690465214382 42.963530967800295, -83.1904003485097 42.697823329111344 M-83.1904003485097 42.697823329111344 C-84.13283286978826 42.48271925607646, -85.07526539106682 42.26761518304156, -85.90897440006356 42.07732654219778 M-83.1904003485097 42.697823329111344 C-83.74186213056417 42.57195577598185, -84.29332391261863 42.44608822285235, -85.90897440006356 42.07732654219778 M-85.90897440006356 42.07732654219778 C-86.65914903913077 41.85467864706967, -87.40932367819799 41.632030751941556, -88.58220748402748 41.283924994964096 M-85.90897440006356 42.07732654219778 C-86.52114151575064 41.89563855559262, -87.13330863143774 41.71395056898745, -88.58220748402748 41.283924994964096 M-88.58220748402748 41.283924994964096 C-89.20306391166386 41.05544409046, -89.82392033930024 40.82696318595591, -91.19911471225278 40.32087894455194 M-88.58220748402748 41.283924994964096 C-89.4335130408119 40.970636680685125, -90.28481859759631 40.65734836640616, -91.19911471225278 40.32087894455194 M-91.19911471225278 40.32087894455194 C-91.71894549778145 40.09076527603077, -92.23877628331013 39.860651607509595, -93.74894265161377 39.192145753755234 M-91.19911471225278 40.32087894455194 C-91.98478205079394 39.973087319773306, -92.77044938933511 39.62529569499467, -93.74894265161377 39.192145753755234 M-93.74894265161377 39.192145753755234 C-94.5151979673564 38.792390846342265, -95.28145328309903 38.39263593892929, -96.22121351217127 37.90236362936745 M-93.74894265161377 39.192145753755234 C-94.60490576887142 38.74559034375247, -95.46086888612905 38.2990349337497, -96.22121351217127 37.90236362936745 M-96.22121351217127 37.90236362936745 C-96.8329939334203 37.53149874278547, -97.44477435466932 37.160633856203496, -98.60576820265884 36.456832562795086 M-96.22121351217127 37.90236362936745 C-97.05553318907087 37.396594138224266, -97.88985286597048 36.890824647081075, -98.60576820265884 36.456832562795086 M-98.60576820265884 36.456832562795086 C-99.32556256694795 35.95473517366283, -100.04535693123705 35.45263778453058, -100.89280807636788 34.86149255125612 M-98.60576820265884 36.456832562795086 C-99.22853734206309 36.02241577038822, -99.85130648146733 35.58799897798136, -100.89280807636788 34.86149255125612 M-100.89280807636788 34.86149255125612 C-101.43160324822799 34.43181773963937, -101.97039842008809 34.00214292802262, -103.07293519588879 33.12289918905736 M-100.89280807636788 34.86149255125612 C-101.56099200245922 34.32863365131932, -102.22917592855053 33.795774751382524, -103.07293519588879 33.12289918905736 M-103.07293519588879 33.12289918905736 C-103.6149338302522 32.63067036982653, -104.15693246461562 32.13844155059571, -105.13719095125164 31.24819672925117 M-103.07293519588879 33.12289918905736 C-103.54845743440355 32.69104247366723, -104.02397967291832 32.2591857582771, -105.13719095125164 31.24819672925117 M-105.13719095125164 31.24819672925117 C-105.73188418304106 30.634127142206246, -106.32657741483047 30.020057555161323, -107.07709287277623 29.245088726367282 M-105.13719095125164 31.24819672925117 C-105.77773304824315 30.586784424623247, -106.41827514523466 29.925372119995327, -107.07709287277623 29.245088726367282 M-107.07709287277623 29.245088726367282 C-107.46012120432879 28.79516185319616, -107.84314953588134 28.345234980025037, -108.88466948735929 27.121806380854917 M-107.07709287277623 29.245088726367282 C-107.5335358188553 28.708924869563408, -107.98997876493438 28.17276101275953, -108.88466948735929 27.121806380854917 M-108.88466948735929 27.121806380854917 C-109.36516655818333 26.477984080134377, -109.84566362900738 25.834161779413837, -110.55249307496757 24.887074715314395 M-108.88466948735929 27.121806380854917 C-109.42268486328666 26.400914791321313, -109.96070023921402 25.68002320178771, -110.55249307496757 24.887074715314395 M-110.55249307496757 24.887074715314395 C-110.91550714763936 24.32938761676311, -111.27852122031116 23.77170051821183, -112.07371019073254 22.550076721507864 M-110.55249307496757 24.887074715314395 C-110.88275063003076 24.379710424166507, -111.21300818509395 23.87234613301862, -112.07371019073254 22.550076721507864 M-112.07371019073254 22.550076721507864 C-112.53118682450729 21.737780633708375, -112.98866345828203 20.92548454590889, -113.44206982722551 20.120415625476337 M-112.07371019073254 22.550076721507864 C-112.37051786895789 22.023064633782287, -112.66732554718324 21.496052546056706, -113.44206982722551 20.120415625476337 M-113.44206982722551 20.120415625476337 C-113.78137906194648 19.41583273952366, -114.12068829666744 18.711249853570983, -114.65194910118784 17.608075425824147 M-113.44206982722551 20.120415625476337 C-113.77157558732748 19.436189864330778, -114.10108134742943 18.75196410318522, -114.65194910118784 17.608075425824147 M-114.65194910118784 17.608075425824147 C-115.06898569471817 16.577986976950214, -115.48602228824849 15.547898528076283, -115.69837635916457 15.023379867326907 M-114.65194910118784 17.608075425824147 C-114.94088866248846 16.894389123145228, -115.22982822378908 16.18070282046631, -115.69837635916457 15.023379867326907 M-115.69837635916457 15.023379867326907 C-115.93955373269152 14.29699204465979, -116.18073110621847 13.57060422199267, -116.57705160709475 12.37695001844991 M-115.69837635916457 15.023379867326907 C-115.90842410698237 14.390749517463487, -116.11847185480015 13.758119167600066, -116.57705160709475 12.37695001844991 M-116.57705160709475 12.37695001844991 C-116.77800694968977 11.610620202538664, -116.97896229228479 10.844290386627415, -117.28436417990932 9.679660627099686 M-116.57705160709475 12.37695001844991 C-116.76296004211953 11.668000582474976, -116.94886847714432 10.959051146500041, -117.28436417990932 9.679660627099686 M-117.28436417990932 9.679660627099686 C-117.44039344083012 8.878483349067338, -117.59642270175094 8.077306071034988, -117.81740757852859 6.942595433952017 M-117.28436417990932 9.679660627099686 C-117.49274563624168 8.60966589026945, -117.70112709257404 7.539671153439214, -117.81740757852859 6.942595433952017 M-117.81740757852859 6.942595433952017 C-117.9498482877152 5.915411446876758, -118.08228899690181 4.888227459801498, -118.17399141329011 4.17700162698419 M-117.81740757852859 6.942595433952017 C-117.9328897736294 6.046938333288907, -118.0483719687302 5.151281232625797, -118.17399141329011 4.17700162698419 M-118.17399141329011 4.17700162698419 C-118.22977737866651 3.3080901866260666, -118.28556334404291 2.4391787462679435, -118.35265040472993 1.394243624367005 M-118.17399141329011 4.17700162698419 C-118.2226301390093 3.419414213435061, -118.2712688647285 2.661826799885932, -118.35265040472993 1.394243624367005 M-118.35265040472993 1.394243624367005 C-118.35265040472993 0.7192793626516925, -118.35265040472993 0.0443151009363798, -118.35265040472993 -1.394243624366984 M-118.35265040472993 1.394243624367005 C-118.35265040472993 0.6428746112938808, -118.35265040472993 -0.10849440177924352, -118.35265040472993 -1.394243624366984 M-118.35265040472993 -1.394243624366984 C-118.28530535701064 -2.443197102538868, -118.21796030929137 -3.492150580710752, -118.17399141329012 -4.177001626984129 M-118.35265040472993 -1.394243624366984 C-118.29234605499047 -2.333532548353855, -118.23204170525104 -3.2728214723407265, -118.17399141329012 -4.177001626984129 M-118.17399141329012 -4.177001626984129 C-118.03211020208524 -5.277404283475148, -117.89022899088035 -6.377806939966167, -117.81740757852859 -6.942595433951997 M-118.17399141329012 -4.177001626984129 C-118.08481747811071 -4.868617058850429, -117.99564354293129 -5.560232490716729, -117.81740757852859 -6.942595433951997 M-117.81740757852859 -6.942595433951997 C-117.62836016549575 -7.913313944690663, -117.43931275246293 -8.88403245542933, -117.28436417990932 -9.679660627099667 M-117.81740757852859 -6.942595433951997 C-117.6867064458118 -7.613718126758553, -117.55600531309499 -8.28484081956511, -117.28436417990932 -9.679660627099667 M-117.28436417990932 -9.679660627099667 C-117.08042078023962 -10.457385199668792, -116.87647738056992 -11.235109772237918, -116.57705160709475 -12.37695001844989 M-117.28436417990932 -9.679660627099667 C-117.01548431464025 -10.705016086641425, -116.74660444937118 -11.730371546183184, -116.57705160709475 -12.37695001844989 M-116.57705160709475 -12.37695001844989 C-116.31122602420838 -13.17757432054873, -116.04540044132202 -13.978198622647572, -115.6983763591646 -15.023379867326852 M-116.57705160709475 -12.37695001844989 C-116.26072196584764 -13.32968449760237, -115.94439232460051 -14.28241897675485, -115.6983763591646 -15.023379867326852 M-115.6983763591646 -15.023379867326852 C-115.35990139944683 -15.859419561797926, -115.02142643972904 -16.695459256269, -114.65194910118785 -17.608075425824126 M-115.6983763591646 -15.023379867326852 C-115.4437256251194 -15.65237210375551, -115.1890748910742 -16.28136434018417, -114.65194910118785 -17.608075425824126 M-114.65194910118785 -17.608075425824126 C-114.36231614033747 -18.209504466182533, -114.0726831794871 -18.810933506540938, -113.44206982722551 -20.12041562547632 M-114.65194910118785 -17.608075425824126 C-114.21543709888046 -18.514501938476073, -113.77892509657305 -19.420928451128024, -113.44206982722551 -20.12041562547632 M-113.44206982722551 -20.12041562547632 C-112.90834026594614 -21.06810650750647, -112.37461070466676 -22.01579738953662, -112.07371019073256 -22.55007672150785 M-113.44206982722551 -20.12041562547632 C-112.97843292001359 -20.943649902558853, -112.51479601280165 -21.766884179641384, -112.07371019073256 -22.55007672150785 M-112.07371019073256 -22.55007672150785 C-111.53868702573368 -23.37201597678215, -111.0036638607348 -24.19395523205645, -110.55249307496757 -24.88707471531438 M-112.07371019073256 -22.55007672150785 C-111.75102106440973 -23.045813873702855, -111.4283319380869 -23.541551025897856, -110.55249307496757 -24.88707471531438 M-110.55249307496757 -24.88707471531438 C-110.19527355185777 -25.365716332913486, -109.83805402874796 -25.844357950512588, -108.8846694873593 -27.121806380854903 M-110.55249307496757 -24.88707471531438 C-110.127698819308 -25.456260318345404, -109.70290456364842 -26.025445921376427, -108.8846694873593 -27.121806380854903 M-108.8846694873593 -27.121806380854903 C-108.51551231047524 -27.555439406461353, -108.14635513359117 -27.989072432067804, -107.07709287277623 -29.245088726367264 M-108.8846694873593 -27.121806380854903 C-108.2693889614192 -27.844549897077886, -107.65410843547907 -28.567293413300867, -107.07709287277623 -29.245088726367264 M-107.07709287277623 -29.245088726367264 C-106.56959572133844 -29.769121201517798, -106.06209856990067 -30.293153676668336, -105.13719095125168 -31.248196729251127 M-107.07709287277623 -29.245088726367264 C-106.36064193937875 -29.984883136815736, -105.64419100598127 -30.724677547264204, -105.13719095125168 -31.248196729251127 M-105.13719095125168 -31.248196729251127 C-104.64000019619439 -31.699732218047643, -104.14280944113712 -32.15126770684416, -103.07293519588883 -33.12289918905732 M-105.13719095125168 -31.248196729251127 C-104.6598563874715 -31.6816993504958, -104.18252182369135 -32.115201971740476, -103.07293519588883 -33.12289918905732 M-103.07293519588883 -33.12289918905732 C-102.41874423853778 -33.64459906879229, -101.76455328118672 -34.16629894852726, -100.89280807636791 -34.861492551256106 M-103.07293519588883 -33.12289918905732 C-102.52873130341648 -33.55688731143024, -101.98452741094414 -33.99087543380316, -100.89280807636791 -34.861492551256106 M-100.89280807636791 -34.861492551256106 C-100.10171737453965 -35.413323179086966, -99.3106266727114 -35.96515380691782, -98.6057682026589 -36.45683256279505 M-100.89280807636791 -34.861492551256106 C-100.24582263299799 -35.31280158900252, -99.59883718962807 -35.76411062674894, -98.6057682026589 -36.45683256279505 M-98.6057682026589 -36.45683256279505 C-97.92810888589781 -36.8676336229838, -97.25044956913673 -37.27843468317255, -96.2212135121713 -37.902363629367436 M-98.6057682026589 -36.45683256279505 C-97.97193155463931 -36.841068063662114, -97.33809490661973 -37.22530356452918, -96.2212135121713 -37.902363629367436 M-96.2212135121713 -37.902363629367436 C-95.33654613153244 -38.36389403519023, -94.45187875089358 -38.82542444101301, -93.74894265161379 -39.19214575375523 M-96.2212135121713 -37.902363629367436 C-95.6130746222067 -38.21962929873042, -95.00493573224209 -38.53689496809341, -93.74894265161379 -39.19214575375523 M-93.74894265161379 -39.19214575375523 C-93.12620523430834 -39.4678131355472, -92.50346781700291 -39.74348051733918, -91.1991147122528 -40.320878944551936 M-93.74894265161379 -39.19214575375523 C-92.9206468764007 -39.55880772292088, -92.09235110118759 -39.925469692086544, -91.1991147122528 -40.320878944551936 M-91.1991147122528 -40.320878944551936 C-90.44489869057813 -40.598437412424694, -89.69068266890346 -40.87599588029745, -88.58220748402753 -41.283924994964075 M-91.1991147122528 -40.320878944551936 C-90.18832367642727 -40.69285938938564, -89.17753264060177 -41.064839834219335, -88.58220748402753 -41.283924994964075 M-88.58220748402753 -41.283924994964075 C-87.93982400256463 -41.47458104032256, -87.29744052110173 -41.66523708568105, -85.90897440006361 -42.07732654219777 M-88.58220748402753 -41.283924994964075 C-87.6318646913313 -41.5659817473852, -86.68152189863508 -41.84803849980633, -85.90897440006361 -42.07732654219777 M-85.90897440006361 -42.07732654219777 C-85.07312771640603 -42.26810309333326, -84.23728103274846 -42.45887964446875, -83.19040034850971 -42.69782332911134 M-85.90897440006361 -42.07732654219777 C-85.06314608917437 -42.27038133461268, -84.21731777828512 -42.46343612702759, -83.19040034850971 -42.69782332911134 M-83.19040034850971 -42.69782332911134 C-82.21117714528516 -42.856136542619325, -81.23195394206063 -43.01444975612731, -80.43765653327604 -43.1428656013112 M-83.19040034850971 -42.69782332911134 C-82.10414680345723 -42.87344037825337, -81.01789325840474 -43.0490574273954, -80.43765653327604 -43.1428656013112 M-80.43765653327604 -43.1428656013112 C-79.37735380664478 -43.24515173014872, -78.3170510800135 -43.34743785898625, -77.66205456916101 -43.41062458463963 M-80.43765653327604 -43.1428656013112 C-79.65654248715063 -43.21821873391384, -78.87542844102522 -43.29357186651647, -77.66205456916101 -43.41062458463963 M-77.66205456916101 -43.41062458463963 C-76.6035657674709 -43.44456826028637, -75.54507696578078 -43.4785119359331, -74.87500000000001 -43.5 M-77.66205456916101 -43.41062458463963 C-76.8225364463922 -43.43754629681393, -75.98301832362341 -43.46446800898823, -74.87500000000001 -43.5 M-74.87500000000001 -43.5 C-74.87500000000001 -43.5, -74.875 -43.5, -74.875 -43.5 M-74.87500000000001 -43.5 C-74.87500000000001 -43.5, -74.875 -43.5, -74.875 -43.5" stroke="#2dd4bf" stroke-width="2" fill="none" stroke-dasharray="0 0" style="fill:#134e4a !important;stroke:#2dd4bf !important;stroke-width:2px !important"/></g><g class="label" style="color:#ccfbf1 !important" transform="translate(-100, -36)"><rect/><foreignObject width="200" height="72"><div style="color: rgb(204, 251, 241) !important; display: table; white-space: break-spaces; line-height: 1.5; max-width: 200px; text-align: center; width: 200px;" xmlns="http://www.w3.org/1999/xhtml"><span style="color:#ccfbf1 !important" class="nodeLabel"><p>Unified StreamEvent<br />text · tools · reasoning · json · usage · errors</p></span></div></foreignObject></g></g></g></g></g><defs><filter id="my-svg-drop-shadow" height="130%" width="130%"><feDropShadow dx="4" dy="4" stdDeviation="0" flood-opacity="0.06" flood-color="#000000"/></filter></defs><defs><filter id="my-svg-drop-shadow-small" height="150%" width="150%"><feDropShadow dx="2" dy="2" stdDeviation="0" flood-opacity="0.06" flood-color="#000000"/></filter></defs></svg>