<svg id="my-svg" width="100%" xmlns="http://www.w3.org/2000/svg" xmlns:xlink="http://www.w3.org/1999/xlink" class="flowchart" style="max-width: 1551.61px; background-color: transparent;" viewBox="0 0 1551.609375 581" role="graphics-document document" aria-roledescription="flowchart-v2"><style>#my-svg{font-family:"trebuchet ms",verdana,arial,sans-serif;font-size:16px;fill:#333;}@keyframes edge-animation-frame{from{stroke-dashoffset:0;}}@keyframes dash{to{stroke-dashoffset:0;}}#my-svg .edge-animation-slow{stroke-dasharray:9,5!important;stroke-dashoffset:900;animation:dash 50s linear infinite;stroke-linecap:round;}#my-svg .edge-animation-fast{stroke-dasharray:9,5!important;stroke-dashoffset:900;animation:dash 20s linear infinite;stroke-linecap:round;}#my-svg .error-icon{fill:#552222;}#my-svg .error-text{fill:#552222;stroke:#552222;}#my-svg .edge-thickness-normal{stroke-width:1px;}#my-svg .edge-thickness-thick{stroke-width:3.5px;}#my-svg .edge-pattern-solid{stroke-dasharray:0;}#my-svg .edge-thickness-invisible{stroke-width:0;fill:none;}#my-svg .edge-pattern-dashed{stroke-dasharray:3;}#my-svg .edge-pattern-dotted{stroke-dasharray:2;}#my-svg .marker{fill:#333333;stroke:#333333;}#my-svg .marker.cross{stroke:#333333;}#my-svg svg{font-family:"trebuchet ms",verdana,arial,sans-serif;font-size:16px;}#my-svg p{margin:0;}#my-svg .label{font-family:"trebuchet ms",verdana,arial,sans-serif;color:#333;}#my-svg .cluster-label text{fill:#333;}#my-svg .cluster-label span{color:#333;}#my-svg .cluster-label span p{background-color:transparent;}#my-svg .label text,#my-svg span{fill:#333;color:#333;}#my-svg .node rect,#my-svg .node circle,#my-svg .node ellipse,#my-svg .node polygon,#my-svg .node path{fill:#ECECFF;stroke:#9370DB;stroke-width:1px;}#my-svg .rough-node .label text,#my-svg .node .label text,#my-svg .image-shape .label,#my-svg .icon-shape .label{text-anchor:middle;}#my-svg .node .katex path{fill:#000;stroke:#000;stroke-width:1px;}#my-svg .rough-node .label,#my-svg .node .label,#my-svg .image-shape .label,#my-svg .icon-shape .label{text-align:center;}#my-svg .node.clickable{cursor:pointer;}#my-svg .root .anchor path{fill:#333333!important;stroke-width:0;stroke:#333333;}#my-svg .arrowheadPath{fill:#333333;}#my-svg .edgePath .path{stroke:#333333;stroke-width:1px;}#my-svg .flowchart-link{stroke:#333333;fill:none;}#my-svg .edgeLabel{background-color:rgba(232,232,232, 0.8);text-align:center;}#my-svg .edgeLabel p{background-color:rgba(232,232,232, 0.8);}#my-svg .edgeLabel rect{opacity:0.5;background-color:rgba(232,232,232, 0.8);fill:rgba(232,232,232, 0.8);}#my-svg .labelBkg{background-color:rgba(232, 232, 232, 0.5);}#my-svg .cluster rect{fill:#ffffde;stroke:#aaaa33;stroke-width:1px;}#my-svg .cluster text{fill:#333;}#my-svg .cluster span{color:#333;}#my-svg div.mermaidTooltip{position:absolute;text-align:center;max-width:200px;padding:2px;font-family:"trebuchet ms",verdana,arial,sans-serif;font-size:12px;background:hsl(80, 100%, 96.2745098039%);border:1px solid #aaaa33;border-radius:2px;pointer-events:none;z-index:100;}#my-svg .flowchartTitleText{text-anchor:middle;font-size:18px;fill:#333;}#my-svg rect.text{fill:none;stroke-width:0;}#my-svg .icon-shape,#my-svg .image-shape{background-color:rgba(232,232,232, 0.8);text-align:center;}#my-svg .icon-shape p,#my-svg .image-shape p{background-color:rgba(232,232,232, 0.8);padding:2px;}#my-svg .icon-shape .label rect,#my-svg .image-shape .label rect{opacity:0.5;background-color:rgba(232,232,232, 0.8);fill:rgba(232,232,232, 0.8);}#my-svg .label-icon{display:inline-block;height:1em;overflow:visible;vertical-align:-0.125em;}#my-svg .node .label-icon path{fill:currentColor;stroke:revert;stroke-width:revert;}#my-svg .node .neo-node{stroke:#9370DB;}#my-svg [data-look="neo"].node rect,#my-svg [data-look="neo"].cluster rect,#my-svg [data-look="neo"].node polygon{stroke:#9370DB;filter:drop-shadow(1px 2px 2px rgba(185, 185, 185, 1));}#my-svg [data-look="neo"].node path{stroke:#9370DB;stroke-width:1px;}#my-svg [data-look="neo"].node .outer-path{filter:drop-shadow(1px 2px 2px rgba(185, 185, 185, 1));}#my-svg [data-look="neo"].node .neo-line path{stroke:#9370DB;filter:none;}#my-svg [data-look="neo"].node circle{stroke:#9370DB;filter:drop-shadow(1px 2px 2px rgba(185, 185, 185, 1));}#my-svg [data-look="neo"].node circle .state-start{fill:#000000;}#my-svg [data-look="neo"].icon-shape .icon{fill:#9370DB;filter:drop-shadow(1px 2px 2px rgba(185, 185, 185, 1));}#my-svg [data-look="neo"].icon-shape .icon-neo path{stroke:#9370DB;filter:drop-shadow(1px 2px 2px rgba(185, 185, 185, 1));}#my-svg :root{--mermaid-font-family:"trebuchet ms",verdana,arial,sans-serif;}#my-svg .dedicated&gt;*{fill:rgb(30, 27, 75)!important;stroke:rgb(129, 140, 248)!important;stroke-width:2px!important;color:rgb(237, 233, 254)!important;}#my-svg .dedicated span{fill:rgb(30, 27, 75)!important;stroke:rgb(129, 140, 248)!important;stroke-width:2px!important;color:rgb(237, 233, 254)!important;}#my-svg .dedicated tspan{fill:rgb(237, 233, 254)!important;}#my-svg .compat&gt;*{fill:rgb(49, 46, 129)!important;stroke:rgb(165, 180, 252)!important;stroke-width:2px!important;color:rgb(238, 242, 255)!important;}#my-svg .compat span{fill:rgb(49, 46, 129)!important;stroke:rgb(165, 180, 252)!important;stroke-width:2px!important;color:rgb(238, 242, 255)!important;}#my-svg .compat tspan{fill:rgb(238, 242, 255)!important;}#my-svg .presets&gt;*{fill:rgb(67, 56, 202)!important;stroke:rgb(199, 210, 254)!important;stroke-width:1px!important;color:rgb(224, 231, 255)!important;}#my-svg .presets span{fill:rgb(67, 56, 202)!important;stroke:rgb(199, 210, 254)!important;stroke-width:1px!important;color:rgb(224, 231, 255)!important;}#my-svg .presets tspan{fill:rgb(224, 231, 255)!important;}#my-svg .out&gt;*{fill:rgb(19, 78, 74)!important;stroke:rgb(45, 212, 191)!important;stroke-width:2px!important;color:rgb(204, 251, 241)!important;}#my-svg .out span{fill:rgb(19, 78, 74)!important;stroke:rgb(45, 212, 191)!important;stroke-width:2px!important;color:rgb(204, 251, 241)!important;}#my-svg .out tspan{fill:rgb(204, 251, 241)!important;}</style><g><marker id="my-svg_flowchart-v2-pointEnd" class="marker flowchart-v2" viewBox="0 0 10 10" refX="5" refY="5" markerUnits="userSpaceOnUse" markerWidth="8" markerHeight="8" orient="auto"><path d="M 0 0 L 10 5 L 0 10 z" class="arrowMarkerPath" style="stroke-width: 1; stroke-dasharray: 1, 0;"/></marker><marker id="my-svg_flowchart-v2-pointStart" class="marker flowchart-v2" viewBox="0 0 10 10" refX="4.5" refY="5" markerUnits="userSpaceOnUse" markerWidth="8" markerHeight="8" orient="auto"><path d="M 0 5 L 10 10 L 10 0 z" class="arrowMarkerPath" style="stroke-width: 1; stroke-dasharray: 1, 0;"/></marker><marker id="my-svg_flowchart-v2-pointEnd-margin" class="marker flowchart-v2" viewBox="0 0 11.5 14" refX="11.5" refY="7" markerUnits="userSpaceOnUse" markerWidth="10.5" markerHeight="14" orient="auto"><path d="M 0 0 L 11.5 7 L 0 14 z" class="arrowMarkerPath" style="stroke-width: 0; stroke-dasharray: 1, 0;"/></marker><marker id="my-svg_flowchart-v2-pointStart-margin" class="marker flowchart-v2" viewBox="0 0 11.5 14" refX="1" refY="7" markerUnits="userSpaceOnUse" markerWidth="11.5" markerHeight="14" orient="auto"><polygon points="0,7 11.5,14 11.5,0" class="arrowMarkerPath" style="stroke-width: 0; stroke-dasharray: 1, 0;"/></marker><marker id="my-svg_flowchart-v2-circleEnd" class="marker flowchart-v2" viewBox="0 0 10 10" refX="11" refY="5" markerUnits="userSpaceOnUse" markerWidth="11" markerHeight="11" orient="auto"><circle cx="5" cy="5" r="5" class="arrowMarkerPath" style="stroke-width: 1; stroke-dasharray: 1, 0;"/></marker><marker id="my-svg_flowchart-v2-circleStart" class="marker flowchart-v2" viewBox="0 0 10 10" refX="-1" refY="5" markerUnits="userSpaceOnUse" markerWidth="11" markerHeight="11" orient="auto"><circle cx="5" cy="5" r="5" class="arrowMarkerPath" style="stroke-width: 1; stroke-dasharray: 1, 0;"/></marker><marker id="my-svg_flowchart-v2-circleEnd-margin" class="marker flowchart-v2" viewBox="0 0 10 10" refY="5" refX="12.25" markerUnits="userSpaceOnUse" markerWidth="14" markerHeight="14" orient="auto"><circle cx="5" cy="5" r="5" class="arrowMarkerPath" style="stroke-width: 0; stroke-dasharray: 1, 0;"/></marker><marker id="my-svg_flowchart-v2-circleStart-margin" class="marker flowchart-v2" viewBox="0 0 10 10" refX="-2" refY="5" markerUnits="userSpaceOnUse" markerWidth="14" markerHeight="14" orient="auto"><circle cx="5" cy="5" r="5" class="arrowMarkerPath" style="stroke-width: 0; stroke-dasharray: 1, 0;"/></marker><marker id="my-svg_flowchart-v2-crossEnd" class="marker cross flowchart-v2" viewBox="0 0 11 11" refX="12" refY="5.2" markerUnits="userSpaceOnUse" markerWidth="11" markerHeight="11" orient="auto"><path d="M 1,1 l 9,9 M 10,1 l -9,9" class="arrowMarkerPath" style="stroke-width: 2; stroke-dasharray: 1, 0;"/></marker><marker id="my-svg_flowchart-v2-crossStart" class="marker cross flowchart-v2" viewBox="0 0 11 11" refX="-1" refY="5.2" markerUnits="userSpaceOnUse" markerWidth="11" markerHeight="11" orient="auto"><path d="M 1,1 l 9,9 M 10,1 l -9,9" class="arrowMarkerPath" style="stroke-width: 2; stroke-dasharray: 1, 0;"/></marker><marker id="my-svg_flowchart-v2-crossEnd-margin" class="marker cross flowchart-v2" viewBox="0 0 15 15" refX="17.7" refY="7.5" markerUnits="userSpaceOnUse" markerWidth="12" markerHeight="12" orient="auto"><path d="M 1,1 L 14,14 M 1,14 L 14,1" class="arrowMarkerPath" style="stroke-width: 2.5;"/></marker><marker id="my-svg_flowchart-v2-crossStart-margin" class="marker cross flowchart-v2" viewBox="0 0 15 15" refX="-3.5" refY="7.5" markerUnits="userSpaceOnUse" markerWidth="12" markerHeight="12" orient="auto"><path d="M 1,1 L 14,14 M 1,14 L 14,1" class="arrowMarkerPath" style="stroke-width: 2.5; stroke-dasharray: 1, 0;"/></marker><g class="root"><g class="clusters"><g class="cluster" id="my-svg-BUILTIN" data-look="classic"><rect style="" x="8" y="8" width="1535.609375" height="428"/><g class="cluster-label" transform="translate(665.46875, 8)"><foreignObject width="220.671875" height="24"><div xmlns="http://www.w3.org/1999/xhtml" style="display: table-cell; white-space: nowrap; line-height: 1.5;"><span class="nodeLabel"><p>Built-in adapters · stable 1.2.0</p></span></div></foreignObject></g></g></g><g class="edgePaths"><path d="M585.805,298.5L585.805,321.417C585.805,344.333,585.805,390.167,585.805,417.25C585.805,444.333,585.805,452.667,628.574,464.565C671.343,476.464,756.88,491.928,799.649,499.66L842.418,507.392" id="my-svg-L_DEDICATED_UNIFIED_0" class="edge-thickness-normal edge-pattern-solid edge-thickness-normal edge-pattern-solid flowchart-link" style=";" data-edge="true" data-et="edge" data-id="L_DEDICATED_UNIFIED_0" data-points="W3sieCI6NTg1LjgwNDY4NzUsInkiOjI5OC41fSx7IngiOjU4NS44MDQ2ODc1LCJ5Ijo0MzZ9LHsieCI6NTg1LjgwNDY4NzUsInkiOjQ2MX0seyJ4Ijo4NDYuMzU0Mzc3NzQ2NTgyLCJ5Ijo1MDguMTAzNTcxODczNTY2MzV9XQ==" data-look="classic" marker-end="url(#my-svg_flowchart-v2-pointEnd)"/><path d="M1343.609,411L1343.609,415.167C1343.609,419.333,1343.609,427.667,1343.609,436C1343.609,444.333,1343.609,452.667,1300.84,464.565C1258.072,476.464,1172.534,491.928,1129.765,499.66L1086.996,507.392" id="my-svg-L_COMPAT_UNIFIED_0" class="edge-thickness-normal edge-pattern-solid edge-thickness-normal edge-pattern-solid flowchart-link" style=";" data-edge="true" data-et="edge" data-id="L_COMPAT_UNIFIED_0" data-points="W3sieCI6MTM0My42MDkzNzUsInkiOjQxMX0seyJ4IjoxMzQzLjYwOTM3NSwieSI6NDM2fSx7IngiOjEzNDMuNjA5Mzc1LCJ5Ijo0NjF9LHsieCI6MTA4My4wNTk2ODQ3NTM0MTgsInkiOjUwOC4xMDM1NzE4NzM1NjYzNX1d" data-look="classic" marker-end="url(#my-svg_flowchart-v2-pointEnd)"/></g><g class="edgeLabels"><g class="edgeLabel"><g class="label" data-id="L_DEDICATED_UNIFIED_0" transform="translate(0, 0)"><foreignObject width="0" height="0"><div xmlns="http://www.w3.org/1999/xhtml" class="labelBkg" style="display: table-cell; white-space: nowrap; line-height: 1.5; max-width: 200px; text-align: center;"><span class="edgeLabel"></span></div></foreignObject></g></g><g class="edgeLabel"><g class="label" data-id="L_COMPAT_UNIFIED_0" transform="translate(0, 0)"><foreignObject width="0" height="0"><div xmlns="http://www.w3.org/1999/xhtml" class="labelBkg" style="display: table-cell; white-space: nowrap; line-height: 1.5; max-width: 200px; text-align: center;"><span class="edgeLabel"></span></div></foreignObject></g></g></g><g class="nodes"><g class="root" transform="translate(1170.609375, 25)"><g class="clusters"><g class="cluster" id="my-svg-COMPAT" data-look="classic"><rect style="" x="8" y="8" width="330" height="378"/><g class="cluster-label" transform="translate(79.5390625, 8)"><foreignObject width="186.921875" height="24"><div xmlns="http://www.w3.org/1999/xhtml" style="display: table-cell; white-space: nowrap; line-height: 1.5;"><span class="nodeLabel"><p>openaiCompatibleAdapter</p></span></div></foreignObject></g></g></g><g class="edgePaths"><path d="M173,123.5L173,129.75C173,136,173,148.5,173,160.333C173,172.167,173,183.333,173,188.917L173,194.5" id="my-svg-L_AO_PRESETS_0" class="edge-thickness-normal edge-pattern-solid edge-thickness-normal edge-pattern-solid flowchart-link" style=";" data-edge="true" data-et="edge" data-id="L_AO_PRESETS_0" data-points="W3sieCI6MTczLCJ5IjoxMjMuNX0seyJ4IjoxNzMsInkiOjE2MX0seyJ4IjoxNzMsInkiOjE5OC41fV0=" data-look="classic" marker-end="url(#my-svg_flowchart-v2-pointEnd)"/></g><g class="edgeLabels"><g class="edgeLabel"><g class="label" data-id="L_AO_PRESETS_0" transform="translate(0, 0)"><foreignObject width="0" height="0"><div xmlns="http://www.w3.org/1999/xhtml" class="labelBkg" style="display: table-cell; white-space: nowrap; line-height: 1.5; max-width: 200px; text-align: center;"><span class="edgeLabel"></span></div></foreignObject></g></g></g><g class="nodes"><g class="node default compat" id="my-svg-flowchart-AO-4" data-look="classic" transform="translate(173, 84.5)"><rect class="basic label-container" style="fill:#312e81 !important;stroke:#a5b4fc !important;stroke-width:2px !important" x="-130" y="-39" width="260" height="78"/><g class="label" style="color:#eef2ff !important" transform="translate(-100, -24)"><rect/><foreignObject width="200" height="48"><div style="color: rgb(238, 242, 255) !important; display: table; white-space: break-spaces; line-height: 1.5; max-width: 200px; text-align: center; width: 200px;" xmlns="http://www.w3.org/1999/xhtml"><span style="color:#eef2ff !important" class="nodeLabel"><p>Host preset via provider option</p></span></div></foreignObject></g></g><g class="node default presets" id="my-svg-flowchart-PRESETS-5" data-look="classic" transform="translate(173, 273.5)"><rect class="basic label-container" style="fill:#4338ca !important;stroke:#c7d2fe !important;stroke-width:1px !important" x="-130" y="-75" width="260" height="150"/><g class="label" style="color:#e0e7ff !important" transform="translate(-100, -60)"><rect/><foreignObject width="200" height="120"><div style="color: rgb(224, 231, 255) !important; display: table; white-space: break-spaces; line-height: 1.5; max-width: 200px; text-align: center; width: 200px;" xmlns="http://www.w3.org/1999/xhtml"><span style="color:#e0e7ff !important" class="nodeLabel"><p>generic · groq · deepseek · mistral · ollama · lmstudio<br />together · fireworks · openrouter · perplexity · xai · azure</p></span></div></foreignObject></g></g></g></g><g class="root" transform="translate(35, 137.5)"><g class="clusters"><g class="cluster" id="my-svg-DEDICATED" data-look="classic"><rect style="" x="8" y="8" width="1085.609375" height="153"/><g class="cluster-label" transform="translate(486.5078125, 8)"><foreignObject width="128.59375" height="24"><div xmlns="http://www.w3.org/1999/xhtml" style="display: table-cell; white-space: nowrap; line-height: 1.5;"><span class="nodeLabel"><p>Dedicated parsers</p></span></div></foreignObject></g></g></g><g class="edgePaths"/><g class="edgeLabels"/><g class="nodes"><g class="node default dedicated" id="my-svg-flowchart-AC-0" data-look="classic" transform="translate(165.0078125, 84.5)"><rect class="basic label-container" style="fill:#1e1b4b !important;stroke:#818cf8 !important;stroke-width:2px !important" x="-122.0078125" y="-39" width="244.015625" height="78"/><g class="label" style="color:#ede9fe !important" transform="translate(-92.0078125, -24)"><rect/><foreignObject width="184.015625" height="48"><div style="color: rgb(237, 233, 254) !important; display: table-cell; white-space: nowrap; line-height: 1.5; max-width: 200px; text-align: center;" xmlns="http://www.w3.org/1999/xhtml"><span style="color:#ede9fe !important" class="nodeLabel"><p>openaiChatAdapter<br /><i>OpenAI Chat Completions</i></p></span></div></foreignObject></g></g><g class="node default dedicated" id="my-svg-flowchart-AA-1" data-look="classic" transform="translate(437.3359375, 84.5)"><rect class="basic label-container" style="fill:#1e1b4b !important;stroke:#818cf8 !important;stroke-width:2px !important" x="-100.3203125" y="-39" width="200.640625" height="78"/><g class="label" style="color:#ede9fe !important" transform="translate(-70.3203125, -24)"><rect/><foreignObject width="140.640625" height="48"><div style="color: rgb(237, 233, 254) !important; display: table-cell; white-space: nowrap; line-height: 1.5; max-width: 200px; text-align: center;" xmlns="http://www.w3.org/1999/xhtml"><span style="color:#ede9fe !important" class="nodeLabel"><p>anthropicAdapter<br /><i>Anthropic Messages</i></p></span></div></foreignObject></g></g><g class="node default dedicated" id="my-svg-flowchart-AR-2" data-look="classic" transform="translate(706, 84.5)"><rect class="basic label-container" style="fill:#1e1b4b !important;stroke:#818cf8 !important;stroke-width:2px !important" x="-118.34375" y="-39" width="236.6875" height="78"/><g class="label" style="color:#ede9fe !important" transform="translate(-88.34375, -24)"><rect/><foreignObject width="176.6875" height="48"><div style="color: rgb(237, 233, 254) !important; display: table-cell; white-space: nowrap; line-height: 1.5; max-width: 200px; text-align: center;" xmlns="http://www.w3.org/1999/xhtml"><span style="color:#ede9fe !important" class="nodeLabel"><p>openaiResponsesAdapter<br /><i>OpenAI Responses API</i></p></span></div></foreignObject></g></g><g class="node default dedicated" id="my-svg-flowchart-AG-3" data-look="classic" transform="translate(966.4765625, 84.5)"><rect class="basic label-container" style="fill:#1e1b4b !important;stroke:#818cf8 !important;stroke-width:2px !important" x="-92.1328125" y="-39" width="184.265625" height="78"/><g class="label" style="color:#ede9fe !important" transform="translate(-62.1328125, -24)"><rect/><foreignObject width="124.265625" height="48"><div style="color: rgb(237, 233, 254) !important; display: table-cell; white-space: nowrap; line-height: 1.5; max-width: 200px; text-align: center;" xmlns="http://www.w3.org/1999/xhtml"><span style="color:#ede9fe !important" class="nodeLabel"><p>geminiAdapter<br /><i>Google AI Gemini</i></p></span></div></foreignObject></g></g></g></g><g class="node default out" id="my-svg-flowchart-UNIFIED-8" data-look="classic" transform="translate(964.70703125, 529.5)"><g class="basic label-container outer-path"><path d="M-74.875 -43.5 C-20.880753363656233 -43.5, 33.113493272687535 -43.5, 74.875 -43.5 C74.875 -43.5, 74.875 -43.5, 74.875 -43.5 C75.51793389029878 -43.47938236153302, 76.16086778059756 -43.45876472306603, 77.66205456916101 -43.41062458463963 C78.58327743015161 -43.321755323172454, 79.5045002911422 -43.23288606170528, 80.43765653327601 -43.14286560131121 C81.02216251192553 -43.048367207594715, 81.60666849057506 -42.95386881387822, 83.19040034850968 -42.697823329111344 C83.95913416413104 -42.52236485215273, 84.7278679797524 -42.34690637519411, 85.90897440006356 -42.07732654219778 C86.54352968007586 -41.888993865938765, 87.17808496008817 -41.70066118967974, 88.58220748402749 -41.28392499496409 C89.26567977041499 -41.03240087562493, 89.94915205680249 -40.78087675628577, 91.19911471225277 -40.32087894455194 C91.88004251415833 -40.01945240565392, 92.5609703160639 -39.7180258667559, 93.74894265161377 -39.192145753755234 C94.5002176876255 -38.80020604868255, 95.25149272363721 -38.40826634360986, 96.22121351217129 -37.90236362936744 C97.07293604346756 -37.38604442561847, 97.92465857476382 -36.8697252218695, 98.60576820265887 -36.45683256279507 C99.25665218300158 -36.002804074421384, 99.90753616334429 -35.54877558604769, 100.8928080763679 -34.86149255125611 C101.37051006074199 -34.480537930901455, 101.84821204511607 -34.099583310546805, 103.07293519588879 -33.12289918905735 C103.89768967895134 -32.373878989347766, 104.72244416201389 -31.624858789638182, 105.13719095125165 -31.248196729251152 C105.86374248595908 -30.497972618675377, 106.5902940206665 -29.747748508099605, 107.07709287277622 -29.24508872636729 C107.61471831686374 -28.61356328798768, 108.15234376095128 -27.982037849608076, 108.8846694873593 -27.12180638085491 C109.21879687823535 -26.674106116712508, 109.55292426911141 -26.226405852570107, 110.55249307496757 -24.88707471531439 C111.07788891641823 -24.079925614308486, 111.6032847578689 -23.27277651330258, 112.07371019073256 -22.550076721507846 C112.5527272996863 -21.69953333881841, 113.03174440864005 -20.848989956128968, 113.44206982722551 -20.120415625476333 C113.89994368617361 -19.169630760439432, 114.35781754512173 -18.21884589540253, 114.65194910118784 -17.60807542582414 C115.05212073605303 -16.6196437509149, 115.45229237091822 -15.631212076005664, 115.69837635916457 -15.023379867326902 C115.97752586904728 -14.182626019994565, 116.25667537893 -13.341872172662228, 116.57705160709475 -12.376950018449923 C116.77474554130069 -11.62305736622957, 116.97243947550663 -10.869164714009216, 117.28436417990932 -9.67966062709968 C117.46488861101912 -8.752705827202929, 117.64541304212891 -7.825751027306177, 117.81740757852859 -6.942595433952013 C117.92475083765245 -6.110062313511439, 118.0320940967763 -5.277529193070865, 118.17399141329012 -4.177001626984165 C118.21219002212702 -3.5820274609874034, 118.25038863096393 -2.987053294990642, 118.35265040472993 -1.3942436243669998 C118.35265040472993 -0.4237169611388172, 118.35265040472993 0.5468097020893654, 118.35265040472993 1.3942436243669891 C118.30146925665923 2.1914313182472656, 118.25028810858853 2.988619012127542, 118.17399141329012 4.177001626984135 C118.06805054327414 4.99865809443706, 117.96210967325817 5.820314561889985, 117.81740757852859 6.942595433951983 C117.64726934484186 7.816219305204883, 117.47713111115513 8.689843176457783, 117.28436417990932 9.679660627099672 C117.02863534988964 10.654865489540768, 116.77290651986995 11.630070351981864, 116.57705160709475 12.376950018449895 C116.38798825411251 12.946378714477888, 116.19892490113027 13.515807410505882, 115.69837635916457 15.023379867326874 C115.39120928206202 15.782088486441612, 115.08404220495947 16.54079710555635, 114.65194910118785 17.60807542582413 C114.24615227772667 18.450721212402357, 113.84035545426549 19.293366998980588, 113.44206982722551 20.120415625476323 C113.05421217359712 20.80909616433978, 112.66635451996872 21.49777670320324, 112.07371019073256 22.550076721507835 C111.57810205279584 23.311463910797954, 111.08249391485911 24.072851100088076, 110.5524930749676 24.887074715314366 C109.94820895206442 25.696760388588515, 109.34392482916124 26.50644606186267, 108.8846694873593 27.121806380854903 C108.18072330489808 27.948701622446368, 107.47677712243684 28.77559686403783, 107.07709287277623 29.245088726367264 C106.65710702195932 29.678758598815346, 106.23712117114242 30.112428471263428, 105.13719095125167 31.24819672925114 C104.35821608990354 31.95564108778211, 103.57924122855539 32.663085446313076, 103.07293519588882 33.12289918905732 C102.3076138267932 33.733222614854135, 101.54229245769758 34.34354604065094, 100.89280807636791 34.861492551256106 C100.33772511913745 35.248694393066145, 99.78264216190696 35.635896234876185, 98.60576820265888 36.45683256279506 C97.8945473427593 36.887978827663886, 97.18332648285971 37.319125092532715, 96.22121351217129 37.90236362936744 C95.36781607250091 38.34758052701633, 94.51441863283054 38.79279742466522, 93.74894265161379 39.19214575375523 C93.20892316144568 39.43119636294364, 92.66890367127756 39.67024697213204, 91.1991147122528 40.32087894455194 C90.63225765477425 40.529487581673244, 90.06540059729569 40.738096218794546, 88.58220748402752 41.283924994964075 C87.65592856931593 41.55883971471324, 86.72964965460436 41.83375443446239, 85.90897440006361 42.077326542197774 C85.13832279680611 42.25322274166961, 84.3676711935486 42.42911894114144, 83.19040034850971 42.697823329111344 C82.38033396867846 42.828788579243856, 81.57026758884722 42.959753829376375, 80.43765653327604 43.1428656013112 C79.38886193061197 43.24404155527015, 78.34006732794789 43.3452175092291, 77.66205456916101 43.41062458463963 C76.56395125353193 43.445838620643414, 75.46584793790284 43.4810526566472, 74.87500000000001 43.5 C74.87500000000001 43.5, 74.87500000000001 43.5, 74.875 43.5 C33.791206231829435 43.5, -7.292587536341131 43.5, -74.87499999999999 43.5 C-75.57629309073853 43.47751089556421, -76.27758618147706 43.45502179112842, -77.66205456916099 43.41062458463963 C-78.31592687231671 43.347546309950694, -78.96979917547243 43.28446803526176, -80.43765653327603 43.1428656013112 C-81.28621785921135 43.00567678682535, -82.13477918514666 42.868487972339494, -83.1904003485097 42.697823329111344 C-83.83714167280245 42.55020884222308, -84.4838829970952 42.40259435533481, -85.90897440006356 42.07732654219778 C-86.8181406098714 41.80749078343763, -87.72730681967927 41.537655024677484, -88.58220748402748 41.283924994964096 C-89.5115604673219 40.94191450626695, -90.44091345061632 40.59990401756979, -91.19911471225278 40.32087894455194 C-91.73362212014159 40.08426837067847, -92.26812952803039 39.84765779680501, -93.74894265161377 39.192145753755234 C-94.66058316662051 38.716543481009836, -95.57222368162726 38.24094120826444, -96.22121351217127 37.90236362936745 C-96.70105338639273 37.6114818777623, -97.1808932606142 37.32060012615715, -98.60576820265884 36.456832562795086 C-99.07995984620469 36.12605699968291, -99.55415148975054 35.79528143657073, -100.89280807636788 34.86149255125612 C-101.76207316720789 34.168276773426776, -102.63133825804789 33.47506099559743, -103.07293519588879 33.12289918905736 C-103.70841550644923 32.54577278489401, -104.34389581700967 31.968646380730668, -105.13719095125164 31.24819672925117 C-105.81836075445416 30.544832982363662, -106.49953055765668 29.841469235476154, -107.07709287277623 29.245088726367282 C-107.5553813660175 28.68326384681985, -108.03366985925875 28.121438967272418, -108.88466948735929 27.121806380854917 C-109.28080665417829 26.591018666155776, -109.67694382099728 26.060230951456635, -110.55249307496757 24.887074715314395 C-110.86063664274099 24.41368344708065, -111.1687802105144 23.940292178846907, -112.07371019073254 22.550076721507864 C-112.61078699348099 21.59644247330444, -113.14786379622942 20.642808225101017, -113.44206982722551 20.120415625476337 C-113.6895475931383 19.60652274938252, -113.93702535905108 19.0926298732887, -114.65194910118784 17.608075425824147 C-114.88222322081916 17.039293898287543, -115.11249734045049 16.47051237075094, -115.69837635916457 15.023379867326907 C-115.95946068808489 14.237035466757579, -116.22054501700521 13.450691066188249, -116.57705160709475 12.37695001844991 C-116.81164486629851 11.482344247744244, -117.04623812550227 10.587738477038577, -117.28436417990932 9.679660627099686 C-117.44129052232924 8.873877025167607, -117.59821686474918 8.068093423235528, -117.81740757852859 6.942595433952017 C-117.95176064340717 5.900579593767217, -118.08611370828575 4.858563753582418, -118.17399141329011 4.17700162698419 C-118.22895609738252 3.320882305550412, -118.28392078147495 2.4647629841166347, -118.35265040472993 1.394243624367005 C-118.35265040472993 0.4346169329682612, -118.35265040472993 -0.5250097584304827, -118.35265040472993 -1.394243624366984 C-118.31644343906888 -1.9581963402745166, -118.28023647340783 -2.5221490561820494, -118.17399141329012 -4.177001626984129 C-118.04560000774123 -5.172780014670671, -117.91720860219233 -6.168558402357213, -117.81740757852859 -6.942595433951997 C-117.6812338048752 -7.641818981324871, -117.54506003122181 -8.341042528697745, -117.28436417990932 -9.679660627099667 C-117.05645908663602 -10.548761522443014, -116.82855399336272 -11.417862417786363, -116.57705160709475 -12.37695001844989 C-116.27187686932008 -13.296087705635845, -115.96670213154542 -14.2152253928218, -115.6983763591646 -15.023379867326852 C-115.44388902829493 -15.651968494752754, -115.18940169742527 -16.280557122178656, -114.65194910118785 -17.608075425824126 C-114.22126500179186 -18.50240017338339, -113.79058090239586 -19.396724920942656, -113.44206982722551 -20.12041562547632 C-113.03108747178375 -20.850156414039382, -112.620105116342 -21.579897202602442, -112.07371019073256 -22.55007672150785 C-111.67587591863817 -23.16125699690497, -111.27804164654378 -23.772437272302092, -110.55249307496757 -24.88707471531438 C-110.0721701059537 -25.53066373547029, -109.59184713693985 -26.174252755626203, -108.8846694873593 -27.121806380854903 C-108.30289137925524 -27.80519605074608, -107.72111327115118 -28.488585720637257, -107.07709287277623 -29.245088726367264 C-106.60130835460103 -29.73637530401857, -106.12552383642583 -30.227661881669878, -105.13719095125168 -31.248196729251127 C-104.45519625044977 -31.867566271928453, -103.77320154964787 -32.48693581460578, -103.07293519588883 -33.12289918905732 C-102.51761527030132 -33.56575205202952, -101.96229534471381 -34.00860491500172, -100.89280807636791 -34.861492551256106 C-100.37792182827975 -35.22065490885596, -99.86303558019158 -35.57981726645583, -98.6057682026589 -36.45683256279505 C-98.02203302249524 -36.810696259418954, -97.43829784233156 -37.16455995604286, -96.2212135121713 -37.902363629367436 C-95.59459074218253 -38.22927232709954, -94.96796797219376 -38.55618102483164, -93.74894265161379 -39.19214575375523 C-92.87435294887801 -39.579300671374604, -91.99976324614224 -39.96645558899398, -91.1991147122528 -40.320878944551936 C-90.46619859017882 -40.59059885247753, -89.73328246810485 -40.86031876040311, -88.58220748402753 -41.283924994964075 C-88.00717849871488 -41.454590579416134, -87.43214951340222 -41.62525616386819, -85.90897440006361 -42.07732654219777 C-84.83240815347567 -42.32304576273017, -83.75584190688771 -42.56876498326256, -83.19040034850971 -42.69782332911134 C-82.49640815093152 -42.81002260562591, -81.80241595335332 -42.92222188214048, -80.43765653327604 -43.1428656013112 C-79.40906372495921 -43.242092712465684, -78.3804709166424 -43.34131982362017, -77.66205456916101 -43.41062458463963 C-77.0051948092449 -43.43168879864018, -76.34833504932877 -43.45275301264073, -74.87500000000001 -43.5 C-74.87500000000001 -43.5, -74.87500000000001 -43.5, -74.875 -43.5" stroke="none" stroke-width="0" fill="#134e4a" style="fill:#134e4a !important;stroke:#2dd4bf !important;stroke-width:2px !important"/><path d="M-74.875 -43.5 C-36.00625795725551 -43.5, 2.862484085488987 -43.5, 74.875 -43.5 M-74.875 -43.5 C-24.693584404640568 -43.5, 25.487831190718865 -43.5, 74.875 -43.5 M74.875 -43.5 C74.875 -43.5, 74.875 -43.5, 74.875 -43.5 M74.875 -43.5 C74.875 -43.5, 74.875 -43.5, 74.875 -43.5 M74.875 -43.5 C75.952579365671 -43.465444127123924, 77.030158731342 -43.43088825424785, 77.66205456916101 -43.41062458463963 M74.875 -43.5 C75.7840776121547 -43.470847650390425, 76.69315522430941 -43.44169530078085, 77.66205456916101 -43.41062458463963 M77.66205456916101 -43.41062458463963 C78.4545793786646 -43.334170669417354, 79.24710418816818 -43.25771675419508, 80.43765653327601 -43.14286560131121 M77.66205456916101 -43.41062458463963 C78.50555643019531 -43.32925297456506, 79.34905829122961 -43.24788136449049, 80.43765653327601 -43.14286560131121 M80.43765653327601 -43.14286560131121 C81.53004986105144 -42.966255919713255, 82.62244318882686 -42.7896462381153, 83.19040034850968 -42.697823329111344 M80.43765653327601 -43.14286560131121 C81.29971038795372 -43.003495419414406, 82.16176424263143 -42.8641252375176, 83.19040034850968 -42.697823329111344 M83.19040034850968 -42.697823329111344 C83.79343637606453 -42.56018429099979, 84.39647240361938 -42.42254525288824, 85.90897440006356 -42.07732654219778 M83.19040034850968 -42.697823329111344 C83.81841582229728 -42.55448289540329, 84.44643129608488 -42.41114246169523, 85.90897440006356 -42.07732654219778 M85.90897440006356 -42.07732654219778 C86.52808124804346 -41.893578879475506, 87.14718809602337 -41.70983121675323, 88.58220748402749 -41.28392499496409 M85.90897440006356 -42.07732654219778 C86.59671397023054 -41.87320904779089, 87.28445354039754 -41.669091553384, 88.58220748402749 -41.28392499496409 M88.58220748402749 -41.28392499496409 C89.2564512905666 -41.03579704151627, 89.9306950971057 -40.787669088068455, 91.19911471225277 -40.32087894455194 M88.58220748402749 -41.28392499496409 C89.4347657978406 -40.9701756545182, 90.2873241116537 -40.65642631407231, 91.19911471225277 -40.32087894455194 M91.19911471225277 -40.32087894455194 C91.96670725151398 -39.98108849724467, 92.7342997907752 -39.6412980499374, 93.74894265161377 -39.192145753755234 M91.19911471225277 -40.32087894455194 C91.83790187187239 -40.03810681793617, 92.47668903149201 -39.75533469132039, 93.74894265161377 -39.192145753755234 M93.74894265161377 -39.192145753755234 C94.26067062014744 -38.925177600348626, 94.7723985886811 -38.658209446942024, 96.22121351217129 -37.90236362936744 M93.74894265161377 -39.192145753755234 C94.73657265256719 -38.676899814865045, 95.72420265352059 -38.161653875974864, 96.22121351217129 -37.90236362936744 M96.22121351217129 -37.90236362936744 C97.10231644864831 -37.368233851339475, 97.98341938512534 -36.8341040733115, 98.60576820265887 -36.45683256279507 M96.22121351217129 -37.90236362936744 C97.14064101698371 -37.34500127279439, 98.06006852179614 -36.78763891622134, 98.60576820265887 -36.45683256279507 M98.60576820265887 -36.45683256279507 C99.38669067515697 -35.91209485156938, 100.16761314765508 -35.367357140343685, 100.8928080763679 -34.86149255125611 M98.60576820265887 -36.45683256279507 C99.28705638722363 -35.98159541773287, 99.96834457178838 -35.506358272670674, 100.8928080763679 -34.86149255125611 M100.8928080763679 -34.86149255125611 C101.5612442761082 -34.32843246979754, 102.2296804758485 -33.79537238833897, 103.07293519588879 -33.12289918905735 M100.8928080763679 -34.86149255125611 C101.46867171138219 -34.40225662670713, 102.04453534639647 -33.94302070215814, 103.07293519588879 -33.12289918905735 M103.07293519588879 -33.12289918905735 C103.73363489220965 -32.522869206014775, 104.3943345885305 -31.9228392229722, 105.13719095125165 -31.248196729251152 M103.07293519588879 -33.12289918905735 C103.75992257385747 -32.498995429076174, 104.44690995182613 -31.875091669094992, 105.13719095125165 -31.248196729251152 M105.13719095125165 -31.248196729251152 C105.54771484908113 -30.82429710010338, 105.95823874691062 -30.400397470955607, 107.07709287277622 -29.24508872636729 M105.13719095125165 -31.248196729251152 C105.61542977522114 -30.75437587936499, 106.09366859919064 -30.260555029478827, 107.07709287277622 -29.24508872636729 M107.07709287277622 -29.24508872636729 C107.52602041155052 -28.717752894622393, 107.97494795032482 -28.190417062877493, 108.8846694873593 -27.12180638085491 M107.07709287277622 -29.24508872636729 C107.70536143018197 -28.50708872934485, 108.3336299875877 -27.769088732322412, 108.8846694873593 -27.12180638085491 M108.8846694873593 -27.12180638085491 C109.51022345514572 -26.28362105315995, 110.13577742293214 -25.445435725464996, 110.55249307496757 -24.88707471531439 M108.8846694873593 -27.12180638085491 C109.29189193834108 -26.5761653952678, 109.69911438932286 -26.030524409680694, 110.55249307496757 -24.88707471531439 M110.55249307496757 -24.88707471531439 C111.07486387435137 -24.084572891260724, 111.59723467373517 -23.282071067207053, 112.07371019073256 -22.550076721507846 M110.55249307496757 -24.88707471531439 C111.05573648807442 -24.11395769300451, 111.55897990118126 -23.340840670694632, 112.07371019073256 -22.550076721507846 M112.07371019073256 -22.550076721507846 C112.36982128245735 -22.024301493651016, 112.66593237418216 -21.498526265794187, 113.44206982722551 -20.120415625476333 M112.07371019073256 -22.550076721507846 C112.36031915446101 -22.041173484103325, 112.64692811818946 -21.5322702466988, 113.44206982722551 -20.120415625476333 M113.44206982722551 -20.120415625476333 C113.87308289922332 -19.225407759270507, 114.30409597122113 -18.33039989306468, 114.65194910118784 -17.60807542582414 M113.44206982722551 -20.120415625476333 C113.90181509580964 -19.16574473828848, 114.36156036439378 -18.211073851100625, 114.65194910118784 -17.60807542582414 M114.65194910118784 -17.60807542582414 C115.05768919325921 -16.605889553956832, 115.46342928533058 -15.603703682089522, 115.69837635916457 -15.023379867326902 M114.65194910118784 -17.60807542582414 C115.04867502630029 -16.628154720622426, 115.44540095141274 -15.648234015420712, 115.69837635916457 -15.023379867326902 M115.69837635916457 -15.023379867326902 C116.0105131808314 -14.083273492715199, 116.32265000249822 -13.143167118103497, 116.57705160709475 -12.376950018449923 M115.69837635916457 -15.023379867326902 C116.0078659717531 -14.091246464683518, 116.31735558434164 -13.159113062040133, 116.57705160709475 -12.376950018449923 M116.57705160709475 -12.376950018449923 C116.81842154655729 -11.456501828885738, 117.05979148601982 -10.536053639321555, 117.28436417990932 -9.67966062709968 M116.57705160709475 -12.376950018449923 C116.7259651534402 -11.809078126695468, 116.87487869978564 -11.241206234941012, 117.28436417990932 -9.67966062709968 M117.28436417990932 -9.67966062709968 C117.48340984325195 -8.65760321415113, 117.6824555065946 -7.635545801202581, 117.81740757852859 -6.942595433952013 M117.28436417990932 -9.67966062709968 C117.44075396806993 -8.876632117888446, 117.59714375623052 -8.07360360867721, 117.81740757852859 -6.942595433952013 M117.81740757852859 -6.942595433952013 C117.89119335226503 -6.370327543501159, 117.9649791260015 -5.798059653050306, 118.17399141329012 -4.177001626984165 M117.81740757852859 -6.942595433952013 C117.92274514913379 -6.12561803759418, 118.02808271973898 -5.308640641236348, 118.17399141329012 -4.177001626984165 M118.17399141329012 -4.177001626984165 C118.23869091483677 -3.1692546658975678, 118.30339041638341 -2.1615077048109708, 118.35265040472993 -1.3942436243669998 M118.17399141329012 -4.177001626984165 C118.21429256389409 -3.5492786758241865, 118.25459371449806 -2.9215557246642083, 118.35265040472993 -1.3942436243669998 M118.35265040472993 -1.3942436243669998 C118.35265040472993 -0.43236360173458654, 118.35265040472993 0.5295164208978267, 118.35265040472993 1.3942436243669891 M118.35265040472993 -1.3942436243669998 C118.35265040472993 -0.7999098878598854, 118.35265040472993 -0.20557615135277096, 118.35265040472993 1.3942436243669891 M118.35265040472993 1.3942436243669891 C118.29897749340874 2.230242542188789, 118.24530458208754 3.066241460010589, 118.17399141329012 4.177001626984135 M118.35265040472993 1.3942436243669891 C118.29987662914124 2.216237777385704, 118.24710285355256 3.0382319304044185, 118.17399141329012 4.177001626984135 M118.17399141329012 4.177001626984135 C118.08977880101877 4.830138018099569, 118.00556618874741 5.483274409215003, 117.81740757852859 6.942595433951983 M118.17399141329012 4.177001626984135 C118.04908903344995 5.145719820259894, 117.92418665360977 6.114438013535654, 117.81740757852859 6.942595433951983 M117.81740757852859 6.942595433951983 C117.65691359722993 7.766698107505637, 117.49641961593126 8.590800781059292, 117.28436417990932 9.679660627099672 M117.81740757852859 6.942595433951983 C117.63162247140792 7.896562693320259, 117.44583736428727 8.850529952688536, 117.28436417990932 9.679660627099672 M117.28436417990932 9.679660627099672 C117.0185620805389 10.693279231357694, 116.75275998116847 11.706897835615717, 116.57705160709475 12.376950018449895 M117.28436417990932 9.679660627099672 C117.12756625650691 10.277599065682956, 116.97076833310449 10.875537504266243, 116.57705160709475 12.376950018449895 M116.57705160709475 12.376950018449895 C116.25259789565574 13.35415290262551, 115.92814418421675 14.331355786801122, 115.69837635916457 15.023379867326874 M116.57705160709475 12.376950018449895 C116.2906555713927 13.239529246972944, 116.00425953569066 14.102108475495994, 115.69837635916457 15.023379867326874 M115.69837635916457 15.023379867326874 C115.28446911934806 16.045738752025763, 114.87056187953155 17.06809763672465, 114.65194910118785 17.60807542582413 M115.69837635916457 15.023379867326874 C115.35118423801528 15.880951119068666, 115.00399211686597 16.738522370810458, 114.65194910118785 17.60807542582413 M114.65194910118785 17.60807542582413 C114.37930056752558 18.174235939717903, 114.10665203386331 18.74039645361168, 113.44206982722551 20.120415625476323 M114.65194910118785 17.60807542582413 C114.30265851880719 18.333384793758782, 113.95336793642653 19.058694161693435, 113.44206982722551 20.120415625476323 M113.44206982722551 20.120415625476323 C112.96660609011997 20.964649636631354, 112.49114235301442 21.808883647786384, 112.07371019073256 22.550076721507835 M113.44206982722551 20.120415625476323 C113.04527111079217 20.824971926730743, 112.64847239435883 21.52952822798516, 112.07371019073256 22.550076721507835 M112.07371019073256 22.550076721507835 C111.58488049863531 23.301050397720957, 111.09605080653806 24.05202407393408, 110.5524930749676 24.887074715314366 M112.07371019073256 22.550076721507835 C111.58760430500307 23.296865899695664, 111.10149841927357 24.043655077883493, 110.5524930749676 24.887074715314366 M110.5524930749676 24.887074715314366 C110.07230241975017 25.530486447037088, 109.59211176453273 26.17389817875981, 108.8846694873593 27.121806380854903 M110.5524930749676 24.887074715314366 C110.04933179891684 25.561264986287135, 109.54617052286608 26.235455257259904, 108.8846694873593 27.121806380854903 M108.8846694873593 27.121806380854903 C108.2052321672029 27.919912118189348, 107.5257948470465 28.718017855523797, 107.07709287277623 29.245088726367264 M108.8846694873593 27.121806380854903 C108.3591579083718 27.739102183989562, 107.8336463293843 28.356397987124225, 107.07709287277623 29.245088726367264 M107.07709287277623 29.245088726367264 C106.63592945193665 29.7006261785746, 106.19476603109706 30.15616363078193, 105.13719095125167 31.24819672925114 M107.07709287277623 29.245088726367264 C106.44883488653142 29.893816678104987, 105.8205769002866 30.54254462984271, 105.13719095125167 31.24819672925114 M105.13719095125167 31.24819672925114 C104.65728420277526 31.684035340580657, 104.17737745429885 32.11987395191017, 103.07293519588882 33.12289918905732 M105.13719095125167 31.24819672925114 C104.57645212479268 31.757444895104854, 104.0157132983337 32.266693060958566, 103.07293519588882 33.12289918905732 M103.07293519588882 33.12289918905732 C102.22592567360351 33.798366743209854, 101.37891615131821 34.47383429736239, 100.89280807636791 34.861492551256106 M103.07293519588882 33.12289918905732 C102.37562984593878 33.67898164956782, 101.67832449598873 34.235064110078305, 100.89280807636791 34.861492551256106 M100.89280807636791 34.861492551256106 C100.2259421941395 35.32666932253987, 99.55907631191111 35.79184609382363, 98.60576820265888 36.45683256279506 M100.89280807636791 34.861492551256106 C100.3767591705041 35.22146592858961, 99.8607102646403 35.58143930592311, 98.60576820265888 36.45683256279506 M98.60576820265888 36.45683256279506 C97.93250922897563 36.864966109150735, 97.25925025529239 37.273099655506414, 96.22121351217129 37.90236362936744 M98.60576820265888 36.45683256279506 C98.04686999010322 36.79563994369677, 97.48797177754754 37.13444732459848, 96.22121351217129 37.90236362936744 M96.22121351217129 37.90236362936744 C95.29068129778585 38.387821689578, 94.36014908340042 38.873279749788544, 93.74894265161379 39.19214575375523 M96.22121351217129 37.90236362936744 C95.42688786444775 38.31676281099495, 94.63256221672421 38.73116199262246, 93.74894265161379 39.19214575375523 M93.74894265161379 39.19214575375523 C92.7449590357165 39.63657951839715, 91.74097541981924 40.08101328303907, 91.1991147122528 40.32087894455194 M93.74894265161379 39.19214575375523 C93.21070853127391 39.430406032681795, 92.67247441093402 39.668666311608355, 91.1991147122528 40.32087894455194 M91.1991147122528 40.32087894455194 C90.4609401809217 40.59253399569235, 89.72276564959058 40.86418904683276, 88.58220748402752 41.283924994964075 M91.1991147122528 40.32087894455194 C90.63047037624881 40.53014531669203, 90.06182604024484 40.73941168883211, 88.58220748402752 41.283924994964075 M88.58220748402752 41.283924994964075 C87.74919085223053 41.531159958687894, 86.91617422043355 41.778394922411714, 85.90897440006361 42.077326542197774 M88.58220748402752 41.283924994964075 C87.73671779209685 41.534861897463145, 86.89122810016617 41.785798799962215, 85.90897440006361 42.077326542197774 M85.90897440006361 42.077326542197774 C85.20217345395183 42.23864924584057, 84.49537250784006 42.39997194948337, 83.19040034850971 42.697823329111344 M85.90897440006361 42.077326542197774 C84.8654944596871 42.315494029245734, 83.82201451931059 42.5536615162937, 83.19040034850971 42.697823329111344 M83.19040034850971 42.697823329111344 C82.48152053419673 42.8124295200444, 81.77264071988377 42.92703571097746, 80.43765653327604 43.1428656013112 M83.19040034850971 42.697823329111344 C82.42081519863977 42.822243887920344, 81.65123004876985 42.946664446729336, 80.43765653327604 43.1428656013112 M80.43765653327604 43.1428656013112 C79.78840392490196 43.20549821960055, 79.13915131652787 43.26813083788989, 77.66205456916101 43.41062458463963 M80.43765653327604 43.1428656013112 C79.7534274675684 43.20887235637417, 79.06919840186075 43.27487911143714, 77.66205456916101 43.41062458463963 M77.66205456916101 43.41062458463963 C77.08344934935889 43.42917932785194, 76.50484412955676 43.44773407106426, 74.87500000000001 43.5 M77.66205456916101 43.41062458463963 C77.07302010359294 43.429513773464365, 76.48398563802486 43.448402962289094, 74.87500000000001 43.5 M74.87500000000001 43.5 C74.87500000000001 43.5, 74.875 43.5, 74.875 43.5 M74.87500000000001 43.5 C74.87500000000001 43.5, 74.875 43.5, 74.875 43.5 M74.875 43.5 C20.613380475250466 43.5, -33.64823904949907 43.5, -74.87499999999999 43.5 M74.875 43.5 C20.711678041389327 43.5, -33.45164391722135 43.5, -74.87499999999999 43.5 M-74.87499999999999 43.5 C-75.93669298100043 43.465953572559336, -76.99838596200088 43.43190714511867, -77.66205456916099 43.41062458463963 M-74.87499999999999 43.5 C-75.47950605738576 43.480614667339296, -76.08401211477153 43.4612293346786, -77.66205456916099 43.41062458463963 M-77.66205456916099 43.41062458463963 C-78.57371423622091 43.32267787298952, -79.48537390328084 43.23473116133941, -80.43765653327603 43.1428656013112 M-77.66205456916099 43.41062458463963 C-78.62449992910024 43.31777863827618, -79.58694528903949 43.22493269191274, -80.43765653327603 43.1428656013112 M-80.43765653327603 43.1428656013112 C-81.30389481150135 43.00281891426591, -82.17013308972668 42.86277222722062, -83.1904003485097 42.697823329111344 M-80.43765653327603 43.1428656013112 C-81.30385769479919 43.00282491500647, -82.17005885632236 42.86278422870174, -83.1904003485097 42.697823329111344 M-83.1904003485097 42.697823329111344 C-83.79776086730237 42.5591972540947, -84.40512138609505 42.42057117907805, -85.90897440006356 42.07732654219778 M-83.1904003485097 42.697823329111344 C-84.188005376609 42.47012649142887, -85.1856104047083 42.242429653746406, -85.90897440006356 42.07732654219778 M-85.90897440006356 42.07732654219778 C-86.89675112513144 41.784159595143464, -87.88452785019935 41.490992648089154, -88.58220748402748 41.283924994964096 M-85.90897440006356 42.07732654219778 C-86.86524873196176 41.793509340076795, -87.82152306385994 41.50969213795582, -88.58220748402748 41.283924994964096 M-88.58220748402748 41.283924994964096 C-89.38295317626424 40.98924317820893, -90.18369886850101 40.69456136145376, -91.19911471225278 40.32087894455194 M-88.58220748402748 41.283924994964096 C-89.53151614961209 40.934570630715854, -90.48082481519668 40.585216266467604, -91.19911471225278 40.32087894455194 M-91.19911471225278 40.32087894455194 C-92.03287551044603 39.95179777182712, -92.86663630863929 39.58271659910229, -93.74894265161377 39.192145753755234 M-91.19911471225278 40.32087894455194 C-92.18383932886286 39.884970567596554, -93.16856394547294 39.44906219064116, -93.74894265161377 39.192145753755234 M-93.74894265161377 39.192145753755234 C-94.32697025615334 38.89058912271129, -94.90499786069293 38.58903249166734, -96.22121351217127 37.90236362936745 M-93.74894265161377 39.192145753755234 C-94.58692960012073 38.75496849947542, -95.42491654862768 38.3177912451956, -96.22121351217127 37.90236362936745 M-96.22121351217127 37.90236362936745 C-96.88833446986712 37.49795098437432, -97.55545542756295 37.0935383393812, -98.60576820265884 36.456832562795086 M-96.22121351217127 37.90236362936745 C-96.87305051339904 37.50721620860377, -97.5248875146268 37.11206878784009, -98.60576820265884 36.456832562795086 M-98.60576820265884 36.456832562795086 C-99.38429109256164 35.91376869651162, -100.16281398246446 35.37070483022815, -100.89280807636788 34.86149255125612 M-98.60576820265884 36.456832562795086 C-99.40501197691965 35.89931470457609, -100.20425575118048 35.3417968463571, -100.89280807636788 34.86149255125612 M-100.89280807636788 34.86149255125612 C-101.44678956932245 34.419707052691514, -102.00077106227701 33.9779215541269, -103.07293519588879 33.12289918905736 M-100.89280807636788 34.86149255125612 C-101.32943627723587 34.5132931802283, -101.76606447810384 34.16509380920049, -103.07293519588879 33.12289918905736 M-103.07293519588879 33.12289918905736 C-103.68235262168278 32.56944240725275, -104.29177004747679 32.015985625448145, -105.13719095125164 31.24819672925117 M-103.07293519588879 33.12289918905736 C-103.51690410863903 32.71969836927132, -103.96087302138926 32.316497549485284, -105.13719095125164 31.24819672925117 M-105.13719095125164 31.24819672925117 C-105.80295247540118 30.560743295529104, -106.46871399955072 29.873289861807038, -107.07709287277623 29.245088726367282 M-105.13719095125164 31.24819672925117 C-105.86702730108685 30.494580777367624, -106.59686365092206 29.740964825484077, -107.07709287277623 29.245088726367282 M-107.07709287277623 29.245088726367282 C-107.76814718242247 28.43333701215264, -108.45920149206871 27.621585297938, -108.88466948735929 27.121806380854917 M-107.07709287277623 29.245088726367282 C-107.78016345495723 28.41922201468803, -108.48323403713823 27.593355303008785, -108.88466948735929 27.121806380854917 M-108.88466948735929 27.121806380854917 C-109.29694355130829 26.56939669410315, -109.70921761525727 26.01698700735139, -110.55249307496757 24.887074715314395 M-108.88466948735929 27.121806380854917 C-109.45216732938793 26.361410972653516, -110.01966517141658 25.601015564452112, -110.55249307496757 24.887074715314395 M-110.55249307496757 24.887074715314395 C-110.88411814508099 24.37760955382014, -111.21574321519442 23.86814439232589, -112.07371019073254 22.550076721507864 M-110.55249307496757 24.887074715314395 C-110.88790866504651 24.371786297255973, -111.22332425512546 23.85649787919755, -112.07371019073254 22.550076721507864 M-112.07371019073254 22.550076721507864 C-112.56895680193448 21.670716214161473, -113.0642034131364 20.791355706815082, -113.44206982722551 20.120415625476337 M-112.07371019073254 22.550076721507864 C-112.55446146504308 21.696454152624177, -113.0352127393536 20.842831583740487, -113.44206982722551 20.120415625476337 M-113.44206982722551 20.120415625476337 C-113.87533124011331 19.220739031305648, -114.30859265300111 18.321062437134962, -114.65194910118784 17.608075425824147 M-113.44206982722551 20.120415625476337 C-113.85641496269506 19.260019086108148, -114.27076009816462 18.39962254673996, -114.65194910118784 17.608075425824147 M-114.65194910118784 17.608075425824147 C-115.01890427972425 16.70168904024345, -115.38585945826068 15.795302654662757, -115.69837635916457 15.023379867326907 M-114.65194910118784 17.608075425824147 C-115.00472662558266 16.736708120079495, -115.35750414997749 15.86534081433484, -115.69837635916457 15.023379867326907 M-115.69837635916457 15.023379867326907 C-116.018370342722 14.059608972969434, -116.33836432627943 13.095838078611962, -116.57705160709475 12.37695001844991 M-115.69837635916457 15.023379867326907 C-116.02625002846004 14.035876614983891, -116.35412369775551 13.048373362640875, -116.57705160709475 12.37695001844991 M-116.57705160709475 12.37695001844991 C-116.75949722240098 11.681205814857355, -116.94194283770722 10.9854616112648, -117.28436417990932 9.679660627099686 M-116.57705160709475 12.37695001844991 C-116.75774268411185 11.687896629775546, -116.93843376112893 10.998843241101182, -117.28436417990932 9.679660627099686 M-117.28436417990932 9.679660627099686 C-117.39607390548078 9.106054796149161, -117.50778363105222 8.532448965198634, -117.81740757852859 6.942595433952017 M-117.28436417990932 9.679660627099686 C-117.40307786219526 9.070090958707002, -117.52179154448122 8.460521290314318, -117.81740757852859 6.942595433952017 M-117.81740757852859 6.942595433952017 C-117.94593086570453 5.945794198409084, -118.07445415288046 4.948992962866151, -118.17399141329011 4.17700162698419 M-117.81740757852859 6.942595433952017 C-117.89542820181717 6.3374828866404345, -117.97344882510576 5.732370339328852, -118.17399141329011 4.17700162698419 M-118.17399141329011 4.17700162698419 C-118.22252125112938 3.4211102300575154, -118.27105108896866 2.665218833130841, -118.35265040472993 1.394243624367005 M-118.17399141329011 4.17700162698419 C-118.2106884201583 3.6054161237213664, -118.24738542702649 3.0338306204585432, -118.35265040472993 1.394243624367005 M-118.35265040472993 1.394243624367005 C-118.35265040472993 0.8201482299943379, -118.35265040472993 0.24605283562167068, -118.35265040472993 -1.394243624366984 M-118.35265040472993 1.394243624367005 C-118.35265040472993 0.4367545886217221, -118.35265040472993 -0.5207344471235609, -118.35265040472993 -1.394243624366984 M-118.35265040472993 -1.394243624366984 C-118.28257046403299 -2.4857952682318576, -118.21249052333604 -3.577346912096731, -118.17399141329012 -4.177001626984129 M-118.35265040472993 -1.394243624366984 C-118.30523130611887 -2.1328343612415863, -118.25781220750783 -2.8714250981161884, -118.17399141329012 -4.177001626984129 M-118.17399141329012 -4.177001626984129 C-118.0741345096608 -4.951472052557268, -117.97427760603146 -5.725942478130407, -117.81740757852859 -6.942595433951997 M-118.17399141329012 -4.177001626984129 C-118.09681869116086 -4.775538020341066, -118.01964596903159 -5.374074413698002, -117.81740757852859 -6.942595433951997 M-117.81740757852859 -6.942595433951997 C-117.67555974181225 -7.670954095939439, -117.53371190509593 -8.39931275792688, -117.28436417990932 -9.679660627099667 M-117.81740757852859 -6.942595433951997 C-117.64915093630233 -7.8065577307298675, -117.48089429407608 -8.670520027507738, -117.28436417990932 -9.679660627099667 M-117.28436417990932 -9.679660627099667 C-117.0242191968237 -10.671706195154037, -116.76407421373807 -11.663751763208408, -116.57705160709475 -12.37695001844989 M-117.28436417990932 -9.679660627099667 C-117.06563826846842 -10.513757323833515, -116.8469123570275 -11.347854020567363, -116.57705160709475 -12.37695001844989 M-116.57705160709475 -12.37695001844989 C-116.26793870511993 -13.30794882874546, -115.95882580314512 -14.238947639041031, -115.6983763591646 -15.023379867326852 M-116.57705160709475 -12.37695001844989 C-116.3351549109682 -13.105504326178483, -116.09325821484167 -13.834058633907077, -115.6983763591646 -15.023379867326852 M-115.6983763591646 -15.023379867326852 C-115.40711451867683 -15.742802244496238, -115.11585267818907 -16.462224621665623, -114.65194910118785 -17.608075425824126 M-115.6983763591646 -15.023379867326852 C-115.48773603090021 -15.543665550593609, -115.2770957026358 -16.063951233860365, -114.65194910118785 -17.608075425824126 M-114.65194910118785 -17.608075425824126 C-114.1976792424655 -18.55137650727897, -113.74340938374316 -19.49467758873381, -113.44206982722551 -20.12041562547632 M-114.65194910118785 -17.608075425824126 C-114.37322440026536 -18.186853231042917, -114.09449969934286 -18.76563103626171, -113.44206982722551 -20.12041562547632 M-113.44206982722551 -20.12041562547632 C-113.06526823833349 -20.789465001852406, -112.68846664944147 -21.458514378228493, -112.07371019073256 -22.55007672150785 M-113.44206982722551 -20.12041562547632 C-113.07834890875242 -20.766238946962083, -112.71462799027933 -21.412062268447844, -112.07371019073256 -22.55007672150785 M-112.07371019073256 -22.55007672150785 C-111.71643382279403 -23.098949164799386, -111.35915745485549 -23.647821608090922, -110.55249307496757 -24.88707471531438 M-112.07371019073256 -22.55007672150785 C-111.6567435958945 -23.190649382387257, -111.23977700105645 -23.831222043266663, -110.55249307496757 -24.88707471531438 M-110.55249307496757 -24.88707471531438 C-109.92882927854286 -25.722727385582804, -109.30516548211816 -26.558380055851227, -108.8846694873593 -27.121806380854903 M-110.55249307496757 -24.88707471531438 C-110.06565991976984 -25.539386791866512, -109.57882676457211 -26.191698868418644, -108.8846694873593 -27.121806380854903 M-108.8846694873593 -27.121806380854903 C-108.49160097122609 -27.58352702613714, -108.0985324550929 -28.04524767141938, -107.07709287277623 -29.245088726367264 M-108.8846694873593 -27.121806380854903 C-108.18258614888913 -27.946513419895645, -107.48050281041897 -28.771220458936384, -107.07709287277623 -29.245088726367264 M-107.07709287277623 -29.245088726367264 C-106.59291873845605 -29.745038271488557, -106.10874460413586 -30.244987816609854, -105.13719095125168 -31.248196729251127 M-107.07709287277623 -29.245088726367264 C-106.56263450301347 -29.776309230964998, -106.04817613325069 -30.30752973556273, -105.13719095125168 -31.248196729251127 M-105.13719095125168 -31.248196729251127 C-104.5770160649242 -31.75693273959845, -104.0168411785967 -32.265668749945775, -103.07293519588883 -33.12289918905732 M-105.13719095125168 -31.248196729251127 C-104.34075067574985 -31.971502714806956, -103.54431040024801 -32.694808700362785, -103.07293519588883 -33.12289918905732 M-103.07293519588883 -33.12289918905732 C-102.53439982040221 -33.552366819979696, -101.99586444491558 -33.98183445090207, -100.89280807636791 -34.861492551256106 M-103.07293519588883 -33.12289918905732 C-102.34181336242976 -33.705949395271844, -101.6106915289707 -34.28899960148636, -100.89280807636791 -34.861492551256106 M-100.89280807636791 -34.861492551256106 C-100.10081815722496 -35.4139504341592, -99.30882823808201 -35.96640831706228, -98.6057682026589 -36.45683256279505 M-100.89280807636791 -34.861492551256106 C-100.2783007684921 -35.29014624763766, -99.66379346061629 -35.7187999440192, -98.6057682026589 -36.45683256279505 M-98.6057682026589 -36.45683256279505 C-97.6676464809287 -37.02552746352307, -96.72952475919851 -37.59422236425109, -96.2212135121713 -37.902363629367436 M-98.6057682026589 -36.45683256279505 C-98.08022870478104 -36.775417694821506, -97.55468920690318 -37.09400282684796, -96.2212135121713 -37.902363629367436 M-96.2212135121713 -37.902363629367436 C-95.42263901164165 -38.31897943478238, -94.62406451111198 -38.73559524019732, -93.74894265161379 -39.19214575375523 M-96.2212135121713 -37.902363629367436 C-95.47764901935336 -38.29028074899477, -94.73408452653543 -38.67819786862209, -93.74894265161379 -39.19214575375523 M-93.74894265161379 -39.19214575375523 C-93.19996099689074 -39.43516364733894, -92.65097934216767 -39.67818154092266, -91.1991147122528 -40.320878944551936 M-93.74894265161379 -39.19214575375523 C-93.09990627120858 -39.47945490638045, -92.45086989080339 -39.76676405900566, -91.1991147122528 -40.320878944551936 M-91.1991147122528 -40.320878944551936 C-90.65396252588653 -40.521499988466296, -90.10881033952025 -40.722121032380656, -88.58220748402753 -41.283924994964075 M-91.1991147122528 -40.320878944551936 C-90.45625589010976 -40.59425785801225, -89.71339706796672 -40.86763677147256, -88.58220748402753 -41.283924994964075 M-88.58220748402753 -41.283924994964075 C-87.73346134109212 -41.535828395027885, -86.88471519815673 -41.787731795091695, -85.90897440006361 -42.07732654219777 M-88.58220748402753 -41.283924994964075 C-87.97314794627013 -41.46469066875172, -87.36408840851273 -41.64545634253936, -85.90897440006361 -42.07732654219777 M-85.90897440006361 -42.07732654219777 C-85.14623050718507 -42.25141785837823, -84.38348661430652 -42.425509174558705, -83.19040034850971 -42.69782332911134 M-85.90897440006361 -42.07732654219777 C-85.08832311738534 -42.26463484221899, -84.26767183470707 -42.45194314224021, -83.19040034850971 -42.69782332911134 M-83.19040034850971 -42.69782332911134 C-82.33534875457566 -42.83606143979445, -81.48029716064161 -42.97429955047756, -80.43765653327604 -43.1428656013112 M-83.19040034850971 -42.69782332911134 C-82.52938022662136 -42.80469193613064, -81.868360104733 -42.911560543149946, -80.43765653327604 -43.1428656013112 M-80.43765653327604 -43.1428656013112 C-79.78135455455217 -43.20617826388008, -79.12505257582828 -43.26949092644897, -77.66205456916101 -43.41062458463963 M-80.43765653327604 -43.1428656013112 C-79.76904594404371 -43.20736566073256, -79.10043535481137 -43.271865720153926, -77.66205456916101 -43.41062458463963 M-77.66205456916101 -43.41062458463963 C-76.91364263521324 -43.43462469866588, -76.16523070126547 -43.45862481269212, -74.87500000000001 -43.5 M-77.66205456916101 -43.41062458463963 C-77.06614135721294 -43.4297343614721, -76.47022814526488 -43.44884413830457, -74.87500000000001 -43.5 M-74.87500000000001 -43.5 C-74.87500000000001 -43.5, -74.875 -43.5, -74.875 -43.5 M-74.87500000000001 -43.5 C-74.87500000000001 -43.5, -74.875 -43.5, -74.875 -43.5" stroke="#2dd4bf" stroke-width="2" fill="none" stroke-dasharray="0 0" style="fill:#134e4a !important;stroke:#2dd4bf !important;stroke-width:2px !important"/></g><g class="label" style="color:#ccfbf1 !important" transform="translate(-100, -36)"><rect/><foreignObject width="200" height="72"><div style="color: rgb(204, 251, 241) !important; display: table; white-space: break-spaces; line-height: 1.5; max-width: 200px; text-align: center; width: 200px;" xmlns="http://www.w3.org/1999/xhtml"><span style="color:#ccfbf1 !important" class="nodeLabel"><p>Unified StreamEvent<br />text · tools · reasoning · json · usage · errors</p></span></div></foreignObject></g></g></g></g></g><defs><filter id="my-svg-drop-shadow" height="130%" width="130%"><feDropShadow dx="4" dy="4" stdDeviation="0" flood-opacity="0.06" flood-color="#000000"/></filter></defs><defs><filter id="my-svg-drop-shadow-small" height="150%" width="150%"><feDropShadow dx="2" dy="2" stdDeviation="0" flood-opacity="0.06" flood-color="#000000"/></filter></defs></svg>