<svg id="my-svg" width="100%" xmlns="http://www.w3.org/2000/svg" xmlns:xlink="http://www.w3.org/1999/xlink" class="flowchart" style="max-width: 2138.12px; background-color: transparent;" viewBox="0 0 2138.125 581" role="graphics-document document" aria-roledescription="flowchart-v2"><style>#my-svg{font-family:"trebuchet ms",verdana,arial,sans-serif;font-size:16px;fill:#333;}@keyframes edge-animation-frame{from{stroke-dashoffset:0;}}@keyframes dash{to{stroke-dashoffset:0;}}#my-svg .edge-animation-slow{stroke-dasharray:9,5!important;stroke-dashoffset:900;animation:dash 50s linear infinite;stroke-linecap:round;}#my-svg .edge-animation-fast{stroke-dasharray:9,5!important;stroke-dashoffset:900;animation:dash 20s linear infinite;stroke-linecap:round;}#my-svg .error-icon{fill:#552222;}#my-svg .error-text{fill:#552222;stroke:#552222;}#my-svg .edge-thickness-normal{stroke-width:1px;}#my-svg .edge-thickness-thick{stroke-width:3.5px;}#my-svg .edge-pattern-solid{stroke-dasharray:0;}#my-svg .edge-thickness-invisible{stroke-width:0;fill:none;}#my-svg .edge-pattern-dashed{stroke-dasharray:3;}#my-svg .edge-pattern-dotted{stroke-dasharray:2;}#my-svg .marker{fill:#333333;stroke:#333333;}#my-svg .marker.cross{stroke:#333333;}#my-svg svg{font-family:"trebuchet ms",verdana,arial,sans-serif;font-size:16px;}#my-svg p{margin:0;}#my-svg .label{font-family:"trebuchet ms",verdana,arial,sans-serif;color:#333;}#my-svg .cluster-label text{fill:#333;}#my-svg .cluster-label span{color:#333;}#my-svg .cluster-label span p{background-color:transparent;}#my-svg .label text,#my-svg span{fill:#333;color:#333;}#my-svg .node rect,#my-svg .node circle,#my-svg .node ellipse,#my-svg .node polygon,#my-svg .node path{fill:#ECECFF;stroke:#9370DB;stroke-width:1px;}#my-svg .rough-node .label text,#my-svg .node .label text,#my-svg .image-shape .label,#my-svg .icon-shape .label{text-anchor:middle;}#my-svg .node .katex path{fill:#000;stroke:#000;stroke-width:1px;}#my-svg .rough-node .label,#my-svg .node .label,#my-svg .image-shape .label,#my-svg .icon-shape .label{text-align:center;}#my-svg .node.clickable{cursor:pointer;}#my-svg .root .anchor path{fill:#333333!important;stroke-width:0;stroke:#333333;}#my-svg .arrowheadPath{fill:#333333;}#my-svg .edgePath .path{stroke:#333333;stroke-width:1px;}#my-svg .flowchart-link{stroke:#333333;fill:none;}#my-svg .edgeLabel{background-color:rgba(232,232,232, 0.8);text-align:center;}#my-svg .edgeLabel p{background-color:rgba(232,232,232, 0.8);}#my-svg .edgeLabel rect{opacity:0.5;background-color:rgba(232,232,232, 0.8);fill:rgba(232,232,232, 0.8);}#my-svg .labelBkg{background-color:rgba(232, 232, 232, 0.5);}#my-svg .cluster rect{fill:#ffffde;stroke:#aaaa33;stroke-width:1px;}#my-svg .cluster text{fill:#333;}#my-svg .cluster span{color:#333;}#my-svg div.mermaidTooltip{position:absolute;text-align:center;max-width:200px;padding:2px;font-family:"trebuchet ms",verdana,arial,sans-serif;font-size:12px;background:hsl(80, 100%, 96.2745098039%);border:1px solid #aaaa33;border-radius:2px;pointer-events:none;z-index:100;}#my-svg .flowchartTitleText{text-anchor:middle;font-size:18px;fill:#333;}#my-svg rect.text{fill:none;stroke-width:0;}#my-svg .icon-shape,#my-svg .image-shape{background-color:rgba(232,232,232, 0.8);text-align:center;}#my-svg .icon-shape p,#my-svg .image-shape p{background-color:rgba(232,232,232, 0.8);padding:2px;}#my-svg .icon-shape .label rect,#my-svg .image-shape .label rect{opacity:0.5;background-color:rgba(232,232,232, 0.8);fill:rgba(232,232,232, 0.8);}#my-svg .label-icon{display:inline-block;height:1em;overflow:visible;vertical-align:-0.125em;}#my-svg .node .label-icon path{fill:currentColor;stroke:revert;stroke-width:revert;}#my-svg .node .neo-node{stroke:#9370DB;}#my-svg [data-look="neo"].node rect,#my-svg [data-look="neo"].cluster rect,#my-svg [data-look="neo"].node polygon{stroke:#9370DB;filter:drop-shadow(1px 2px 2px rgba(185, 185, 185, 1));}#my-svg [data-look="neo"].node path{stroke:#9370DB;stroke-width:1px;}#my-svg [data-look="neo"].node .outer-path{filter:drop-shadow(1px 2px 2px rgba(185, 185, 185, 1));}#my-svg [data-look="neo"].node .neo-line path{stroke:#9370DB;filter:none;}#my-svg [data-look="neo"].node circle{stroke:#9370DB;filter:drop-shadow(1px 2px 2px rgba(185, 185, 185, 1));}#my-svg [data-look="neo"].node circle .state-start{fill:#000000;}#my-svg [data-look="neo"].icon-shape .icon{fill:#9370DB;filter:drop-shadow(1px 2px 2px rgba(185, 185, 185, 1));}#my-svg [data-look="neo"].icon-shape .icon-neo path{stroke:#9370DB;filter:drop-shadow(1px 2px 2px rgba(185, 185, 185, 1));}#my-svg :root{--mermaid-font-family:"trebuchet ms",verdana,arial,sans-serif;}#my-svg .dedicated&gt;*{fill:rgb(30, 27, 75)!important;stroke:rgb(129, 140, 248)!important;stroke-width:2px!important;color:rgb(237, 233, 254)!important;}#my-svg .dedicated span{fill:rgb(30, 27, 75)!important;stroke:rgb(129, 140, 248)!important;stroke-width:2px!important;color:rgb(237, 233, 254)!important;}#my-svg .dedicated tspan{fill:rgb(237, 233, 254)!important;}#my-svg .compat&gt;*{fill:rgb(49, 46, 129)!important;stroke:rgb(165, 180, 252)!important;stroke-width:2px!important;color:rgb(238, 242, 255)!important;}#my-svg .compat span{fill:rgb(49, 46, 129)!important;stroke:rgb(165, 180, 252)!important;stroke-width:2px!important;color:rgb(238, 242, 255)!important;}#my-svg .compat tspan{fill:rgb(238, 242, 255)!important;}#my-svg .presets&gt;*{fill:rgb(67, 56, 202)!important;stroke:rgb(199, 210, 254)!important;stroke-width:1px!important;color:rgb(224, 231, 255)!important;}#my-svg .presets span{fill:rgb(67, 56, 202)!important;stroke:rgb(199, 210, 254)!important;stroke-width:1px!important;color:rgb(224, 231, 255)!important;}#my-svg .presets tspan{fill:rgb(224, 231, 255)!important;}#my-svg .out&gt;*{fill:rgb(19, 78, 74)!important;stroke:rgb(45, 212, 191)!important;stroke-width:2px!important;color:rgb(204, 251, 241)!important;}#my-svg .out span{fill:rgb(19, 78, 74)!important;stroke:rgb(45, 212, 191)!important;stroke-width:2px!important;color:rgb(204, 251, 241)!important;}#my-svg .out tspan{fill:rgb(204, 251, 241)!important;}</style><g><marker id="my-svg_flowchart-v2-pointEnd" class="marker flowchart-v2" viewBox="0 0 10 10" refX="5" refY="5" markerUnits="userSpaceOnUse" markerWidth="8" markerHeight="8" orient="auto"><path d="M 0 0 L 10 5 L 0 10 z" class="arrowMarkerPath" style="stroke-width: 1; stroke-dasharray: 1, 0;"/></marker><marker id="my-svg_flowchart-v2-pointStart" class="marker flowchart-v2" viewBox="0 0 10 10" refX="4.5" refY="5" markerUnits="userSpaceOnUse" markerWidth="8" markerHeight="8" orient="auto"><path d="M 0 5 L 10 10 L 10 0 z" class="arrowMarkerPath" style="stroke-width: 1; stroke-dasharray: 1, 0;"/></marker><marker id="my-svg_flowchart-v2-pointEnd-margin" class="marker flowchart-v2" viewBox="0 0 11.5 14" refX="11.5" refY="7" markerUnits="userSpaceOnUse" markerWidth="10.5" markerHeight="14" orient="auto"><path d="M 0 0 L 11.5 7 L 0 14 z" class="arrowMarkerPath" style="stroke-width: 0; stroke-dasharray: 1, 0;"/></marker><marker id="my-svg_flowchart-v2-pointStart-margin" class="marker flowchart-v2" viewBox="0 0 11.5 14" refX="1" refY="7" markerUnits="userSpaceOnUse" markerWidth="11.5" markerHeight="14" orient="auto"><polygon points="0,7 11.5,14 11.5,0" class="arrowMarkerPath" style="stroke-width: 0; stroke-dasharray: 1, 0;"/></marker><marker id="my-svg_flowchart-v2-circleEnd" class="marker flowchart-v2" viewBox="0 0 10 10" refX="11" refY="5" markerUnits="userSpaceOnUse" markerWidth="11" markerHeight="11" orient="auto"><circle cx="5" cy="5" r="5" class="arrowMarkerPath" style="stroke-width: 1; stroke-dasharray: 1, 0;"/></marker><marker id="my-svg_flowchart-v2-circleStart" class="marker flowchart-v2" viewBox="0 0 10 10" refX="-1" refY="5" markerUnits="userSpaceOnUse" markerWidth="11" markerHeight="11" orient="auto"><circle cx="5" cy="5" r="5" class="arrowMarkerPath" style="stroke-width: 1; stroke-dasharray: 1, 0;"/></marker><marker id="my-svg_flowchart-v2-circleEnd-margin" class="marker flowchart-v2" viewBox="0 0 10 10" refY="5" refX="12.25" markerUnits="userSpaceOnUse" markerWidth="14" markerHeight="14" orient="auto"><circle cx="5" cy="5" r="5" class="arrowMarkerPath" style="stroke-width: 0; stroke-dasharray: 1, 0;"/></marker><marker id="my-svg_flowchart-v2-circleStart-margin" class="marker flowchart-v2" viewBox="0 0 10 10" refX="-2" refY="5" markerUnits="userSpaceOnUse" markerWidth="14" markerHeight="14" orient="auto"><circle cx="5" cy="5" r="5" class="arrowMarkerPath" style="stroke-width: 0; stroke-dasharray: 1, 0;"/></marker><marker id="my-svg_flowchart-v2-crossEnd" class="marker cross flowchart-v2" viewBox="0 0 11 11" refX="12" refY="5.2" markerUnits="userSpaceOnUse" markerWidth="11" markerHeight="11" orient="auto"><path d="M 1,1 l 9,9 M 10,1 l -9,9" class="arrowMarkerPath" style="stroke-width: 2; stroke-dasharray: 1, 0;"/></marker><marker id="my-svg_flowchart-v2-crossStart" class="marker cross flowchart-v2" viewBox="0 0 11 11" refX="-1" refY="5.2" markerUnits="userSpaceOnUse" markerWidth="11" markerHeight="11" orient="auto"><path d="M 1,1 l 9,9 M 10,1 l -9,9" class="arrowMarkerPath" style="stroke-width: 2; stroke-dasharray: 1, 0;"/></marker><marker id="my-svg_flowchart-v2-crossEnd-margin" class="marker cross flowchart-v2" viewBox="0 0 15 15" refX="17.7" refY="7.5" markerUnits="userSpaceOnUse" markerWidth="12" markerHeight="12" orient="auto"><path d="M 1,1 L 14,14 M 1,14 L 14,1" class="arrowMarkerPath" style="stroke-width: 2.5;"/></marker><marker id="my-svg_flowchart-v2-crossStart-margin" class="marker cross flowchart-v2" viewBox="0 0 15 15" refX="-3.5" refY="7.5" markerUnits="userSpaceOnUse" markerWidth="12" markerHeight="12" orient="auto"><path d="M 1,1 L 14,14 M 1,14 L 14,1" class="arrowMarkerPath" style="stroke-width: 2.5; stroke-dasharray: 1, 0;"/></marker><g class="root"><g class="clusters"><g class="cluster" id="my-svg-BUILTIN" data-look="classic"><rect style="" x="8" y="8" width="2122.125" height="428"/><g class="cluster-label" transform="translate(958.7265625, 8)"><foreignObject width="220.671875" height="24"><div xmlns="http://www.w3.org/1999/xhtml" style="display: table-cell; white-space: nowrap; line-height: 1.5;"><span class="nodeLabel"><p>Built-in adapters · stable 1.5.5</p></span></div></foreignObject></g></g></g><g class="edgePaths"><path d="M879.063,310.5L879.063,331.417C879.063,352.333,879.063,394.167,879.063,419.25C879.063,444.333,879.063,452.667,946.265,465.593C1013.467,478.519,1147.871,496.038,1215.073,504.797L1282.275,513.556" id="my-svg-L_DEDICATED_UNIFIED_0" class="edge-thickness-normal edge-pattern-solid edge-thickness-normal edge-pattern-solid flowchart-link" style=";" data-edge="true" data-et="edge" data-id="L_DEDICATED_UNIFIED_0" data-points="W3sieCI6ODc5LjA2MjUsInkiOjMxMC41fSx7IngiOjg3OS4wNjI1LCJ5Ijo0MzZ9LHsieCI6ODc5LjA2MjUsInkiOjQ2MX0seyJ4IjoxMjg2LjI0MTA5NjQ5NjU4MiwieSI6NTE0LjA3MzQwNjg4MTE2MjN9XQ==" data-look="classic" marker-end="url(#my-svg_flowchart-v2-pointEnd)"/><path d="M1930.125,411L1930.125,415.167C1930.125,419.333,1930.125,427.667,1930.125,436C1930.125,444.333,1930.125,452.667,1862.923,465.593C1795.721,478.519,1661.317,496.038,1594.115,504.797L1526.913,513.556" id="my-svg-L_COMPAT_UNIFIED_0" class="edge-thickness-normal edge-pattern-solid edge-thickness-normal edge-pattern-solid flowchart-link" style=";" data-edge="true" data-et="edge" data-id="L_COMPAT_UNIFIED_0" data-points="W3sieCI6MTkzMC4xMjUsInkiOjQxMX0seyJ4IjoxOTMwLjEyNSwieSI6NDM2fSx7IngiOjE5MzAuMTI1LCJ5Ijo0NjF9LHsieCI6MTUyMi45NDY0MDM1MDM0MTgsInkiOjUxNC4wNzM0MDY4ODExNjIzfV0=" data-look="classic" marker-end="url(#my-svg_flowchart-v2-pointEnd)"/></g><g class="edgeLabels"><g class="edgeLabel"><g class="label" data-id="L_DEDICATED_UNIFIED_0" transform="translate(0, 0)"><foreignObject width="0" height="0"><div xmlns="http://www.w3.org/1999/xhtml" class="labelBkg" style="display: table-cell; white-space: nowrap; line-height: 1.5; max-width: 200px; text-align: center;"><span class="edgeLabel"></span></div></foreignObject></g></g><g class="edgeLabel"><g class="label" data-id="L_COMPAT_UNIFIED_0" transform="translate(0, 0)"><foreignObject width="0" height="0"><div xmlns="http://www.w3.org/1999/xhtml" class="labelBkg" style="display: table-cell; white-space: nowrap; line-height: 1.5; max-width: 200px; text-align: center;"><span class="edgeLabel"></span></div></foreignObject></g></g></g><g class="nodes"><g class="root" transform="translate(1757.125, 25)"><g class="clusters"><g class="cluster" id="my-svg-COMPAT" data-look="classic"><rect style="" x="8" y="8" width="330" height="378"/><g class="cluster-label" transform="translate(79.5390625, 8)"><foreignObject width="186.921875" height="24"><div xmlns="http://www.w3.org/1999/xhtml" style="display: table-cell; white-space: nowrap; line-height: 1.5;"><span class="nodeLabel"><p>openaiCompatibleAdapter</p></span></div></foreignObject></g></g></g><g class="edgePaths"><path d="M173,123.5L173,129.75C173,136,173,148.5,173,160.333C173,172.167,173,183.333,173,188.917L173,194.5" id="my-svg-L_AO_PRESETS_0" class="edge-thickness-normal edge-pattern-solid edge-thickness-normal edge-pattern-solid flowchart-link" style=";" data-edge="true" data-et="edge" data-id="L_AO_PRESETS_0" data-points="W3sieCI6MTczLCJ5IjoxMjMuNX0seyJ4IjoxNzMsInkiOjE2MX0seyJ4IjoxNzMsInkiOjE5OC41fV0=" data-look="classic" marker-end="url(#my-svg_flowchart-v2-pointEnd)"/></g><g class="edgeLabels"><g class="edgeLabel"><g class="label" data-id="L_AO_PRESETS_0" transform="translate(0, 0)"><foreignObject width="0" height="0"><div xmlns="http://www.w3.org/1999/xhtml" class="labelBkg" style="display: table-cell; white-space: nowrap; line-height: 1.5; max-width: 200px; text-align: center;"><span class="edgeLabel"></span></div></foreignObject></g></g></g><g class="nodes"><g class="node default compat" id="my-svg-flowchart-AO-6" data-look="classic" transform="translate(173, 84.5)"><rect class="basic label-container" style="fill:#312e81 !important;stroke:#a5b4fc !important;stroke-width:2px !important" x="-130" y="-39" width="260" height="78"/><g class="label" style="color:#eef2ff !important" transform="translate(-100, -24)"><rect/><foreignObject width="200" height="48"><div style="color: rgb(238, 242, 255) !important; display: table; white-space: break-spaces; line-height: 1.5; max-width: 200px; text-align: center; width: 200px;" xmlns="http://www.w3.org/1999/xhtml"><span style="color:#eef2ff !important" class="nodeLabel"><p>Host preset via provider option</p></span></div></foreignObject></g></g><g class="node default presets" id="my-svg-flowchart-PRESETS-7" data-look="classic" transform="translate(173, 273.5)"><rect class="basic label-container" style="fill:#4338ca !important;stroke:#c7d2fe !important;stroke-width:1px !important" x="-130" y="-75" width="260" height="150"/><g class="label" style="color:#e0e7ff !important" transform="translate(-100, -60)"><rect/><foreignObject width="200" height="120"><div style="color: rgb(224, 231, 255) !important; display: table; white-space: break-spaces; line-height: 1.5; max-width: 200px; text-align: center; width: 200px;" xmlns="http://www.w3.org/1999/xhtml"><span style="color:#e0e7ff !important" class="nodeLabel"><p>generic · groq · deepseek · mistral · ollama · lmstudio<br />together · fireworks · openrouter · perplexity · xai · azure · cloudflare</p></span></div></foreignObject></g></g></g></g><g class="root" transform="translate(35, 125.5)"><g class="clusters"><g class="cluster" id="my-svg-DEDICATED" data-look="classic"><rect style="" x="8" y="8" width="1672.125" height="177"/><g class="cluster-label" transform="translate(779.765625, 8)"><foreignObject width="128.59375" height="24"><div xmlns="http://www.w3.org/1999/xhtml" style="display: table-cell; white-space: nowrap; line-height: 1.5;"><span class="nodeLabel"><p>Dedicated parsers</p></span></div></foreignObject></g></g></g><g class="edgePaths"/><g class="edgeLabels"/><g class="nodes"><g class="node default dedicated" id="my-svg-flowchart-AC-0" data-look="classic" transform="translate(165.0078125, 96.5)"><rect class="basic label-container" style="fill:#1e1b4b !important;stroke:#818cf8 !important;stroke-width:2px !important" x="-122.0078125" y="-39" width="244.015625" height="78"/><g class="label" style="color:#ede9fe !important" transform="translate(-92.0078125, -24)"><rect/><foreignObject width="184.015625" height="48"><div style="color: rgb(237, 233, 254) !important; display: table-cell; white-space: nowrap; line-height: 1.5; max-width: 200px; text-align: center;" xmlns="http://www.w3.org/1999/xhtml"><span style="color:#ede9fe !important" class="nodeLabel"><p>openaiChatAdapter<br /><i>OpenAI Chat Completions</i></p></span></div></foreignObject></g></g><g class="node default dedicated" id="my-svg-flowchart-AA-1" data-look="classic" transform="translate(437.3359375, 96.5)"><rect class="basic label-container" style="fill:#1e1b4b !important;stroke:#818cf8 !important;stroke-width:2px !important" x="-100.3203125" y="-39" width="200.640625" height="78"/><g class="label" style="color:#ede9fe !important" transform="translate(-70.3203125, -24)"><rect/><foreignObject width="140.640625" height="48"><div style="color: rgb(237, 233, 254) !important; display: table-cell; white-space: nowrap; line-height: 1.5; max-width: 200px; text-align: center;" xmlns="http://www.w3.org/1999/xhtml"><span style="color:#ede9fe !important" class="nodeLabel"><p>anthropicAdapter<br /><i>Anthropic Messages</i></p></span></div></foreignObject></g></g><g class="node default dedicated" id="my-svg-flowchart-AR-2" data-look="classic" transform="translate(706, 96.5)"><rect class="basic label-container" style="fill:#1e1b4b !important;stroke:#818cf8 !important;stroke-width:2px !important" x="-118.34375" y="-39" width="236.6875" height="78"/><g class="label" style="color:#ede9fe !important" transform="translate(-88.34375, -24)"><rect/><foreignObject width="176.6875" height="48"><div style="color: rgb(237, 233, 254) !important; display: table-cell; white-space: nowrap; line-height: 1.5; max-width: 200px; text-align: center;" xmlns="http://www.w3.org/1999/xhtml"><span style="color:#ede9fe !important" class="nodeLabel"><p>openaiResponsesAdapter<br /><i>OpenAI Responses API</i></p></span></div></foreignObject></g></g><g class="node default dedicated" id="my-svg-flowchart-AG-3" data-look="classic" transform="translate(980.140625, 96.5)"><rect class="basic label-container" style="fill:#1e1b4b !important;stroke:#818cf8 !important;stroke-width:2px !important" x="-105.796875" y="-39" width="211.59375" height="78"/><g class="label" style="color:#ede9fe !important" transform="translate(-75.796875, -24)"><rect/><foreignObject width="151.59375" height="48"><div style="color: rgb(237, 233, 254) !important; display: table-cell; white-space: nowrap; line-height: 1.5; max-width: 200px; text-align: center;" xmlns="http://www.w3.org/1999/xhtml"><span style="color:#ede9fe !important" class="nodeLabel"><p>geminiAdapter<br /><i>Google AI + Vertex AI</i></p></span></div></foreignObject></g></g><g class="node default dedicated" id="my-svg-flowchart-AB-4" data-look="classic" transform="translate(1265.9375, 96.5)"><rect class="basic label-container" style="fill:#1e1b4b !important;stroke:#818cf8 !important;stroke-width:2px !important" x="-130" y="-51" width="260" height="102"/><g class="label" style="color:#ede9fe !important" transform="translate(-100, -36)"><rect/><foreignObject width="200" height="72"><div style="color: rgb(237, 233, 254) !important; display: table; white-space: break-spaces; line-height: 1.5; max-width: 200px; text-align: center; width: 200px;" xmlns="http://www.w3.org/1999/xhtml"><span style="color:#ede9fe !important" class="nodeLabel"><p>bedrockAdapter<br /><i>AWS Bedrock ConverseStream</i></p></span></div></foreignObject></g></g><g class="node default dedicated" id="my-svg-flowchart-ACO-5" data-look="classic" transform="translate(1545.53125, 96.5)"><rect class="basic label-container" style="fill:#1e1b4b !important;stroke:#818cf8 !important;stroke-width:2px !important" x="-99.59375" y="-39" width="199.1875" height="78"/><g class="label" style="color:#ede9fe !important" transform="translate(-69.59375, -24)"><rect/><foreignObject width="139.1875" height="48"><div style="color: rgb(237, 233, 254) !important; display: table-cell; white-space: nowrap; line-height: 1.5; max-width: 200px; text-align: center;" xmlns="http://www.w3.org/1999/xhtml"><span style="color:#ede9fe !important" class="nodeLabel"><p>cohereAdapter<br /><i>Cohere Chat v2 SSE</i></p></span></div></foreignObject></g></g></g></g><g class="node default out" id="my-svg-flowchart-UNIFIED-10" data-look="classic" transform="translate(1404.59375, 529.5)"><g class="basic label-container outer-path"><path d="M-74.875 -43.5 C-23.534097724717505 -43.5, 27.80680455056499 -43.5, 74.875 -43.5 C74.875 -43.5, 74.875 -43.5, 74.875 -43.5 C75.60756932419676 -43.476507927632696, 76.34013864839353 -43.45301585526539, 77.66205456916101 -43.41062458463963 C78.44017776819979 -43.33555997545842, 79.21830096723856 -43.26049536627721, 80.43765653327601 -43.14286560131121 C81.45317018295007 -42.97868522985788, 82.46868383262412 -42.81450485840455, 83.19040034850968 -42.697823329111344 C83.86766808706597 -42.5432413873709, 84.54493582562225 -42.38865944563045, 85.90897440006356 -42.07732654219778 C86.74606256671504 -41.828883168301076, 87.58315073336651 -41.58043979440437, 88.58220748402749 -41.28392499496409 C89.34207746431879 -41.00428581805579, 90.10194744461009 -40.724646641147494, 91.19911471225277 -40.32087894455194 C92.0876861458962 -39.927534729413054, 92.97625757953963 -39.534190514274165, 93.74894265161377 -39.192145753755234 C94.70258632431955 -38.694630460542555, 95.65622999702532 -38.19711516732988, 96.22121351217129 -37.90236362936744 C96.70309684964124 -37.610243118332335, 97.18498018711118 -37.318122607297234, 98.60576820265887 -36.45683256279507 C99.08543641552167 -36.12223678200425, 99.56510462838447 -35.78764100121342, 100.8928080763679 -34.86149255125611 C101.56066920374948 -34.328891074700294, 102.22853033113108 -33.79628959814447, 103.07293519588879 -33.12289918905735 C103.67708816903553 -32.57422344385719, 104.28124114218228 -32.025547698657036, 105.13719095125165 -31.248196729251152 C105.81959104248108 -30.543562608967346, 106.50199113371049 -29.83892848868354, 107.07709287277622 -29.24508872636729 C107.76610317167216 -28.435738023487467, 108.4551134705681 -27.626387320607645, 108.8846694873593 -27.12180638085491 C109.49410068177335 -26.305224100664066, 110.10353187618738 -25.488641820473227, 110.55249307496757 -24.88707471531439 C111.05706603804286 -24.11191514721883, 111.56163900111814 -23.336755579123267, 112.07371019073256 -22.550076721507846 C112.37588011481323 -22.01354342327986, 112.6780500388939 -21.477010125051873, 113.44206982722551 -20.120415625476333 C113.75763506536062 -19.465137656474322, 114.07320030349574 -18.80985968747231, 114.65194910118784 -17.60807542582414 C115.0668238688811 -16.58332672856382, 115.48169863657436 -15.558578031303497, 115.69837635916457 -15.023379867326902 C116.00443475969965 -14.10158072869913, 116.31049316023473 -13.179781590071359, 116.57705160709475 -12.376950018449923 C116.80664393672613 -11.501414959620337, 117.0362362663575 -10.62587990079075, 117.28436417990932 -9.67966062709968 C117.4533546768931 -8.811930141242158, 117.6223451738769 -7.944199655384637, 117.81740757852859 -6.942595433952013 C117.927508117045 -6.088677399029276, 118.03760865556139 -5.23475936410654, 118.17399141329012 -4.177001626984165 C118.23594913771593 -3.211960057677247, 118.29790686214173 -2.246918488370329, 118.35265040472993 -1.3942436243669998 C118.35265040472993 -0.6070595681749062, 118.35265040472993 0.18012448801718728, 118.35265040472993 1.3942436243669891 C118.31590312501594 1.9666121677827608, 118.27915584530194 2.5389807111985325, 118.17399141329012 4.177001626984135 C118.05999634574047 5.061124860027069, 117.9460012781908 5.945248093070003, 117.81740757852859 6.942595433951983 C117.62508709437951 7.930120473108758, 117.43276661023043 8.917645512265533, 117.28436417990932 9.679660627099672 C117.06409885177476 10.519627786873833, 116.84383352364021 11.359594946647995, 116.57705160709475 12.376950018449895 C116.28416164947296 13.259087905129244, 115.9912716918512 14.141225791808592, 115.69837635916457 15.023379867326874 C115.37870588335824 15.81297212297672, 115.05903540755192 16.602564378626568, 114.65194910118785 17.60807542582413 C114.36782993992799 18.198054943356414, 114.08371077866813 18.7880344608887, 113.44206982722551 20.120415625476323 C112.90871456689909 21.067441898262427, 112.37535930657266 22.014468171048527, 112.07371019073256 22.550076721507835 C111.7119810045993 23.105789889295593, 111.35025181846603 23.66150305708335, 110.5524930749676 24.887074715314366 C110.0278210115358 25.590087481704668, 109.50314894810403 26.29310024809497, 108.8846694873593 27.121806380854903 C108.47344689654015 27.604851835259357, 108.06222430572102 28.087897289663815, 107.07709287277623 29.245088726367264 C106.47012186184969 29.871836128395692, 105.86315085092315 30.49858353042412, 105.13719095125167 31.24819672925114 C104.50345995623213 31.823734451324587, 103.8697289612126 32.39927217339803, 103.07293519588882 33.12289918905732 C102.23433263221513 33.79166241743565, 101.39573006854145 34.460425645813984, 100.89280807636791 34.861492551256106 C100.28918187570343 35.282556058282566, 99.68555567503897 35.703619565309026, 98.60576820265888 36.45683256279506 C97.70725916593484 37.001514021082365, 96.80875012921082 37.546195479369665, 96.22121351217129 37.90236362936744 C95.40774117352203 38.32675162738686, 94.59426883487276 38.75113962540628, 93.74894265161379 39.19214575375523 C92.793155830005 39.61524422727274, 91.83736900839621 40.03834270079025, 91.1991147122528 40.32087894455194 C90.64704172125859 40.5240469085446, 90.09496873026438 40.727214872537246, 88.58220748402752 41.283924994964075 C87.6264852605112 41.5675783342154, 86.67076303699487 41.85123167346673, 85.90897440006361 42.077326542197774 C85.09942344777578 42.2621012642438, 84.28987249548794 42.44687598628983, 83.19040034850971 42.697823329111344 C82.23129208368708 42.85288451537218, 81.27218381886445 43.00794570163303, 80.43765653327604 43.1428656013112 C79.80029567040383 43.2043510372139, 79.1629348075316 43.26583647311659, 77.66205456916101 43.41062458463963 C76.82082329062803 43.43760123438483, 75.97959201209503 43.46457788413003, 74.87500000000001 43.5 C74.87500000000001 43.5, 74.875 43.5, 74.875 43.5 C16.951988148178934 43.5, -40.97102370364213 43.5, -74.87499999999999 43.5 C-75.9457902364582 43.46566184128354, -77.0165804729164 43.43132368256708, -77.66205456916099 43.41062458463963 C-78.71887507934338 43.308674381034955, -79.77569558952578 43.206724177430274, -80.43765653327603 43.1428656013112 C-81.31688443107421 43.00071885330937, -82.19611232887242 42.858572105307545, -83.1904003485097 42.697823329111344 C-84.02965439918196 42.506269068689896, -84.86890844985423 42.314714808268455, -85.90897440006356 42.07732654219778 C-86.68063910622992 41.84830050795831, -87.45230381239628 41.61927447371883, -88.58220748402748 41.283924994964096 C-89.23168986139649 41.044909476343015, -89.88117223876549 40.80589395772194, -91.19911471225278 40.32087894455194 C-92.08122075379991 39.930396766705044, -92.96332679534706 39.53991458885814, -93.74894265161377 39.192145753755234 C-94.33480632641039 38.88650104987743, -94.92067000120701 38.58085634599963, -96.22121351217127 37.90236362936745 C-97.0827647527322 37.38008620430234, -97.94431599329312 36.85780877923723, -98.60576820265884 36.456832562795086 C-99.42396576327194 35.88609336371293, -100.24216332388504 35.315354164630776, -100.89280807636788 34.86149255125612 C-101.39596706190558 34.460236649912744, -101.89912604744326 34.058980748569375, -103.07293519588879 33.12289918905736 C-103.80107757805058 32.46161954316973, -104.52921996021237 31.800339897282104, -105.13719095125164 31.24819672925117 C-105.8422982707644 30.520115531466697, -106.54740559027717 29.792034333682224, -107.07709287277623 29.245088726367282 C-107.79470403648232 28.402141820246136, -108.51231520018841 27.559194914124994, -108.88466948735929 27.121806380854917 C-109.51821645381959 26.272911163114113, -110.15176342027989 25.42401594537331, -110.55249307496757 24.887074715314395 C-111.01969125972181 24.169332843253176, -111.48688944447605 23.451590971191962, -112.07371019073254 22.550076721507864 C-112.57613192564953 21.657976055445324, -113.07855366056651 20.76587538938279, -113.44206982722551 20.120415625476337 C-113.8419185219321 19.29012125552659, -114.24176721663868 18.45982688557684, -114.65194910118784 17.608075425824147 C-115.0321799037192 16.66889799230921, -115.41241070625057 15.729720558794272, -115.69837635916457 15.023379867326907 C-115.88808837830838 14.451997492171177, -116.07780039745218 13.880615117015449, -116.57705160709475 12.37695001844991 C-116.79060506123146 11.562578143174091, -117.00415851536818 10.748206267898272, -117.28436417990932 9.679660627099686 C-117.46821333003403 8.735634097740952, -117.65206248015875 7.791607568382219, -117.81740757852859 6.942595433952017 C-117.9045249248018 6.2669304995227, -117.99164227107504 5.591265565093383, -118.17399141329011 4.17700162698419 C-118.22262268761818 3.419530274866391, -118.27125396194626 2.662058922748592, -118.35265040472993 1.394243624367005 C-118.35265040472993 0.5781374224303014, -118.35265040472993 -0.23796877950640227, -118.35265040472993 -1.394243624366984 C-118.29642930718752 -2.269932599442971, -118.24020820964513 -3.145621574518958, -118.17399141329012 -4.177001626984129 C-118.05236203773815 -5.12033504532844, -117.93073266218616 -6.0636684636727525, -117.81740757852859 -6.942595433951997 C-117.6492578045843 -7.806008984688622, -117.48110803064 -8.669422535425246, -117.28436417990932 -9.679660627099667 C-117.01949299232336 -10.689729261263773, -116.75462180473743 -11.699797895427881, -116.57705160709475 -12.37695001844989 C-116.28788474180288 -13.24787454422575, -115.99871787651104 -14.118799070001609, -115.6983763591646 -15.023379867326852 C-115.41697470682385 -15.718447389139328, -115.1355730544831 -16.413514910951804, -114.65194910118785 -17.608075425824126 C-114.21899150909962 -18.50712112960377, -113.7860339170114 -19.40616683338342, -113.44206982722551 -20.12041562547632 C-112.9795185967812 -20.941722173521253, -112.5169673663369 -21.763028721566183, -112.07371019073256 -22.55007672150785 C-111.6284307906898 -23.23414545423439, -111.18315139064705 -23.918214186960935, -110.55249307496757 -24.88707471531438 C-110.09522280772234 -25.499775215244664, -109.6379525404771 -26.112475715174945, -108.8846694873593 -27.121806380854903 C-108.33245281514132 -27.77047150606094, -107.78023614292334 -28.419136631266976, -107.07709287277623 -29.245088726367264 C-106.35806063589972 -29.98754854458679, -105.6390283990232 -30.730008362806316, -105.13719095125168 -31.248196729251127 C-104.60938376237766 -31.727537253173562, -104.08157657350363 -32.206877777096, -103.07293519588883 -33.12289918905732 C-102.43690462158872 -33.63011664657726, -101.8008740472886 -34.137334104097185, -100.89280807636791 -34.861492551256106 C-100.35315248598937 -35.23793292979019, -99.81349689561083 -35.614373308324275, -98.6057682026589 -36.45683256279505 C-98.12809497666258 -36.74640087951347, -97.65042175066628 -37.035969196231896, -96.2212135121713 -37.902363629367436 C-95.5305592341678 -38.262677523816684, -94.83990495616429 -38.62299141826593, -93.74894265161379 -39.19214575375523 C-92.73712025936142 -39.64004951216051, -91.72529786710903 -40.08795327056579, -91.1991147122528 -40.320878944551936 C-90.21533254282701 -40.68291987688331, -89.23155037340122 -41.044960809214686, -88.58220748402753 -41.283924994964075 C-87.88923032493331 -41.489596978271905, -87.19625316583908 -41.695268961579735, -85.90897440006361 -42.07732654219777 C-85.30953571123452 -42.21414451122, -84.71009702240542 -42.350962480242224, -83.19040034850971 -42.69782332911134 C-82.2863468293205 -42.8439836910541, -81.38229331013127 -42.99014405299686, -80.43765653327604 -43.1428656013112 C-79.71349069775104 -43.21272500852746, -78.98932486222606 -43.28258441574371, -77.66205456916101 -43.41062458463963 C-76.83510982495417 -43.43714309303604, -76.00816508074733 -43.463661601432456, -74.87500000000001 -43.5 C-74.87500000000001 -43.5, -74.875 -43.5, -74.875 -43.5" stroke="none" stroke-width="0" fill="#134e4a" style="fill:#134e4a !important;stroke:#2dd4bf !important;stroke-width:2px !important"/><path d="M-74.875 -43.5 C-33.144366247537434 -43.5, 8.586267504925132 -43.5, 74.875 -43.5 M-74.875 -43.5 C-38.85732568070685 -43.5, -2.8396513614137007 -43.5, 74.875 -43.5 M74.875 -43.5 C74.875 -43.5, 74.875 -43.5, 74.875 -43.5 M74.875 -43.5 C74.875 -43.5, 74.875 -43.5, 74.875 -43.5 M74.875 -43.5 C75.82349418057028 -43.46958363776103, 76.77198836114054 -43.43916727552207, 77.66205456916101 -43.41062458463963 M74.875 -43.5 C75.46578959534853 -43.48105452757936, 76.05657919069704 -43.46210905515872, 77.66205456916101 -43.41062458463963 M77.66205456916101 -43.41062458463963 C78.23157862253443 -43.35568328416358, 78.80110267590784 -43.30074198368754, 80.43765653327601 -43.14286560131121 M77.66205456916101 -43.41062458463963 C78.4924921763399 -43.330513267422425, 79.32292978351876 -43.25040195020523, 80.43765653327601 -43.14286560131121 M80.43765653327601 -43.14286560131121 C81.41183417119841 -42.98536811567233, 82.38601180912082 -42.827870630033445, 83.19040034850968 -42.697823329111344 M80.43765653327601 -43.14286560131121 C81.2892982149881 -43.00517877879188, 82.14093989670019 -42.867491956272545, 83.19040034850968 -42.697823329111344 M83.19040034850968 -42.697823329111344 C83.89927074129346 -42.536028287770066, 84.60814113407724 -42.37423324642878, 85.90897440006356 -42.07732654219778 M83.19040034850968 -42.697823329111344 C83.77889706683189 -42.56350279345428, 84.36739378515408 -42.42918225779722, 85.90897440006356 -42.07732654219778 M85.90897440006356 -42.07732654219778 C86.73668824132872 -41.831665418868894, 87.56440208259389 -41.58600429554001, 88.58220748402749 -41.28392499496409 M85.90897440006356 -42.07732654219778 C86.93367291827288 -41.77320140074554, 87.9583714364822 -41.469076259293296, 88.58220748402749 -41.28392499496409 M88.58220748402749 -41.28392499496409 C89.53496390787636 -40.933301823803866, 90.48772033172523 -40.582678652643644, 91.19911471225277 -40.32087894455194 M88.58220748402749 -41.28392499496409 C89.42376065022916 -40.974225650569686, 90.2653138164308 -40.66452630617528, 91.19911471225277 -40.32087894455194 M91.19911471225277 -40.32087894455194 C92.19393168268624 -39.88050298193798, 93.1887486531197 -39.44012701932401, 93.74894265161377 -39.192145753755234 M91.19911471225277 -40.32087894455194 C91.87247857502189 -40.022800737133345, 92.54584243779102 -39.72472252971474, 93.74894265161377 -39.192145753755234 M93.74894265161377 -39.192145753755234 C94.37682178844025 -38.86458161024864, 95.00470092526673 -38.53701746674205, 96.22121351217129 -37.90236362936744 M93.74894265161377 -39.192145753755234 C94.58895612269181 -38.753911263948126, 95.42896959376986 -38.31567677414102, 96.22121351217129 -37.90236362936744 M96.22121351217129 -37.90236362936744 C96.75495395317927 -37.57880703742141, 97.28869439418726 -37.25525044547538, 98.60576820265887 -36.45683256279507 M96.22121351217129 -37.90236362936744 C96.74941129937001 -37.58216702673283, 97.27760908656873 -37.26197042409823, 98.60576820265887 -36.45683256279507 M98.60576820265887 -36.45683256279507 C99.39477226642583 -35.90645748334667, 100.18377633019279 -35.35608240389827, 100.8928080763679 -34.86149255125611 M98.60576820265887 -36.45683256279507 C99.37557859459487 -35.91984615793528, 100.14538898653089 -35.38285975307549, 100.8928080763679 -34.86149255125611 M100.8928080763679 -34.86149255125611 C101.54307620539345 -34.34292102271989, 102.193344334419 -33.824349494183664, 103.07293519588879 -33.12289918905735 M100.8928080763679 -34.86149255125611 C101.38849134144371 -34.4661983380438, 101.88417460651954 -34.07090412483149, 103.07293519588879 -33.12289918905735 M103.07293519588879 -33.12289918905735 C103.48743827053767 -32.74645846381162, 103.90194134518653 -32.370017738565885, 105.13719095125165 -31.248196729251152 M103.07293519588879 -33.12289918905735 C103.67030863550347 -32.580380436834375, 104.26768207511817 -32.03786168461141, 105.13719095125165 -31.248196729251152 M105.13719095125165 -31.248196729251152 C105.73607443738791 -30.629800360566833, 106.33495792352417 -30.011403991882514, 107.07709287277622 -29.24508872636729 M105.13719095125165 -31.248196729251152 C105.77367950045594 -30.59097004551599, 106.41016804966024 -29.933743361780827, 107.07709287277622 -29.24508872636729 M107.07709287277622 -29.24508872636729 C107.6659861741334 -28.553341145615043, 108.25487947549055 -27.861593564862797, 108.8846694873593 -27.12180638085491 M107.07709287277622 -29.24508872636729 C107.54058309177682 -28.700646741788592, 108.00407331077744 -28.156204757209892, 108.8846694873593 -27.12180638085491 M108.8846694873593 -27.12180638085491 C109.40350679538028 -26.42661165515793, 109.92234410340126 -25.731416929460956, 110.55249307496757 -24.88707471531439 M108.8846694873593 -27.12180638085491 C109.28588148852148 -26.584218850462815, 109.68709348968368 -26.04663132007072, 110.55249307496757 -24.88707471531439 M110.55249307496757 -24.88707471531439 C111.13858082600517 -23.9866865431233, 111.72466857704275 -23.08629837093221, 112.07371019073256 -22.550076721507846 M110.55249307496757 -24.88707471531439 C111.13945434920524 -23.98534457691415, 111.72641562344292 -23.083614438513912, 112.07371019073256 -22.550076721507846 M112.07371019073256 -22.550076721507846 C112.53366881009751 -21.733373616964656, 112.99362742946245 -20.91667051242147, 113.44206982722551 -20.120415625476333 M112.07371019073256 -22.550076721507846 C112.36039499297614 -22.041038825140223, 112.64707979521974 -21.532000928772604, 113.44206982722551 -20.120415625476333 M113.44206982722551 -20.120415625476333 C113.85596817449431 -19.26094685136674, 114.2698665217631 -18.401478077257142, 114.65194910118784 -17.60807542582414 M113.44206982722551 -20.120415625476333 C113.77188431913086 -19.43554877613522, 114.10169881103623 -18.75068192679411, 114.65194910118784 -17.60807542582414 M114.65194910118784 -17.60807542582414 C114.99465435808793 -16.761586815525508, 115.33735961498803 -15.915098205226878, 115.69837635916457 -15.023379867326902 M114.65194910118784 -17.60807542582414 C114.90211118615434 -16.990170239401987, 115.15227327112085 -16.372265052979838, 115.69837635916457 -15.023379867326902 M115.69837635916457 -15.023379867326902 C116.01110045823653 -14.08150470674088, 116.32382455730848 -13.139629546154858, 116.57705160709475 -12.376950018449923 M115.69837635916457 -15.023379867326902 C116.0280990798016 -14.03030756694943, 116.35782180043863 -13.037235266571958, 116.57705160709475 -12.376950018449923 M116.57705160709475 -12.376950018449923 C116.78321454014328 -11.590761403155431, 116.98937747319182 -10.804572787860941, 117.28436417990932 -9.67966062709968 M116.57705160709475 -12.376950018449923 C116.79311033368546 -11.553024453515075, 117.00916906027616 -10.729098888580229, 117.28436417990932 -9.67966062709968 M117.28436417990932 -9.67966062709968 C117.49151350229631 -8.615992637667269, 117.69866282468331 -7.552324648234855, 117.81740757852859 -6.942595433952013 M117.28436417990932 -9.67966062709968 C117.46802310098232 -8.736610883716516, 117.65168202205534 -7.7935611403333525, 117.81740757852859 -6.942595433952013 M117.81740757852859 -6.942595433952013 C117.93549751686932 -6.026713191677245, 118.05358745521005 -5.110830949402476, 118.17399141329012 -4.177001626984165 M117.81740757852859 -6.942595433952013 C117.95675202319921 -5.861867437759546, 118.09609646786984 -4.7811394415670785, 118.17399141329012 -4.177001626984165 M118.17399141329012 -4.177001626984165 C118.21390839358266 -3.5552624385214875, 118.25382537387519 -2.93352325005881, 118.35265040472993 -1.3942436243669998 M118.17399141329012 -4.177001626984165 C118.22434025523295 -3.3927777728709207, 118.27468909717578 -2.6085539187576767, 118.35265040472993 -1.3942436243669998 M118.35265040472993 -1.3942436243669998 C118.35265040472993 -0.6924776818942947, 118.35265040472993 0.009288260578410368, 118.35265040472993 1.3942436243669891 M118.35265040472993 -1.3942436243669998 C118.35265040472993 -0.607696156538343, 118.35265040472993 0.17885131129031384, 118.35265040472993 1.3942436243669891 M118.35265040472993 1.3942436243669891 C118.28214446812034 2.4924304984289556, 118.21163853151076 3.5906173724909216, 118.17399141329012 4.177001626984135 M118.35265040472993 1.3942436243669891 C118.31289026965538 2.0135398219564493, 118.27313013458082 2.632836019545909, 118.17399141329012 4.177001626984135 M118.17399141329012 4.177001626984135 C118.04924401760286 5.144517793775015, 117.9244966219156 6.1120339605658955, 117.81740757852859 6.942595433951983 M118.17399141329012 4.177001626984135 C118.05776293203094 5.078446775720733, 117.94153445077175 5.979891924457333, 117.81740757852859 6.942595433951983 M117.81740757852859 6.942595433951983 C117.6559495602874 7.771648233456223, 117.4944915420462 8.600701032960464, 117.28436417990932 9.679660627099672 M117.81740757852859 6.942595433951983 C117.70536816087352 7.517894164071434, 117.59332874321845 8.093192894190885, 117.28436417990932 9.679660627099672 M117.28436417990932 9.679660627099672 C117.08451442281184 10.441774366345026, 116.88466466571435 11.20388810559038, 116.57705160709475 12.376950018449895 M117.28436417990932 9.679660627099672 C117.11004461008534 10.344416697418009, 116.93572504026135 11.009172767736343, 116.57705160709475 12.376950018449895 M116.57705160709475 12.376950018449895 C116.36156560650466 13.025959519195544, 116.14607960591458 13.674969019941193, 115.69837635916457 15.023379867326874 M116.57705160709475 12.376950018449895 C116.2508380448771 13.359453292776635, 115.92462448265945 14.341956567103376, 115.69837635916457 15.023379867326874 M115.69837635916457 15.023379867326874 C115.41744863633619 15.717276774081, 115.13652091350782 16.411173680835127, 114.65194910118785 17.60807542582413 M115.69837635916457 15.023379867326874 C115.46111633306978 15.609416718891547, 115.22385630697501 16.19545357045622, 114.65194910118785 17.60807542582413 M114.65194910118785 17.60807542582413 C114.19384220228248 18.559344203318513, 113.73573530337713 19.510612980812898, 113.44206982722551 20.120415625476323 M114.65194910118785 17.60807542582413 C114.40086550822139 18.12945587894724, 114.14978191525493 18.650836332070348, 113.44206982722551 20.120415625476323 M113.44206982722551 20.120415625476323 C113.16330597219317 20.615389077987484, 112.88454211716083 21.110362530498644, 112.07371019073256 22.550076721507835 M113.44206982722551 20.120415625476323 C112.9890336641127 20.92482720796913, 112.53599750099988 21.729238790461938, 112.07371019073256 22.550076721507835 M112.07371019073256 22.550076721507835 C111.48616782423028 23.452699573671634, 110.89862545772802 24.355322425835432, 110.5524930749676 24.887074715314366 M112.07371019073256 22.550076721507835 C111.6882997094169 23.142170718013904, 111.30288922810124 23.734264714519973, 110.5524930749676 24.887074715314366 M110.5524930749676 24.887074715314366 C110.05524545857573 25.553341221089703, 109.55799784218387 26.219607726865036, 108.8846694873593 27.121806380854903 M110.5524930749676 24.887074715314366 C109.90570101294165 25.753717154460112, 109.2589089509157 26.620359593605855, 108.8846694873593 27.121806380854903 M108.8846694873593 27.121806380854903 C108.47887370543305 27.598477196739605, 108.07307792350677 28.075148012624307, 107.07709287277623 29.245088726367264 M108.8846694873593 27.121806380854903 C108.38095366635592 27.71349964644766, 107.87723784535252 28.305192912040418, 107.07709287277623 29.245088726367264 M107.07709287277623 29.245088726367264 C106.37952526959363 29.965384548018637, 105.68195766641101 30.68568036967001, 105.13719095125167 31.24819672925114 M107.07709287277623 29.245088726367264 C106.52663828257595 29.8134782839114, 105.97618369237566 30.381867841455534, 105.13719095125167 31.24819672925114 M105.13719095125167 31.24819672925114 C104.6509883895991 31.689753031529158, 104.16478582794653 32.131309333807174, 103.07293519588882 33.12289918905732 M105.13719095125167 31.24819672925114 C104.62370669595596 31.714529543861804, 104.11022244066024 32.18086235847247, 103.07293519588882 33.12289918905732 M103.07293519588882 33.12289918905732 C102.39945394112908 33.65998256763935, 101.72597268636933 34.19706594622138, 100.89280807636791 34.861492551256106 M103.07293519588882 33.12289918905732 C102.51552901910196 33.56741578184352, 101.95812284231512 34.011932374629716, 100.89280807636791 34.861492551256106 M100.89280807636791 34.861492551256106 C100.17167511902164 35.36452368495827, 99.45054216167537 35.86755481866044, 98.60576820265888 36.45683256279506 M100.89280807636791 34.861492551256106 C100.0287601817754 35.46421495849333, 99.16471228718288 36.06693736573056, 98.60576820265888 36.45683256279506 M98.60576820265888 36.45683256279506 C97.82281945981362 36.93146069182539, 97.03987071696834 37.40608882085572, 96.22121351217129 37.90236362936744 M98.60576820265888 36.45683256279506 C97.95667384036393 36.85031737972013, 97.30757947806899 37.243802196645206, 96.22121351217129 37.90236362936744 M96.22121351217129 37.90236362936744 C95.63287509722355 38.20929940359694, 95.04453668227582 38.51623517782643, 93.74894265161379 39.19214575375523 M96.22121351217129 37.90236362936744 C95.49795860786072 38.27968524967939, 94.77470370355016 38.657006869991335, 93.74894265161379 39.19214575375523 M93.74894265161379 39.19214575375523 C93.08618177100868 39.485530335496115, 92.42342089040356 39.778914917236996, 91.1991147122528 40.32087894455194 M93.74894265161379 39.19214575375523 C93.16515596175319 39.45057080393965, 92.58136927189258 39.708995854124076, 91.1991147122528 40.32087894455194 M91.1991147122528 40.32087894455194 C90.61771805216671 40.534838289835434, 90.03632139208062 40.748797635118926, 88.58220748402752 41.283924994964075 M91.1991147122528 40.32087894455194 C90.58796188796873 40.54578883332325, 89.97680906368467 40.770698722094565, 88.58220748402752 41.283924994964075 M88.58220748402752 41.283924994964075 C87.61452012786377 41.5711295227789, 86.64683277170002 41.85833405059371, 85.90897440006361 42.077326542197774 M88.58220748402752 41.283924994964075 C87.75724423844173 41.5287697559335, 86.93228099285594 41.773614516902924, 85.90897440006361 42.077326542197774 M85.90897440006361 42.077326542197774 C85.22978622336448 42.2323468114123, 84.55059804666534 42.38736708062682, 83.19040034850971 42.697823329111344 M85.90897440006361 42.077326542197774 C85.20086000161254 42.23894903276594, 84.49274560316147 42.4005715233341, 83.19040034850971 42.697823329111344 M83.19040034850971 42.697823329111344 C82.29125790199794 42.84318970690955, 81.39211545548616 42.98855608470776, 80.43765653327604 43.1428656013112 M83.19040034850971 42.697823329111344 C82.32983887842668 42.83695223384049, 81.46927740834366 42.97608113856964, 80.43765653327604 43.1428656013112 M80.43765653327604 43.1428656013112 C79.63898795746843 43.219912198279864, 78.8403193816608 43.296958795248536, 77.66205456916101 43.41062458463963 M80.43765653327604 43.1428656013112 C79.46954118344408 43.23625852478043, 78.50142583361212 43.32965144824967, 77.66205456916101 43.41062458463963 M77.66205456916101 43.41062458463963 C77.02202950128779 43.431148942833104, 76.38200443341456 43.451673301026574, 74.87500000000001 43.5 M77.66205456916101 43.41062458463963 C76.59560998303378 43.44482338680827, 75.52916539690655 43.479022188976906, 74.87500000000001 43.5 M74.87500000000001 43.5 C74.87500000000001 43.5, 74.875 43.5, 74.875 43.5 M74.87500000000001 43.5 C74.87500000000001 43.5, 74.875 43.5, 74.875 43.5 M74.875 43.5 C26.801260469822928 43.5, -21.272479060354144 43.5, -74.87499999999999 43.5 M74.875 43.5 C37.59738549168828 43.5, 0.3197709833765572 43.5, -74.87499999999999 43.5 M-74.87499999999999 43.5 C-75.98040094069492 43.46455194336432, -77.08580188138984 43.42910388672863, -77.66205456916099 43.41062458463963 M-74.87499999999999 43.5 C-75.88027121103732 43.467762908903744, -76.88554242207466 43.43552581780748, -77.66205456916099 43.41062458463963 M-77.66205456916099 43.41062458463963 C-78.52410134729485 43.32746396871599, -79.38614812542869 43.24430335279235, -80.43765653327603 43.1428656013112 M-77.66205456916099 43.41062458463963 C-78.2961915678543 43.349450151037004, -78.9303285665476 43.28827571743439, -80.43765653327603 43.1428656013112 M-80.43765653327603 43.1428656013112 C-81.15305179327163 43.02720604364821, -81.86844705326723 42.91154648598523, -83.1904003485097 42.697823329111344 M-80.43765653327603 43.1428656013112 C-81.11531548881491 43.03330695670336, -81.7929744443538 42.923748312095526, -83.1904003485097 42.697823329111344 M-83.1904003485097 42.697823329111344 C-84.09936067027786 42.49035906718819, -85.00832099204601 42.28289480526504, -85.90897440006356 42.07732654219778 M-83.1904003485097 42.697823329111344 C-84.13769767603657 42.48160889579611, -85.08499500356344 42.26539446248087, -85.90897440006356 42.07732654219778 M-85.90897440006356 42.07732654219778 C-86.70352211353833 41.84150895150452, -87.4980698270131 41.60569136081127, -88.58220748402748 41.283924994964096 M-85.90897440006356 42.07732654219778 C-86.48082732236642 41.907603596575534, -87.05268024466929 41.73788065095329, -88.58220748402748 41.283924994964096 M-88.58220748402748 41.283924994964096 C-89.31452520427008 41.01442530444402, -90.04684292451269 40.74492561392394, -91.19911471225278 40.32087894455194 M-88.58220748402748 41.283924994964096 C-89.17138892464956 41.06710077848163, -89.76057036527165 40.85027656199917, -91.19911471225278 40.32087894455194 M-91.19911471225278 40.32087894455194 C-91.85284315181049 40.0314927565249, -92.5065715913682 39.74210656849785, -93.74894265161377 39.192145753755234 M-91.19911471225278 40.32087894455194 C-91.96054943255366 39.9838143810332, -92.72198415285455 39.64674981751445, -93.74894265161377 39.192145753755234 M-93.74894265161377 39.192145753755234 C-94.3536770801754 38.87665618972552, -94.95841150873703 38.56116662569581, -96.22121351217127 37.90236362936745 M-93.74894265161377 39.192145753755234 C-94.37744520694949 38.86425637321169, -95.0059477622852 38.53636699266815, -96.22121351217127 37.90236362936745 M-96.22121351217127 37.90236362936745 C-97.10403145318911 37.367194205508355, -97.98684939420696 36.83202478164925, -98.60576820265884 36.456832562795086 M-96.22121351217127 37.90236362936745 C-97.01634735966726 37.42034881829023, -97.81148120716325 36.93833400721301, -98.60576820265884 36.456832562795086 M-98.60576820265884 36.456832562795086 C-99.40346093769699 35.90039664239442, -100.20115367273513 35.34396072199376, -100.89280807636788 34.86149255125612 M-98.60576820265884 36.456832562795086 C-99.48012497983402 35.846919125332526, -100.3544817570092 35.23700568786997, -100.89280807636788 34.86149255125612 M-100.89280807636788 34.86149255125612 C-101.71427402168594 34.20639531999185, -102.53573996700398 33.55129808872758, -103.07293519588879 33.12289918905736 M-100.89280807636788 34.86149255125612 C-101.57035655247796 34.32116567188051, -102.24790502858804 33.7808387925049, -103.07293519588879 33.12289918905736 M-103.07293519588879 33.12289918905736 C-103.72248865855107 32.53299192051032, -104.37204212121335 31.943084651963275, -105.13719095125164 31.24819672925117 M-103.07293519588879 33.12289918905736 C-103.88732296962773 32.383293760467375, -104.70171074336666 31.6436883318774, -105.13719095125164 31.24819672925117 M-105.13719095125164 31.24819672925117 C-105.54776420257465 30.824246138569325, -105.95833745389767 30.400295547887485, -107.07709287277623 29.245088726367282 M-105.13719095125164 31.24819672925117 C-105.68205997357242 30.685574729126284, -106.2269289958932 30.1229527290014, -107.07709287277623 29.245088726367282 M-107.07709287277623 29.245088726367282 C-107.53529116940699 28.706862934923116, -107.99348946603776 28.168637143478946, -108.88466948735929 27.121806380854917 M-107.07709287277623 29.245088726367282 C-107.61840996122716 28.609226872457906, -108.1597270496781 27.973365018548527, -108.88466948735929 27.121806380854917 M-108.88466948735929 27.121806380854917 C-109.24600818848646 26.63764543997739, -109.60734688961362 26.15348449909986, -110.55249307496757 24.887074715314395 M-108.88466948735929 27.121806380854917 C-109.37099685128307 26.470172018531365, -109.85732421520683 25.818537656207813, -110.55249307496757 24.887074715314395 M-110.55249307496757 24.887074715314395 C-111.03277802012205 24.14922806499119, -111.51306296527655 23.41138141466798, -112.07371019073254 22.550076721507864 M-110.55249307496757 24.887074715314395 C-111.03691283288936 24.14287588222792, -111.52133259081114 23.398677049141444, -112.07371019073254 22.550076721507864 M-112.07371019073254 22.550076721507864 C-112.52637072000026 21.74633211494408, -112.97903124926796 20.9425875083803, -113.44206982722551 20.120415625476337 M-112.07371019073254 22.550076721507864 C-112.58018737000272 21.650775203337954, -113.08666454927291 20.751473685168044, -113.44206982722551 20.120415625476337 M-113.44206982722551 20.120415625476337 C-113.79630095702385 19.384847105118105, -114.15053208682218 18.64927858475987, -114.65194910118784 17.608075425824147 M-113.44206982722551 20.120415625476337 C-113.89631095716022 19.1771741999637, -114.35055208709494 18.23393277445107, -114.65194910118784 17.608075425824147 M-114.65194910118784 17.608075425824147 C-114.94582707213927 16.88219115583007, -115.2397050430907 16.156306885835996, -115.69837635916457 15.023379867326907 M-114.65194910118784 17.608075425824147 C-115.01217168919062 16.71831866902731, -115.37239427719341 15.828561912230471, -115.69837635916457 15.023379867326907 M-115.69837635916457 15.023379867326907 C-116.03005209013804 14.024425410986018, -116.3617278211115 13.025470954645128, -116.57705160709475 12.37695001844991 M-115.69837635916457 15.023379867326907 C-115.93398253954172 14.313771590777938, -116.16958871991886 13.60416331422897, -116.57705160709475 12.37695001844991 M-116.57705160709475 12.37695001844991 C-116.76268122193206 11.669063844691255, -116.94831083676937 10.9611776709326, -117.28436417990932 9.679660627099686 M-116.57705160709475 12.37695001844991 C-116.75429716772138 11.701035877068634, -116.93154272834802 11.025121735687359, -117.28436417990932 9.679660627099686 M-117.28436417990932 9.679660627099686 C-117.48735361435114 8.637352783073142, -117.69034304879295 7.595044939046598, -117.81740757852859 6.942595433952017 M-117.28436417990932 9.679660627099686 C-117.41737788474938 8.996663365202448, -117.55039158958945 8.313666103305211, -117.81740757852859 6.942595433952017 M-117.81740757852859 6.942595433952017 C-117.9534434106534 5.887528383305393, -118.08947924277821 4.83246133265877, -118.17399141329011 4.17700162698419 M-117.81740757852859 6.942595433952017 C-117.94499194924188 5.953076249083314, -118.07257631995517 4.963557064214611, -118.17399141329011 4.17700162698419 M-118.17399141329011 4.17700162698419 C-118.22221586889731 3.425866804822205, -118.2704403245045 2.6747319826602203, -118.35265040472993 1.394243624367005 M-118.17399141329011 4.17700162698419 C-118.22579650092743 3.3700955707189078, -118.27760158856475 2.563189514453626, -118.35265040472993 1.394243624367005 M-118.35265040472993 1.394243624367005 C-118.35265040472993 0.44493125583076754, -118.35265040472993 -0.50438111270547, -118.35265040472993 -1.394243624366984 M-118.35265040472993 1.394243624367005 C-118.35265040472993 0.7570391862241772, -118.35265040472993 0.11983474808134931, -118.35265040472993 -1.394243624366984 M-118.35265040472993 -1.394243624366984 C-118.31522502058912 -1.977174191586416, -118.27779963644831 -2.5601047588058483, -118.17399141329012 -4.177001626984129 M-118.35265040472993 -1.394243624366984 C-118.30553513623092 -2.1281019619993344, -118.2584198677319 -2.8619602996316855, -118.17399141329012 -4.177001626984129 M-118.17399141329012 -4.177001626984129 C-118.09463899870893 -4.792443284569196, -118.01528658412775 -5.407884942154262, -117.81740757852859 -6.942595433951997 M-118.17399141329012 -4.177001626984129 C-118.09329136451558 -4.802895269252405, -118.01259131574103 -5.42878891152068, -117.81740757852859 -6.942595433951997 M-117.81740757852859 -6.942595433951997 C-117.61086469590033 -8.003149483394353, -117.40432181327208 -9.063703532836707, -117.28436417990932 -9.679660627099667 M-117.81740757852859 -6.942595433951997 C-117.63253075267701 -7.891898860968854, -117.44765392682542 -8.84120228798571, -117.28436417990932 -9.679660627099667 M-117.28436417990932 -9.679660627099667 C-117.12261449074703 -10.296482294634245, -116.96086480158472 -10.913303962168824, -116.57705160709475 -12.37695001844989 M-117.28436417990932 -9.679660627099667 C-117.05178108615209 -10.566600765746484, -116.81919799239485 -11.453540904393304, -116.57705160709475 -12.37695001844989 M-116.57705160709475 -12.37695001844989 C-116.2258608422474 -13.43468064752052, -115.87467007740005 -14.492411276591149, -115.6983763591646 -15.023379867326852 M-116.57705160709475 -12.37695001844989 C-116.2532693401072 -13.352130618917894, -115.92948707311965 -14.327311219385898, -115.6983763591646 -15.023379867326852 M-115.6983763591646 -15.023379867326852 C-115.37177721502542 -15.83008606771552, -115.04517807088624 -16.636792268104188, -114.65194910118785 -17.608075425824126 M-115.6983763591646 -15.023379867326852 C-115.31733243612827 -15.964565724209683, -114.93628851309192 -16.905751581092513, -114.65194910118785 -17.608075425824126 M-114.65194910118785 -17.608075425824126 C-114.30602131180655 -18.326401882143383, -113.96009352242523 -19.04472833846264, -113.44206982722551 -20.12041562547632 M-114.65194910118785 -17.608075425824126 C-114.22691847932785 -18.490660606314854, -113.80188785746785 -19.373245786805587, -113.44206982722551 -20.12041562547632 M-113.44206982722551 -20.12041562547632 C-113.14782143206392 -20.64288344696669, -112.85357303690233 -21.16535126845706, -112.07371019073256 -22.55007672150785 M-113.44206982722551 -20.12041562547632 C-112.9757414978989 -20.94842879505953, -112.50941316857228 -21.77644196464274, -112.07371019073256 -22.55007672150785 M-112.07371019073256 -22.55007672150785 C-111.65155964807975 -23.198613318315616, -111.22940910542694 -23.847149915123385, -110.55249307496757 -24.88707471531438 M-112.07371019073256 -22.55007672150785 C-111.66436354040745 -23.178943101373772, -111.25501689008233 -23.807809481239698, -110.55249307496757 -24.88707471531438 M-110.55249307496757 -24.88707471531438 C-110.01163435489335 -25.611776126970803, -109.47077563481912 -26.33647753862723, -108.8846694873593 -27.121806380854903 M-110.55249307496757 -24.88707471531438 C-110.076219619885 -25.525237755720667, -109.59994616480243 -26.163400796126954, -108.8846694873593 -27.121806380854903 M-108.8846694873593 -27.121806380854903 C-108.29081999303459 -27.819375787882198, -107.69697049870986 -28.516945194909493, -107.07709287277623 -29.245088726367264 M-108.8846694873593 -27.121806380854903 C-108.28293194404485 -27.82864153906824, -107.6811944007304 -28.535476697281577, -107.07709287277623 -29.245088726367264 M-107.07709287277623 -29.245088726367264 C-106.6606104409516 -29.675141031069767, -106.24412800912698 -30.10519333577227, -105.13719095125168 -31.248196729251127 M-107.07709287277623 -29.245088726367264 C-106.50484075443083 -29.83598602133158, -105.93258863608541 -30.426883316295893, -105.13719095125168 -31.248196729251127 M-105.13719095125168 -31.248196729251127 C-104.66167620317684 -31.680046642021907, -104.186161455102 -32.111896554792686, -103.07293519588883 -33.12289918905732 M-105.13719095125168 -31.248196729251127 C-104.47217571712245 -31.85214596954839, -103.80716048299324 -32.45609520984565, -103.07293519588883 -33.12289918905732 M-103.07293519588883 -33.12289918905732 C-102.23477390222338 -33.79131051634677, -101.39661260855793 -34.45972184363622, -100.89280807636791 -34.861492551256106 M-103.07293519588883 -33.12289918905732 C-102.52883217512074 -33.5568068689304, -101.98472915435266 -33.99071454880348, -100.89280807636791 -34.861492551256106 M-100.89280807636791 -34.861492551256106 C-100.24026367531495 -35.316679277238805, -99.587719274262 -35.77186600322151, -98.6057682026589 -36.45683256279505 M-100.89280807636791 -34.861492551256106 C-100.34973247826443 -35.24031857912936, -99.80665688016094 -35.61914460700261, -98.6057682026589 -36.45683256279505 M-98.6057682026589 -36.45683256279505 C-97.86272512997036 -36.90726964006463, -97.11968205728182 -37.357706717334196, -96.2212135121713 -37.902363629367436 M-98.6057682026589 -36.45683256279505 C-97.78714525970068 -36.95308660157872, -96.96852231674247 -37.449340640362394, -96.2212135121713 -37.902363629367436 M-96.2212135121713 -37.902363629367436 C-95.25225808999507 -38.40786705247121, -94.28330266781883 -38.91337047557498, -93.74894265161379 -39.19214575375523 M-96.2212135121713 -37.902363629367436 C-95.321771389347 -38.37160200872469, -94.42232926652271 -38.84084038808196, -93.74894265161379 -39.19214575375523 M-93.74894265161379 -39.19214575375523 C-92.93136531474948 -39.55406298821505, -92.1137879778852 -39.91598022267487, -91.1991147122528 -40.320878944551936 M-93.74894265161379 -39.19214575375523 C-92.85343668104166 -39.58855968268672, -91.95793071046953 -39.984973611618216, -91.1991147122528 -40.320878944551936 M-91.1991147122528 -40.320878944551936 C-90.18883707397188 -40.69267045434343, -89.17855943569097 -41.06446196413492, -88.58220748402753 -41.283924994964075 M-91.1991147122528 -40.320878944551936 C-90.28163939854865 -40.658518341043894, -89.3641640848445 -40.996157737535846, -88.58220748402753 -41.283924994964075 M-88.58220748402753 -41.283924994964075 C-87.92373445798378 -41.479356332698416, -87.26526143194003 -41.67478767043275, -85.90897440006361 -42.07732654219777 M-88.58220748402753 -41.283924994964075 C-87.59237610848149 -41.577701751495226, -86.60254473293546 -41.87147850802637, -85.90897440006361 -42.07732654219777 M-85.90897440006361 -42.07732654219777 C-84.9196995833932 -42.303122063481304, -83.93042476672278 -42.528917584764834, -83.19040034850971 -42.69782332911134 M-85.90897440006361 -42.07732654219777 C-85.28986832776187 -42.21863346315596, -84.6707622554601 -42.359940384114154, -83.19040034850971 -42.69782332911134 M-83.19040034850971 -42.69782332911134 C-82.41189780694592 -42.823685582653994, -81.63339526538212 -42.94954783619665, -80.43765653327604 -43.1428656013112 M-83.19040034850971 -42.69782332911134 C-82.63499001358157 -42.787617764791044, -82.07957967865343 -42.877412200470744, -80.43765653327604 -43.1428656013112 M-80.43765653327604 -43.1428656013112 C-79.69875692796319 -43.21414635757894, -78.95985732265034 -43.28542711384668, -77.66205456916101 -43.41062458463963 M-80.43765653327604 -43.1428656013112 C-79.3533087538826 -43.24747132747028, -78.26896097448916 -43.352077053629365, -77.66205456916101 -43.41062458463963 M-77.66205456916101 -43.41062458463963 C-76.86315025421423 -43.436243891047056, -76.06424593926744 -43.461863197454484, -74.87500000000001 -43.5 M-77.66205456916101 -43.41062458463963 C-76.92723917195998 -43.434188684196464, -76.19242377475896 -43.45775278375329, -74.87500000000001 -43.5 M-74.87500000000001 -43.5 C-74.87500000000001 -43.5, -74.875 -43.5, -74.875 -43.5 M-74.87500000000001 -43.5 C-74.87500000000001 -43.5, -74.875 -43.5, -74.875 -43.5" stroke="#2dd4bf" stroke-width="2" fill="none" stroke-dasharray="0 0" style="fill:#134e4a !important;stroke:#2dd4bf !important;stroke-width:2px !important"/></g><g class="label" style="color:#ccfbf1 !important" transform="translate(-100, -36)"><rect/><foreignObject width="200" height="72"><div style="color: rgb(204, 251, 241) !important; display: table; white-space: break-spaces; line-height: 1.5; max-width: 200px; text-align: center; width: 200px;" xmlns="http://www.w3.org/1999/xhtml"><span style="color:#ccfbf1 !important" class="nodeLabel"><p>Unified StreamEvent<br />text · tools · reasoning · json · usage · errors</p></span></div></foreignObject></g></g></g></g></g><defs><filter id="my-svg-drop-shadow" height="130%" width="130%"><feDropShadow dx="4" dy="4" stdDeviation="0" flood-opacity="0.06" flood-color="#000000"/></filter></defs><defs><filter id="my-svg-drop-shadow-small" height="150%" width="150%"><feDropShadow dx="2" dy="2" stdDeviation="0" flood-opacity="0.06" flood-color="#000000"/></filter></defs></svg>